<?xml version="1.0" encoding="UTF-8"?>
<svg id="Layer_1" data-name="Layer 1" xmlns="http://www.w3.org/2000/svg" viewBox="0 0 1170.28 1024">
  <defs>
    <style>
      .cls-1 {
        fill: #57fa79;
      }
    </style>
  </defs>
  <path class="cls-1" d="M841.13,1024c-6.14,0-12.19-1.53-17.59-4.46l-333.49-182.05h-110.63C173.75,837.49,0,656.1,0,441.46v-68.42C2.01,165.36,171.74-1.51,379.42,.01h411.42c207.68-1.52,377.41,165.34,379.42,373.02v68.28c1.26,175.4-121,327.49-292.57,363.96v182.16c0,20.2-16.37,36.57-36.57,36.57h0ZM379.42,72.82c-167.42-1.52-304.45,132.8-306.28,300.21v68.28c0,172.14,143.14,323.14,306.28,323.14h119.99c6.14,0,12.19,1.53,17.59,4.46l287.56,157.18v-150.23c.09-17.7,12.84-32.8,30.28-35.84,159.34-27.76,262.29-144.97,262.29-298.57v-68.42c-1.75-167.47-138.81-301.88-306.28-300.36H379.42v.15Z"/>
  <path class="cls-1" d="M824.18,981.89c-5.71,0-11.33-1.42-16.35-4.15l-309.96-169.21h-102.82c-191.16,0-352.66-168.59-352.66-368.09v-63.6C44.26,183.82,202.01,28.73,395.04,30.14h382.4c193.03-1.41,350.79,153.68,352.66,346.71v63.46c1.17,163.02-112.46,304.38-271.93,338.28v169.31c0,18.77-15.22,33.99-33.99,33.99h0ZM395.04,97.82c-155.61-1.42-282.97,123.43-284.67,279.03v63.46c0,159.99,133.04,300.34,284.67,300.34h111.52c5.71,0,11.33,1.43,16.35,4.15l267.27,146.09v-139.63c.08-16.45,11.94-30.48,28.14-33.31,148.1-25.8,243.78-134.74,243.78-277.5v-63.6c-1.63-155.66-129.02-280.58-284.67-279.17H395.04v.14Z"/>
</svg>