<?xml version="1.0" encoding="utf-8"?>
<!-- Generator: Adobe Illustrator 26.5.0, SVG Export Plug-In . SVG Version: 6.00 Build 0)  -->
<svg version="1.1" id="Layer_1" xmlns="http://www.w3.org/2000/svg" xmlns:xlink="http://www.w3.org/1999/xlink" x="0px" y="0px"
	 viewBox="0 0 496.2 691" style="enable-background:new 0 0 496.2 691;" xml:space="preserve">
<style type="text/css">
	.st0{fill:#17F76F;stroke:#000000;stroke-width:8;stroke-miterlimit:10;}
	.st1{fill:#FFFFFF;}
	.st2{fill:#17F76F;stroke:#000000;stroke-width:6;stroke-miterlimit:10;}
</style>
<path class="st0" d="M2.5,543.9l3-229.9c0,0,18-124.8,48-160.8s51.6-74.4,60-79.2S180.8-0.3,249.8,2.6s126.6,6.5,144.6,51
	c0,0,34.8,50.4,33.6,114c-1.2,63.6,2.4,220.9,2.4,230.5s-1.2,200.5-2.4,225.7c-1.2,25.2-3.6,66-20.4,56.4s-26.4-36-26.4-36
	s-1.2,33.6-13.2,32.4s-31.2-1.2-31.2-33.6c0-1.2-2.4,30-16.8,28.8s-24-26.4-24-26.4s0,39.6-15.6,38.4S254,648.9,254,648.9
	s8,34.9-13.4,34.8c-21.4,0-27.4-34.8-27.4-34.8s0,39.6-8.4,39.6s-27.6-54-27.6-54s1.2,34.8-14.4,34.8s-19.2-40.8-19.2-40.8
	s-6,42-18,40.8s-25.2-39.6-25.2-39.6s1.2,46.8-15.6,46.8c0,0-24-8.4-24-40.8c0-2.4,1.2,31.2-25.2,30S4.3,578.2,2.5,543.9z"/>
<path d="M157.3,246.2c0,0-9.6-80.4,39.6-80.4s45.2,69.6,44.2,80.4s-5.8,75.6-28.6,73.2C189.8,317,159.8,306.2,157.3,246.2
	L157.3,246.2z"/>
<path d="M357.8,224.6c0,0,1.2-64.8,32.4-66s24,54,22.8,72s-9.6,39.6-24,39.6S355.4,259.4,357.8,224.6z"/>
<path class="st1" d="M166.9,215c0,0,3.6-36,20.4-36c3.6,0,15.8,5,9.5,18c-2.3,4.8-10.7,18-10.7,24s4.1,15.2-3.4,14.8
	S166.9,231.8,166.9,215L166.9,215z"/>
<path class="st1" d="M389,168.2c0,0-20.4,7.2-19.2,32.4c1.2,25.2,9.6,25.7,9.6,25.7s4.9,9,9.6-24.4c1.2-8.5,7.2-7.3,7.2-7.3
	S405.8,164.6,389,168.2L389,168.2z"/>
<path class="st2" d="M253.4,516.3c0,0,31.2,16.8,57.6,13.2s44.4-10.8,49.2-16.8"/>
<path class="st2" d="M166.9,411.8c0,0-101.9,66.9-61.2,96c8.4,6,61.2-51.1,61.2-51.1s-26,27.3-8.4,34.3c6,2.4,26.1-31,26.1-31
	s-17.9,39.4,0.3,39.4c6,0,18-15.6,22.8-34.8c0-1.2-6,36,10.8,36c10.8,0,19.2-22.8,20.4-33.6c0,1.2,2.4,27.6,20.4,27.6
	c14.4,1.2,13.2-31.2,13.2-31.2s3.6,32.4,18,32.4S311,467,311,455c0,0,2.4,21.6,10.8,21.6s10.8-8.4,10.8-20.4
	c1.2,0,3.6,19.2,13.2,19.2s12.6-8.1,11.8-18.7c0.6,0.9,1.4,19.9,7.4,19.9c4.8,0,6-10.8,3.6-26.4c2.4,2.4,15.6,31.2,28.8,31.2
	c9.6,0,15.6-24,10.8-34.8c0,1.2,21.6,42,31.2,39.6s7.2-19.2-10.8-40.8c0,0,28.8,49.2,60,44.4c9.6-8.4,7.2-25.2-21.6-49.2
	c-24-15.6-34.2-26.4-63.6-18c-8.4,2.4-15.6-5-26.4-3.6c-9.6,1.2-15.6,4.8-31.2,1.2c-15.6-3.6-24,4.8-30,2.4s-18-2.4-33.6-3.6
	s-12-8.4-26.4-9.6s-20.4,3.6-30-4.8s-10.6-1.2-16.7,0c-6.1,1.2-16.6-4.4-23.9-4S166.9,411.8,166.9,411.8L166.9,411.8z"/>
</svg>
