<?xml version="1.0" encoding="utf-8"?>
<!-- Generator: Adobe Illustrator 26.5.3, SVG Export Plug-In . SVG Version: 6.00 Build 0)  -->
<svg version="1.1" id="Layer_1" xmlns="http://www.w3.org/2000/svg" xmlns:xlink="http://www.w3.org/1999/xlink" x="0px" y="0px"
	 viewBox="0 0 442.5 599.3" style="enable-background:new 0 0 442.5 599.3;" xml:space="preserve">
<style type="text/css">
	.st0{fill:#B6B8BA;stroke:#FFFFFF;stroke-miterlimit:10;}
	.st1{fill:none;stroke:#FFFFFF;stroke-miterlimit:10;}
	.st2{fill:#8B281C;stroke:#FFFFFF;stroke-miterlimit:10;}
	.st3{fill:none;stroke:#FFFFFF;stroke-width:3;stroke-miterlimit:10;}
	.st4{fill:#295D2E;stroke:#FFFFFF;stroke-miterlimit:10;}
	.st5{font-family:'MyriadPro-Regular';}
	.st6{font-size:29.9376px;}
</style>
<path class="st0" d="M262.4,71.7l-45.5-41.7c0,0-29-12.8-79.8-12.8S50.5,60.8,47.9,65.7c-2.6,4.9,1.9,58.4-2.6,79.8
	s-2.6,49.3-2.6,74.9s1.9,66.3,1.9,73.4s3.4,24.1,3.4,24.1l48,17.7l119.1-51.4"/>
<path class="st0" d="M46.5,317.9c0,0-3.4-16.9-3.4-24.1s-1.9-47.8-1.9-73.4s-1.9-53.5,2.6-74.9s0-74.9,2.6-79.8
	c2.6-4.9,38.4-48.6,89.2-48.6s79.8,12.8,79.8,12.8L261,71.7"/>
<path class="st0" d="M95.8,335.6c0,0,0.8-12,0-22.6c-0.8-10.5-0.8-51.2,0-59.9c0.8-8.7,0.4-36.5-0.6-57.2c-0.9-20.7,0-68.9,0-68.9
	s0.5-39.5-0.4-41.4s10.4-41.1,88.3-38c47.1,1.9,79.9,14.8,81.7,33.5c1.9,20-0.8,56.1,0,64.4s5.6,65.1,5.6,70.8s4.1,101.6,4.1,101.6"
	/>
<path class="st1" d="M11.1,295c0,0,3.8-15.4,16.9,0"/>
<path class="st1" d="M13.4,317.9c0,0,1.1-10.9,8.3-10.5s8.3,10.5,8.3,10.5"/>
<path class="st1" d="M36.7,335.6c0,0,1.1-17.7,9.8-17.7s12.8,15.4,12.8,15.4"/>
<path class="st1" d="M61.6,337.5c0,0-0.8-7.9,6-6.8c6.8,1.1,7.2,18.1,7.2,18.1"/>
<path class="st1" d="M76.2,335.6c0,0,1.3-5.5,10.5-5s8,9.1,8,9.1"/>
<path class="st1" d="M121.8,354.8c0,0,0.8-12,6.4-12.8c5.6-0.8,10.5,3.4,10.5,3.4"/>
<path class="st1" d="M136.1,339.3c0,0,4.5-17.3,11.7-3.7"/>
<path class="st1" d="M152.3,341.9c0,0,0.4-11,7.2-11.3c6.8-0.3,7.2,8.7,7.2,8.7"/>
<path class="st1" d="M171.5,348.8c0,0-1.1-8.8,5.6-9.1s7.6,8.7,7.6,8.7"/>
<path class="st1" d="M125.6,395.7c0,0-1.1-8.8,5.6-9.1c6.8-0.3,7.6,8.7,7.6,8.7"/>
<path class="st1" d="M167.1,459.9c0,0-1.1-8.8,5.6-9.1c6.8-0.3,7.6,8.7,7.6,8.7"/>
<path class="st1" d="M208.6,513.5c0,0-1.1-8.8,5.6-9.1s7.6,8.7,7.6,8.7"/>
<path class="st1" d="M321.9,574.4c0,0-1.1-8.8,5.6-9.1c6.8-0.3,7.6,8.7,7.6,8.7"/>
<path class="st1" d="M90.2,382.8c0,0-1.1-8.8,5.6-9.1c6.8-0.3,7.6,8.7,7.6,8.7"/>
<path class="st1" d="M34.4,309.6c0,0,0-6,6.4-6c3.2,0,4.1,6,4.1,6"/>
<path class="st1" d="M190.3,341.9c0,0,0.4-7,6-7.1c5.6,0,5.6,7.1,5.6,7.1"/>
<path class="st1" d="M208.4,336.3c0,0,1.5-5.4,7.9-5.7c6.4-0.3,5.6,5.7,5.6,5.7"/>
<path class="st1" d="M223.4,348.4c0,0-0.4-8.7,4.9-9c5.3-0.3,5.4,9,5.4,9"/>
<path class="st1" d="M242.3,339.3c0,0,0.8-12,8.3-12.5c7.5-0.6,7.9,8.1,7.9,8.1"/>
<path class="st1" d="M247.5,348.8c0,0,0.8-7,6-6.9c5.3,0.1,7.5,6.9,7.5,6.9"/>
<path class="st1" d="M264.8,336.3c0,0,0-5.8,4.9-5.8c4.9-0.1,4.9,5.8,4.9,5.8"/>
<path class="st1" d="M391,427.4c0,0,0-5.8,4.9-5.8c4.9-0.1,4.9,5.8,4.9,5.8"/>
<path class="st1" d="M432.8,485.6c0,0,0-5.8,4.9-5.8c4.9-0.1,4.9,5.8,4.9,5.8"/>
<path class="st1" d="M337.1,580.2c0,0,0-5.8,4.9-5.8c4.9-0.1,4.9,5.8,4.9,5.8"/>
<path class="st1" d="M265.4,326.8c0,0,1.1-8.8,11.7-8.8c10.5,0,8.3,11.8,8.3,11.8"/>
<path class="st1" d="M294.2,330.6c0,0,0.4-4.1,6.8-3.9c6.4,0.2,4.9,6.6,4.9,6.6"/>
<g>
	<path class="st2" d="M257.9,378.7c0,0,5.6,2.9,6.6,6.8c1,3.9,3.5-5,3.5-5S261.1,376.9,257.9,378.7z"/>
	<polygon class="st2" points="257,386.2 265.1,394.2 269,382.6 	"/>
	<path class="st2" d="M260.3,375.1c0,0,20.1,8.6,20.5,15.4s-5.4,4.5-5.4,4.5l-10.3-0.9C265.1,394.2,272.6,383.9,260.3,375.1z"/>
	<path class="st3" d="M314,424.5c0,0-16.2-22.1-22.5-25.4s-11.6-4.4-14.5-7.9"/>
	<path class="st2" d="M257.1,390.8c0,0,16.1,17.4,21.3,7.2c1.5-2.9,3.5-8.7-0.4-9.5C274.2,387.7,261.7,394.2,257.1,390.8z"/>
	<path class="st4" d="M306.4,415.4c0,0-15.6-0.2-17.7-1.9c-2-1.7-6.1-4.3-4-5.9c2.1-1.6,7.3-3.7,9.5-2.1
		C296.4,407.2,306.4,415.4,306.4,415.4z"/>
	<path class="st4" d="M303.4,409.8c0,0-9.6-17.3-8.6-20.2c1-2.9,4.7-7.4,6.2-2.7C302.5,391.6,304.7,406.3,303.4,409.8z"/>
</g>
<path class="st1" d="M95.8,335.6l-1,9.8c0,0-1.2-10.1,15.3-12c9.8-1.1,11.7,6,11.7,6"/>
<text transform="matrix(1.0061 0 0 1 163.0924 114.4214)" class="st5 st6">RIP</text>
<g>
	<path d="M125.1,131.2c3-0.8,4.7-0.3,5.2,1.5c0.2,0.7,0.2,1.2,0.1,1.7c-0.1,0.4-0.1,0.9-0.1,1.4v1.8c0,1.6-0.1,2.8-0.2,3.4
		s-0.1,1.4-0.1,2.3c0.1,0.9,0.1,1.7-0.1,2.5c-0.1,0.8-0.1,1.3,0,1.6c0.2,0.3,0.4,0.5,0.6,0.7c0.3,0.2,0.8,0.4,1.3,0.4
		c0.9,0,1.5-0.4,1.8-1.2c0.1-0.4,0.1-1,0-1.8c-0.1-0.9-0.1-1.7,0-2.5c0.1-0.8,0.1-1.6,0-2.3c-0.1-0.7-0.2-1.4-0.3-2.2
		c-0.1-0.8-0.1-1.6-0.1-2.4c0-1.9,0.2-3.2,0.7-3.7c0.5-0.5,1.2-0.9,2.2-1.2c1-0.3,2.1-0.4,3.2-0.4c2.7,0,4.4,0.6,5.3,1.7
		c0.4,0.5,0.6,1,0.6,1.4s0,0.8-0.1,1.1c0,0.3,0,0.6,0,0.9c0.1,1,0.1,1.9-0.2,2.9c-0.3,1-0.4,1.9-0.5,2.8c-0.1,0.9-0.2,1.9-0.2,3
		c-0.1,1.8-0.2,3.7-0.2,5.7c0,3.6-0.1,5.9-0.4,6.9c-0.7,2-0.8,3.6-0.4,4.6c0.1,0.3,0.2,0.6,0.2,1c0,0.4,0,0.8-0.1,1.2
		c0,0.4,0,0.8,0,1.2c0,0.4,0.1,0.9,0.3,1.4c0.4,1.1,0,2.2-1.1,3.4c-0.4,0.4-0.6,1.1-0.5,2.1c0,1,0.1,1.7,0.1,2.1
		c0,0.5-0.1,0.8-0.3,1c-0.2,0.2-0.7,0.4-1.5,0.7c-0.7,0.2-1.6,0.4-2.4,0.5c-2.2,0.2-3.7-0.2-4.3-1.3c-0.5-0.9-0.6-2.6-0.3-5.2
		c0.3-2.6,0.5-4.6,0.6-5.9c0.1-1.3,0.1-2.2-0.1-2.7c-0.2-0.5-0.4-0.8-0.8-1s-0.8-0.2-1.2-0.1c-0.9,0.1-1.6,0.3-1.9,0.8
		c0,0.9,0.1,2.2,0.1,3.8s0,3.2-0.1,4.9c-0.1,4-0.3,6.1-0.5,6.4c-0.2,0.3-0.5,0.4-1,0.6c-0.5,0.1-1.1,0.2-1.7,0.2
		c-1.4,0.1-2.2-0.1-2.7-0.6c-0.4-0.5-0.8-0.9-1-1.2c-0.3-0.3-0.6-0.5-1-0.6c-0.4-0.1-0.7-0.4-0.8-0.7c-0.1-0.3-0.2-0.7-0.3-1.2
		c-0.2-1.1-0.2-1.8,0-2.1c0.2-0.3,0.3-0.7,0.3-1.2c0-0.5-0.1-0.8-0.2-1c-0.2-0.1-0.3-0.7-0.5-1.7c-0.1-1-0.3-2.1-0.3-3.3
		c-0.1-1.2-0.1-2.4-0.1-3.5s0.1-2,0.4-2.5c0.6-1.3,0.6-2.5,0.2-3.7c-0.5-1.2-0.8-2.1-0.9-2.8c-0.1-0.7-0.1-1.3-0.2-1.9
		c0-1.5-0.1-2.4-0.3-2.8c-0.1-0.4-0.2-0.9-0.3-1.6c0-0.7-0.1-1.4-0.1-2.2c0-0.8,0-1.6,0-2.4c0-0.8,0-1.8-0.1-2.8
		c-0.1-1,0-2.1,0.1-3.1c0.1-1,0.5-1.8,1.1-2.4c0.7-0.6,1.5-0.9,2.4-1C123.5,130,124.4,130.4,125.1,131.2z"/>
	<path d="M172.8,175.9c-0.3,0.4-0.6,0.8-1,1c-0.4,0.2-0.8,0.2-1.3-0.1c-0.4-0.3-0.7-0.4-0.9-0.4c-0.2,0-0.4,0.1-0.5,0.1
		c-0.4,0-0.8-0.2-1.1-0.8c-0.4-0.6-0.6-1-0.6-1.3c0-0.3,0-0.7,0-1c0.2-0.7,0.1-1.3-0.3-1.9c-0.4-0.6-0.7-1-0.8-1.3
		c-0.1-0.3-0.2-0.7-0.2-1.2s0-0.9-0.1-1c-0.1-0.1-0.1-0.2-0.2-0.3c-0.2-0.4-0.3-0.9-0.2-1.7c0.1-0.8-0.1-1.3-0.3-1.6
		c-0.3-0.3-0.7-0.5-1.2-0.7c-0.5-0.2-0.9-0.1-1.1,0.1c-0.3,0.3-0.5,0.6-0.8,0.9c-0.2,0.4-0.5,0.7-0.9,0.9c-0.3,0.3-0.8,0.3-1.3,0.2
		c-0.5-0.1-1.1,0-1.7,0.4c-0.6,0.4-1,0.8-1.1,1.3c-0.1,0.5-0.3,1-0.4,1.5c-0.2,0.5-0.2,1-0.2,1.4c0.1,0.4,0.1,0.9,0,1.3
		s-0.2,0.8-0.3,1.2c-0.3,1-0.7,1.5-1.2,1.6c-0.4,0-0.8,0-1.2,0c-0.5,0.8-1,1.3-1.7,1.4c-1.7,0.4-2.8,0.1-3.1-0.8
		c-0.2-0.5-0.3-1.2-0.4-2c-0.1-1.7-0.3-2.8-0.6-3.4c-0.3-0.6-0.4-1.3-0.2-2.1c0.1-0.8,0.2-1.7,0.2-2.5c0-0.8,0-1.5,0-1.9
		c0-0.4,0.1-0.8,0.2-1.2s0.1-0.7,0.2-1c0.1-0.3,0.1-0.7,0.2-1.2c0-0.5,0.1-1,0.2-1.6s0.3-1.2,0.4-1.8c0.3-1.6,0.5-2.8,0.4-3.6
		c-0.1-0.8,0-1.5,0.2-2c0.2-0.6,0.5-1.1,0.8-1.5c0.8-1.2,1.1-2.1,1.1-2.8c0-0.7-0.1-1.3-0.1-1.7c0-0.4,0-0.8,0-1.3
		c0.2-2.1,1.3-5.5,3.2-10.1c0.1-0.4,0.5-0.8,1.2-1c0.7-0.2,1.4-0.3,2.1-0.1c0.7,0.2,1.3,0.3,1.7,0.2c0.4,0,0.8-0.2,1.1-0.5
		c0.3-0.3,0.7-0.6,1-0.9c0.4-0.3,0.8-0.5,1.3-0.7c0.5-0.2,1.1-0.3,1.7-0.3c0.6,0,1.3,0.2,2,0.5c1.2,0.6,2,1.2,2.3,1.7
		c0.4,0.5,0.6,0.9,0.8,1.3c0.1,0.3,0.3,0.8,0.6,1.3c0.3,0.6,0.4,1.1,0.4,1.5c0,0.4,0.1,1,0.2,1.5c0.2,0.6,0.2,1.3,0,2.1
		c-0.2,0.8-0.2,1.6,0,2.4c0.2,0.8,0.3,1.3,0.3,1.6c0,0.3,0,0.5,0.1,0.8c0,0.7,0.2,1.3,0.4,1.8c0.3,0.6,0.3,1.2,0.2,2.1
		c-0.1,0.8-0.1,1.5-0.1,2s0.3,1.1,0.7,1.6c0.7,1.1,1,2.3,0.8,3.6c0,0.4,0,0.7,0,1.2s0.1,0.8,0.1,1.1c0,0.3,0,0.8-0.1,1.3
		c-0.1,0.8-0.1,1.7,0.1,2.7c0.3,2,0.4,3.3,0.4,4c0,0.7,0,1.2,0.1,1.7c0,0.5,0.1,0.9,0.1,1.5c0.1,1.4,0.1,2.7,0,4.1
		C174.1,174.9,173.6,175.7,172.8,175.9z M163.1,151.9c0.1-0.8,0.1-1.7-0.1-2.8c-0.1-1.1-0.2-1.9-0.2-2.5s0-1-0.1-1.4
		c-0.1-0.6-0.5-0.7-1.1-0.2c-0.7-0.6-1.2-0.7-1.7-0.1c-0.3,0.4-0.4,1.2-0.4,2.1c-0.1,0.7-0.2,1.3-0.5,1.8c-0.2,0.6-0.4,1.2-0.5,1.8
		c-0.1,0.8-0.3,1.8-0.7,2.9c-0.3,1.2-0.3,2,0.1,2.6c0.4,0.6,0.9,0.8,1.5,0.6c0.6-0.2,1-0.2,1.3-0.3c0.3,0,0.5,0,0.8-0.1
		c0.5,0,0.9-0.2,1.2-0.6c0.3-0.3,0.4-0.6,0.4-0.9c0-0.3,0-0.5,0-0.8C163.1,153.4,163,152.7,163.1,151.9z"/>
	<path d="M189.9,166.3c0.3,0.7,0.7,1,1.3,1c0.5,0,0.9,0.1,1.1,0.3c0.3,0.4,0.3,1.3,0,2.5c-0.2,0.7-0.3,1.3-0.3,1.7
		c0,0.4-0.1,0.7-0.1,1c-0.1,0.5-0.4,1-0.9,1.5c-0.6,0.4-1.2,0.7-1.8,0.9c-0.7,0.2-1.2,0.3-1.6,0.4c-0.4,0.1-0.9,0.3-1.4,0.5
		c-0.8,0.4-1.4,0.5-1.9,0.5c-0.5,0-0.9-0.1-1.2-0.1c-0.3,0-0.6,0-1,0.1c-0.4,0.1-0.6,0.2-0.9,0.1c-0.2,0-0.4-0.1-0.6-0.1
		c-0.6-0.2-1.2-0.4-1.8-0.4c-0.8,0-1.3-1.2-1.5-3.6c-0.1-1-0.1-1.9-0.1-2.7c0.1-0.9,0.2-1.4,0.4-1.7c0.2-0.3,0.5-0.4,0.8-0.5
		c0.3-0.1,0.6-0.2,0.8-0.2s0.5-0.1,0.7-0.1c0.3-0.1,0.4-0.5,0.4-1.3c0-0.7,0.1-1.4,0.1-2.1c0-1.7,0.2-3,0.4-3.7
		c0.4-1.1,0.4-2-0.2-2.7c-0.6-0.9-0.8-2.6-0.6-5.1c0.1-1.5,0.1-2.7-0.1-3.7c-0.2-1.9-0.2-3.2-0.2-3.9c0-0.6,0.1-1,0.1-1.3
		c0-0.3,0-0.6-0.1-0.7c-0.1-0.3-0.5-0.5-1.1-0.5c-0.6,0-1.2-0.3-1.8-0.8c-0.6-0.5-0.8-1.3-0.7-2.4c0.1-1.1,0.1-2.1,0-3
		c-0.1-0.9-0.1-1.6,0.2-2.1c0.3-0.5,0.4-1,0.4-1.3c0-0.4,0.1-0.7,0.2-1c0.3-0.6,0.8-1,1.7-1.1c0.9-0.1,1.8-0.1,2.5,0
		c0.8,0.1,1.5,0.2,2.2,0.4c1.8,0.4,2.9,0.6,3.5,0.6c0.4,0,0.9,0,1.4-0.1c0.5-0.1,1-0.2,1.6-0.3c1.2-0.2,2.1-0.1,2.7,0.2
		c0.6,0.3,1,0.7,1.1,1.1c0.1,0.4,0.2,0.9,0.2,1.4c0,0.5,0,1-0.1,1.6c-0.1,0.6,0,1.2,0.1,1.8c0.4,1.4,0.4,2.6,0.1,3.5
		c-0.3,0.9-0.7,1.4-1,1.6c-0.3,0.2-0.6,0.3-0.9,0.3c-0.3,0-0.6,0.1-0.8,0.1c-0.3,0-0.5,0.2-0.7,0.4c-0.3,0.5-0.5,2.5-0.5,6l0.1,9.9
		C190.4,161.7,190.3,164.1,189.9,166.3z"/>
	<path d="M207.8,164.8l0.2,2.9c0.1,1.5-0.3,2.6-1.3,3c-0.3,1.6-0.4,3-0.4,4.2c-0.3,0.6-0.8,0.9-1.5,1c-1.3,0.2-2.1-0.2-2.5-1
		c-0.6-1-1-1.5-1.3-1.6c-0.1,0-0.2-0.1-0.4-0.1c-0.2,0-0.4-0.1-0.7-0.2c-0.3-0.1-0.3-0.4-0.3-0.9c0.1-0.5,0.1-0.9,0-1.3
		c-0.1-0.3-0.2-0.7-0.3-1c-0.3-1-0.5-2-0.5-3c0-0.7,0-1.3,0-1.8c0-0.6,0-1.1,0-1.7c-0.1-1.8-0.3-3.3-0.7-4.6
		c-0.4-1.3-0.7-2.1-0.8-2.5c-0.3-0.9-0.4-1.7-0.4-2.5c0-0.5,0.1-0.8,0.2-1c0.1-0.2,0.3-0.4,0.4-0.7c0.3-0.6,0.5-1.3,0.4-2.1
		c-0.1-0.8-0.1-1.6-0.2-2.4c-0.1-0.8-0.1-1.7-0.2-2.7s-0.1-2.1-0.2-3.2c-0.1-1.2-0.1-2.3-0.1-3.3c0-3.5,0.5-5.5,1.4-5.9
		c0.2-0.1,0.4-0.2,0.6-0.3c0.2-0.1,0.5-0.2,0.9-0.4c0.3-0.2,0.6-0.4,0.9-0.6c0.3-0.2,0.6-0.4,0.9-0.5c0.5-0.2,1.2-0.2,2,0.1
		c0.8,0.3,1.3,0.5,1.7,0.6c0.3,0.1,0.7,0.2,1,0.2c0.3,0.1,0.7,0.1,1.2,0.1c0.4,0,1.1,0,1.9-0.1c0.8,0,1.7,0,2.7,0
		c1,0,1.9,0.2,2.8,0.4c2.9,0.6,5.1,2,6.7,4.5c0.7,1.1,1,2,1.1,2.9c0,0.8,0.1,1.6,0.2,2.4s0.2,1.6,0.5,2.6c0.3,1,0.3,1.9,0.3,2.8
		c-0.1,0.9-0.2,1.5-0.3,1.8c-0.1,0.3-0.2,0.6-0.3,0.9c-0.2,0.6-0.3,1.2-0.3,1.8c0.1,1,0,1.8-0.3,2.4c-0.3,0.6-0.5,1.2-0.8,1.8
		c-0.7,1.5-1.5,2.3-2.3,2.5c-0.5,0.1-0.8,0.2-1.1,0.2c-0.3,0.1-0.5,0.3-0.5,0.5c-0.1,0.2,0,0.4,0.4,0.7c0.3,0.3,0.7,0.6,1,1.2
		c0.4,0.5,0.7,0.9,0.9,1c0.3,0.2,0.5,0.3,0.7,0.3c0.6,0.1,1,0.3,1.2,0.4c0.4,0.4,0.7,0.8,0.9,1.1c0.2,0.3,0.2,0.7,0.2,1.3
		c-0.1,0.6-0.1,1.1,0,1.7c0.1,0.6,0.2,1.2,0.3,1.9c0.1,0.7,0.1,1.2,0,1.6c-0.1,0.4-0.1,0.8-0.1,1l0.3,1.5c0,1-0.3,1.7-0.9,2.3
		c-0.6,0.6-1.1,0.9-1.4,1c-0.3,0.1-0.7,0.1-1-0.1c-0.3-0.1-0.6-0.3-0.8-0.4c-0.2-0.2-0.4-0.3-0.5-0.4s-0.3-0.1-0.5-0.1
		c-0.2,0-0.4-0.1-0.6-0.1c-0.8-0.2-1.4-1.6-2-4.2c-0.3-1.3-0.8-2.1-1.5-2.4c-1.1-0.5-1.7-1.2-1.8-2.1c0-0.4-0.1-1-0.1-1.8
		c-0.2-1.5-0.7-2.4-1.7-2.8c-0.5-0.2-0.9-0.2-1.3-0.2s-0.8,0.2-1.1,0.6C208,162.6,207.8,163.5,207.8,164.8z M210.9,153.5
		c0.5-0.5,1.1-0.9,1.6-1.3c0.5-0.4,1-0.9,1.3-1.5c0.4-0.6,0.6-1.2,0.9-1.9c0.3-1.2,0.5-2.3,0.3-3.3c-0.1-1-0.2-1.7-0.4-2
		c-0.1-0.3-0.6-0.5-1.3-0.5c-0.7,0-1.4-0.2-2.1-0.5c-0.7-0.3-1.1-0.7-1.2-1.1c-0.1-1-0.4-1.3-1-1c-0.3,0.2-0.5,0.3-0.6,0.4
		c-0.1,0.1-0.2,0.5-0.3,1.2c-0.1,1.4-0.1,2.5,0,3.3c0.1,0.8,0.2,1.3,0.3,1.6c0,0.3,0.1,0.5,0.1,0.8c0,0.3,0,0.6,0.1,1
		c0,0.4,0.1,1,0.1,1.8c0.1,0.8,0.1,1.5,0,2.1c0,0.6,0,1.1,0.2,1.7C209.8,154.3,210.4,154,210.9,153.5z"/>
	<path d="M242.6,166.6c0.2,1.8,0.3,3,0.3,3.8c0,0.7,0,1.3-0.1,1.8c-0.1,0.5-0.2,0.9-0.3,1.3c-0.3,0.9-0.7,1.4-1.3,1.5
		c-0.4,0-0.8,0.2-1.1,0.5s-0.6,0.6-0.9,0.7c-0.2,0.2-0.5,0.2-0.9,0.2s-0.8-0.1-1.3-0.2s-0.9-0.4-1.3-1c-0.8-1.2-1.1-3.4-0.8-6.8
		c-0.6-0.4-1-1-1.2-1.7c-0.2-0.8-0.2-1.9,0.1-3.3c0.3-1.5,0.4-2.5,0.5-3.2c0.1-0.7,0.1-1.2,0-1.7c-0.1-0.5-0.2-0.8-0.3-1.1
		c-0.2-0.3-0.4-0.7-0.7-1.3c-0.3-0.6-0.5-1.1-0.6-1.7s-0.3-0.9-0.5-1.2c-0.3-0.3-0.4-0.6-0.5-1c-0.1-0.4-0.2-0.8-0.4-1.2
		c-0.2-0.4-0.3-1-0.4-1.7c-0.1-0.8-0.3-1.4-0.6-1.9c-0.3-0.5-0.6-0.9-1-1.3c-0.3-0.3-0.6-0.7-0.9-1c-0.8-0.9-1.4-1.6-1.8-2.2
		c-0.3-0.6-0.5-1.1-0.5-1.6c0-0.4,0-0.9,0-1.3c0.1-1,0.1-1.7-0.1-2.1l-0.7-1.3c-0.7-1.3-1.1-2.4-1.1-3.2c0-0.8,0.2-1.4,0.7-1.8
		c0.4-0.4,0.9-0.5,1.4-0.4c0.5,0.2,1.2,0.3,2.1,0.5s1.6,0.2,2.1,0.1c0.5-0.1,0.9-0.2,1.4-0.4c1.1-0.3,1.9-0.4,2.5-0.1
		c0.6,0.2,1.1,0.6,1.3,1.1c0.2,0.5,0.4,1,0.4,1.6c0,0.6,0.1,1.2,0.1,1.8s0.2,1.1,0.4,1.5c0.3,0.4,0.5,0.8,0.7,1.1
		c0.2,0.3,0.3,0.6,0.4,1c0.1,0.3,0.2,0.7,0.2,1c0,0.4,0.1,0.8,0.2,1.3c0.1,0.5,0.2,0.9,0.3,1.1c0.2,0.2,0.4,0.3,0.6,0.3
		c0.5-0.1,0.8-0.6,1-1.5c0.2-0.9,0.4-1.6,0.6-2.3c0.2-0.6,0.4-1.2,0.6-1.6c0.4-1,0.5-1.6,0.5-2c-0.1-0.4-0.1-0.8-0.1-1.2
		c0-0.4,0.1-0.8,0.2-1.2c0.4-0.9,1.3-1.2,2.7-1.1c1.4,0.2,2.5,0.3,3.3,0.3c0.8,0,1.5-0.1,2-0.5c0.5-0.4,0.9-0.5,1.4-0.5
		c0.5,0,0.9,0.2,1.2,0.5c0.8,0.8,0.8,1.8-0.2,3.2c-0.9,1.4-1.5,2.5-1.8,3.3c-0.3,0.8-0.4,1.5-0.2,2.1c0.1,0.6,0.2,1,0.2,1.3
		c0,0.3-0.2,0.6-0.3,0.9c-0.2,0.3-0.4,0.6-0.6,1c-1.8,3-3.5,6.8-4.9,11.3c-0.7,2.2-1.2,5-1.5,8.2C242.9,165.1,242.7,166,242.6,166.6
		z"/>
	<path d="M130.2,211.2c-1.2,0-1.7-0.5-1.7-1.5c0.1-0.8,0.1-1.5-0.1-2c-0.2-0.9-0.3-1.5-0.1-1.9c0.3-1.2,1.7-1.5,4.1-0.8
		c0.4,0.1,0.8,0.2,1,0.2s0.5,0,0.8-0.1c0.8-0.1,1.4-0.1,2.1,0c0.6,0.1,1.2,0.1,1.6,0.1c0.5,0,0.9-0.1,1.3-0.2
		c0.4-0.1,0.8-0.2,1.1-0.2c0.3-0.1,0.7-0.1,1-0.1c0.4,0,0.7,0.3,0.9,1c0.2,0.7,0.3,1.4,0.2,2.2c-0.1,2-0.6,3.2-1.5,3.5
		c-0.6,0.2-1.2,0.6-1.8,1.1c-0.6,0.5-0.8,1.3-0.6,2.3c0.1,1,0.2,1.8,0.3,2.4c0,0.6,0,1.1,0,1.5c0,0.4,0,0.8-0.1,1.1
		c0,0.3,0,0.7,0.1,1.1c0.1,0.5,0,1.1-0.1,1.8c-0.1,0.8-0.3,1.4-0.6,2c-0.7,1.4-1.6,2-2.7,1.6c-0.8-0.2-1.6-0.9-2.3-1.9
		c-0.3-0.4-0.5-0.7-0.7-0.9c-0.2-0.3-0.5-0.3-0.9-0.2c-0.4,0.1-0.7,0.3-1,0.6c-0.3,0.3-0.6,0.6-0.9,0.9c-1.8,2.1-4,2.4-6.8,0.9
		c-1.4-0.7-2.4-1.6-2.9-2.7c-0.2-0.5-0.4-1-0.7-1.6c-0.2-0.6-0.5-1.2-0.8-1.7c-0.7-1.3-1.3-2.2-2-2.6c-0.6-0.4-0.9-2.6-1-6.4
		c0-0.8,0-1.6,0.1-2.2c0.1-0.6,0.1-1.4,0.1-2.4v-2.7c0-0.9,0-1.7-0.1-2.5c0-1.3,0.1-2.4,0.3-3.3c-1.4-0.8-1.9-2.4-1.6-4.8
		c0.2-1.5,0.5-2.6,0.9-3.3c0.4-0.7,0.7-1.4,1-2.1c0.2-0.7,0.5-1.4,0.7-2.2c0.3-0.8,0.6-1.3,1.1-1.5c0.5-0.2,0.8-0.4,0.9-0.6
		c0.1-0.2,0.3-0.3,0.4-0.5c0.8-1.1,2.5-1.9,5.2-2.3c1.2-0.2,2.3-0.1,3.5,0.3c1.1,0.4,2.1,0.6,2.9,0.7c0.8,0.1,1.5,0.1,2.2,0.2
		c2.9,0.2,4.8,0.7,5.7,1.7c0.6,0.7,1,1.4,1.2,2.1c0.2,0.7,0.4,1.3,0.7,1.7c0.3,0.4,0.4,0.9,0.3,1.3c-0.1,0.5-0.1,0.8,0,1.1
		s0,0.6-0.1,0.9c-0.1,0.3-0.3,0.6-0.4,1c-0.3,0.8-0.2,1.4,0.1,1.8s0.6,0.7,0.9,1c0.3,0.3,0.4,0.6,0.6,0.9c0.4,0.8,0.4,1.5,0.1,2
		c-0.3,0.6-0.6,1.1-1,1.6c-0.4,0.5-0.8,0.8-1.4,0.8c-1.5,0.1-2.5,0.3-3,0.7c-0.5,0.3-0.9,0.6-1.3,0.7c-0.8,0.4-1.6,0.3-2.3-0.1
		c-1.2-0.5-1.7-1.5-1.5-2.9c0.1-1.7-0.6-2.6-2-2.7c-0.6-0.1-1.3,0.1-2,0.5c-0.7,0.4-1.2,1-1.6,1.7c-0.9,1.9-1,3.6-0.3,5.2
		c0.2,0.4,0.3,0.9,0.3,1.5v1.5c0,0.9-0.1,1.6-0.3,2c-0.2,0.4-0.4,0.9-0.4,1.5c0,0.6-0.1,1.2,0,2c0,0.8,0.1,1.6,0.2,2.4
		c0.1,0.9,0.2,1.6,0.4,2.4c0.5,1.7,1.1,2.5,2,2.4c0.7,0,1.2-0.3,1.6-0.9c0.1-0.2,0.3-0.5,0.4-0.7c0.2-0.2,0.4-0.4,0.8-0.6
		c0.3-0.1,0.6-0.4,0.7-0.7c0.1-0.3,0.2-0.7,0.2-1.1c0-0.5,0-1.4-0.1-2.9C130.8,211.2,130.5,211.2,130.2,211.2z"/>
	<path d="M150.9,181.2c3-0.8,4.7-0.3,5.2,1.5c0.2,0.7,0.2,1.2,0.1,1.7c-0.1,0.4-0.1,0.9-0.1,1.4v1.8c0,1.6-0.1,2.8-0.2,3.4
		s-0.1,1.4-0.1,2.3c0.1,0.9,0.1,1.7-0.1,2.5c-0.1,0.8-0.1,1.3,0,1.6c0.2,0.3,0.4,0.5,0.6,0.7c0.3,0.2,0.8,0.4,1.3,0.4
		c0.9,0,1.5-0.4,1.8-1.2c0.1-0.4,0.1-1,0-1.8c-0.1-0.9-0.1-1.7,0-2.5c0.1-0.8,0.1-1.6,0-2.3c-0.1-0.7-0.2-1.4-0.3-2.2
		c-0.1-0.8-0.1-1.6-0.1-2.4c0-1.9,0.2-3.2,0.7-3.7c0.5-0.5,1.2-0.9,2.2-1.2c1-0.3,2.1-0.4,3.2-0.4c2.7,0,4.4,0.6,5.3,1.7
		c0.4,0.5,0.6,1,0.6,1.4s0,0.8-0.1,1.1c0,0.3,0,0.6,0,0.9c0.1,1,0.1,1.9-0.2,2.9c-0.3,1-0.4,1.9-0.5,2.8c-0.1,0.9-0.2,1.9-0.2,3
		c-0.1,1.8-0.2,3.7-0.2,5.7c0,3.6-0.1,5.9-0.4,6.9c-0.7,2-0.8,3.6-0.4,4.6c0.1,0.3,0.2,0.6,0.2,1c0,0.4,0,0.8-0.1,1.2
		c0,0.4,0,0.8,0,1.2c0,0.4,0.1,0.9,0.3,1.4c0.4,1.1,0,2.2-1.1,3.4c-0.4,0.4-0.6,1.1-0.5,2.1c0,1,0.1,1.7,0.1,2.1
		c0,0.5-0.1,0.8-0.3,1c-0.2,0.2-0.7,0.4-1.5,0.7c-0.7,0.2-1.6,0.4-2.4,0.5c-2.2,0.2-3.7-0.2-4.3-1.3c-0.5-0.9-0.6-2.6-0.3-5.2
		c0.3-2.6,0.5-4.6,0.6-5.9c0.1-1.3,0.1-2.2-0.1-2.7c-0.2-0.5-0.4-0.8-0.8-1s-0.8-0.2-1.2-0.1c-0.9,0.1-1.6,0.3-1.9,0.8
		c0,0.9,0.1,2.2,0.1,3.8s0,3.2-0.1,4.9c-0.1,4-0.3,6.1-0.5,6.4c-0.2,0.3-0.5,0.4-1,0.6c-0.5,0.1-1.1,0.2-1.7,0.2
		c-1.4,0.1-2.2-0.1-2.7-0.6c-0.4-0.5-0.8-0.9-1-1.2c-0.3-0.3-0.6-0.5-1-0.6c-0.4-0.1-0.7-0.4-0.8-0.7c-0.1-0.3-0.2-0.7-0.3-1.2
		c-0.2-1.1-0.2-1.8,0-2.1c0.2-0.3,0.3-0.7,0.3-1.2c0-0.5-0.1-0.8-0.2-1c-0.2-0.1-0.3-0.7-0.5-1.7c-0.1-1-0.3-2.1-0.3-3.3
		c-0.1-1.2-0.1-2.4-0.1-3.5s0.1-2,0.4-2.5c0.6-1.3,0.6-2.5,0.2-3.7c-0.5-1.2-0.8-2.1-0.9-2.8c-0.1-0.7-0.1-1.3-0.2-1.9
		c0-1.5-0.1-2.4-0.3-2.8c-0.1-0.4-0.2-0.9-0.3-1.6c0-0.7-0.1-1.4-0.1-2.2c0-0.8,0-1.6,0-2.4c0-0.8,0-1.8-0.1-2.8
		c-0.1-1,0-2.1,0.1-3.1c0.1-1,0.5-1.8,1.1-2.4c0.7-0.6,1.5-0.9,2.4-1C149.3,180,150.1,180.4,150.9,181.2z"/>
	<path d="M175.2,192.2c-0.1-0.5-0.1-1-0.1-1.5c0-0.5,0.1-1.1,0.3-1.8c0.2-0.7,0.6-1.3,1.3-1.9c0.7-0.6,1.3-1.2,1.8-1.7
		c0.5-0.6,1-1.2,1.3-1.8s0.8-1.1,1.4-1.4c1.9-1.2,4.6-1.7,8-1.4c1.4,0.1,2.9,0.6,4.4,1.4c0.8,0.4,1.4,1.1,2,2.2
		c0.5,1.1,0.9,1.8,1.1,2.2c0.2,0.4,0.5,0.7,0.8,0.9c0.3,0.2,0.6,0.4,0.9,0.7c0.3,0.3,0.6,0.8,0.9,1.5c0.3,0.7,0.6,1.5,0.9,2.4
		c0.7,2.1,1,3.9,0.9,5.3c-0.1,1.4-0.1,2.9-0.2,4.3c-0.1,2.6-0.4,4.5-0.8,5.7c-0.5,1.2-0.8,2.1-1,2.9c-0.2,0.8-0.4,1.5-0.4,2.1
		c0,0.6-0.1,1.3-0.1,1.8c-0.1,1.6-0.2,2.5-0.3,2.9c-0.1,0.3-0.4,0.6-0.7,1c-0.3,0.3-0.7,0.6-1.1,0.9c-0.4,0.3-0.8,0.6-1.2,0.9
		c-0.4,0.3-0.7,0.5-0.8,0.7c-0.2,0.2-0.4,0.4-0.6,0.7c-0.2,0.3-0.5,0.7-0.7,1c-0.2,0.4-0.4,0.7-0.6,1s-0.3,0.5-0.4,0.7
		c-0.1,0.1-0.2,0.4-0.4,0.7c-0.2,0.4-0.5,0.7-0.8,1.1c-1.7,1.9-3.2,2-4.7,0.2c-0.1-0.2-0.3-0.3-0.6-0.3c-0.3,0-0.6,0.1-1,0.3
		c-0.4,0.2-0.9,0.2-1.5,0c-0.6-0.2-1.1-0.5-1.5-1c-0.4-0.5-0.7-0.8-1-1.1c-0.3-0.3-0.6-0.5-0.9-0.7c-0.3-0.2-0.6-0.3-0.9-0.4
		c-0.8-0.4-1.2-0.7-1.3-1c0-0.3-0.1-0.5-0.1-0.7c0-0.2-0.1-0.5-0.2-0.9c-0.3-1.9-1.2-4.6-2.5-8.1c-1-2.6-1.3-5.3-0.8-8.2
		c0.3-2.1,0.7-3.8,1-5.2c0.5-2.1,0.6-3.6,0.5-4.4C175.3,193.4,175.2,192.7,175.2,192.2z M187.5,195.6c-0.8,0.1-1.3,0.3-1.6,0.8
		c-0.3,0.5-0.4,1-0.6,1.4c-0.1,0.5-0.3,0.8-0.5,1.1c-0.2,0.3-0.4,0.6-0.5,0.8c-0.7,1-0.8,2-0.3,3.1c0.8,1.5,1.2,2.6,1.3,3.1
		c0,0.5,0.1,1.2,0.1,2.1c0,0.9,0.1,1.9,0.3,2.9c0.4,2.5,1,3.8,1.7,3.8c0.4,0,0.8-0.5,1.2-1.4c0.1-0.2,0.1-0.5,0.2-1
		c0-0.5,0.1-1,0.2-1.7c0.5-2.3,0.6-3.8,0.5-4.7c-0.1-0.9-0.2-1.6-0.2-2.3c0-0.7,0-1.4,0-2.1V198c0-0.9-0.1-1.5-0.3-1.9
		C188.8,195.7,188.3,195.6,187.5,195.6z"/>
	<path d="M205.5,184.8c1-1.2,2.2-1.9,3.7-2.1c0.6-0.2,1.3-0.3,1.9-0.4c0.6-0.1,1.3-0.4,2-0.7c1.3-0.7,2.1-1,2.6-1
		c0.5,0,0.9,0,1.1,0.1c0.3,0.1,0.6,0.1,1,0.2c0.4,0,0.7,0.1,1.1,0.1c0.4,0,0.9,0,1.4,0.1c1.6,0.2,3.3,1.2,5.1,3
		c1.1,1.2,1.9,2.3,2.1,3.6c0.3,1.2,0.4,2.4,0.3,3.6c0,1.7,0.1,3,0.4,3.8c0.3,0.8,0.5,1.5,0.6,1.9c0.1,0.4,0,1-0.2,1.8
		c-0.2,0.8-0.5,1.3-0.9,1.6c-0.4,0.3-0.9,0.5-1.4,0.6c-0.5,0.1-1,0.1-1.5,0.1c-0.5,0-0.8-0.1-1.1-0.1c-0.3,0-0.5,0.1-0.6,0.2
		c-0.1,0.1-0.2,0.3-0.3,0.4c-0.3,0.3-0.9,0.3-1.7,0.1c-0.8-0.2-1.5-0.7-2.1-1.5c-0.6-0.8-0.6-1.8-0.2-3c0.1-0.4,0.3-0.8,0.4-1.1
		c0.1-0.3,0.1-0.6,0.1-0.9c-0.2-0.6-0.6-0.9-1.2-0.9c-0.6,0-1.2,0.1-1.7,0.5c-0.6,0.6-1,1.2-1.2,2.1c-0.2,0.8-0.3,1.4-0.2,1.8
		s0.1,0.7,0.1,1.1c0,0.4,0,0.8,0.1,1.3c0.2,1,0.4,1.7,0.8,2.1c0.4,0.4,0.7,0.6,0.9,0.6c0.3,0,0.5,0.1,0.7,0c0.2,0,0.5,0,0.7,0
		s0.6,0.1,1.1,0.3c0.5,0.2,0.9,0.4,1.4,0.6c0.5,0.2,0.9,0.5,1.3,1c0.4,0.4,0.7,0.7,1,0.8c0.3,0.1,0.5,0.2,0.7,0.3
		c0.2,0.1,0.4,0.2,0.6,0.3c0.2,0.1,0.3,0.3,0.5,0.6c0.5,1.4,0.7,3,0.4,4.8c-0.1,0.7-0.2,1.2-0.2,1.6c-0.1,0.4-0.1,0.7-0.2,1
		c0,0.3-0.1,0.6-0.1,0.8c0,0.2-0.1,0.5-0.1,1c0,1.6-0.3,2.9-0.9,3.8c-0.6,0.9-1.2,1.5-1.7,1.8c-0.6,0.3-1,0.6-1.1,0.7
		c-0.2,0.2-0.3,0.4-0.4,0.6c-0.1,0.2-0.3,0.5-0.5,0.8c-0.5,0.7-1.2,1.2-2.2,1.4c-1.1,0.3-2.3,0.5-3.5,0.4c-1.2,0-2.2-0.1-2.9-0.2
		c-0.7-0.1-1.3-0.4-1.9-0.9s-1-1-1.4-1.6c-0.4-0.6-0.6-0.9-0.9-1c-0.2-0.1-0.4-0.1-0.7-0.1h-0.8c-0.7,0-1.1-0.2-1.4-0.6
		c-0.2-0.4-0.3-0.7-0.3-1.1c0.1-0.3,0.1-0.8,0-1.5c0-0.6,0-1.2,0-1.8c0-0.6,0.3-1,0.7-1.4c1-0.8,1.9-1.2,2.7-1.2
		c0.8,0,1.3-0.2,1.5-0.4s0.5-0.5,0.6-0.7c0.1-0.2,0.4-0.3,0.6-0.4c0.3,0,0.6,0,0.9,0.1c0.7,0.2,1.1,0.6,1.1,1.2s0,1.1,0,1.6
		c0,0.5,0.1,0.9,0.2,1.3c0.3,1,0.8,1.5,1.7,1.4c0.9-0.1,1.4-0.9,1.5-2.5c0-0.4,0-0.9,0-1.3v-1.3c0-1.9-1-3.3-2.9-4.3
		c-0.8-0.4-1.5-0.8-2.2-1.1c-0.7-0.4-1.4-0.8-2-1.3c-1.4-1.2-2.3-2.6-2.7-4.1c-0.4-1.5-0.7-2.6-0.8-3c-0.2-0.5-0.3-0.8-0.5-0.9
		c-0.1-0.2-0.3-0.3-0.5-0.4c-0.2-0.1-0.4-0.3-0.7-0.7c-0.5-0.6-0.6-1.3-0.3-2.1c0.3-0.8,0.5-1.5,0.6-2c0.2-0.5,0.3-1.1,0.3-1.8
		c0-0.6,0-1.3-0.1-1.9c-0.1-0.6-0.1-1.2-0.1-1.9C203.9,187.3,204.5,186,205.5,184.8z"/>
	<path d="M255.1,186.2c0.2,1.8,0.3,3.3,0.1,4.5l-0.4,2.9c-0.1,0.7-0.1,1.5,0,2.6c0.1,1.1-0.1,1.8-0.3,2.3c-0.3,0.5-0.8,0.7-1.5,0.9
		c-0.7,0.1-1.2,0.1-1.7-0.1s-0.8-0.4-1.1-0.6c-0.8-0.4-1.5-0.5-2.1-0.2c-0.5,0.3-0.9,0.8-1.1,1.4c-0.2,0.6-0.3,1.4-0.4,2.2
		c-0.1,1.2-0.1,2.8,0,4.8c0,0.7,0.1,1.3,0,1.7s0,0.8,0,1.1c0,0.8,0.1,1.5,0.4,2.2s0.4,1.3,0.4,1.6s-0.1,0.6-0.2,0.9
		c-0.1,0.2-0.3,0.4-0.5,0.5c-0.2,0.1-0.4,0.3-0.6,0.4c-0.2,0.1-0.3,0.3-0.5,0.4c-0.2,0.1-0.4,0.3-0.6,0.4c0.2,1.9,0.3,3.5,0.1,4.6
		s-0.2,2.1-0.3,2.9c0,0.8-0.3,1.4-0.6,1.8c-0.5,0.6-1.5,1-3,1.2c-0.9,0-1.5-0.4-2-1.3c-0.4-0.9-0.6-2-0.5-3.2c0.1-1.3,0-2.3-0.1-2.9
		c-0.1-0.7-0.3-1.3-0.5-1.8c-0.2-0.5-0.4-0.9-0.5-1.3c-0.2-0.4-0.3-0.9-0.4-1.6c-0.1-0.7,0-1.4,0.3-2.2c-0.6-0.6-1-1.3-1.2-2
		c-0.2-0.7-0.2-1.7,0.1-2.8c0.3-1.2,0.5-2.2,0.6-3.2s0.1-1.8,0.1-2.6c-0.1-1.8-0.5-2.9-1.3-3.2c-0.6-0.2-1.2,0-1.9,0.4
		c-0.7,0.4-1.2,0.7-1.6,0.8s-0.8,0-1.1-0.2c-0.4-0.3-0.5-0.6-0.5-1c0-0.4,0.1-0.8,0.2-1.3c0.1-0.5,0.2-0.9,0.3-1.3
		c0.1-0.4,0.1-0.9-0.1-1.3c-0.2-0.4-0.4-0.7-0.6-0.8s-0.5-0.3-0.7-0.6c-0.5-0.6-0.7-1.8-0.4-3.4s0.4-2.9,0.6-4
		c0.1-1,0.2-1.8,0.3-2.3c0.1-0.5,0.2-0.9,0.4-1.3c0.2-0.4,0.5-0.8,1-1.1c1.1-0.7,2.4-1,4.1-0.8c7.8,1,12.2,1.3,13.3,1
		c0.4-0.1,0.8-0.2,1.1-0.4C252.9,180.2,254.6,181.8,255.1,186.2z"/>
</g>
</svg>
