<?xml version="1.0" encoding="utf-8"?>
<!-- Generator: Adobe Illustrator 27.7.0, SVG Export Plug-In . SVG Version: 6.00 Build 0)  -->
<svg version="1.1" id="Layer_1" xmlns="http://www.w3.org/2000/svg" xmlns:xlink="http://www.w3.org/1999/xlink" x="0px" y="0px"
	 viewBox="0 0 216 216" style="enable-background:new 0 0 216 216;" xml:space="preserve">
<style type="text/css">
	.st0{fill:#B69AC9;}
	.st1{fill:#FFFFFF;}
	.st2{fill:#E0DEF0;}
	.st3{fill:#DFD8B9;}
	.st4{fill:#E0D3E8;}
	.st5{fill:#BC9AC8;}
	.st6{fill:#9067AC;}
	.st7{fill:#7B4C9E;}
	.st8{fill:#642D91;}
	.st9{fill:#D1BADA;}
	.st10{fill-rule:evenodd;clip-rule:evenodd;fill:#642D91;}
	.st11{fill:#262262;}
	.st12{fill:#D7DF23;stroke:#642D91;stroke-width:3;stroke-miterlimit:10;}
	.st13{fill:#D7DF23;}
</style>
<rect class="st0" width="215.9" height="196.4"/>
<g>
	<circle class="st1" cx="102.3" cy="69" r="47.2"/>
	<g>
		<path class="st2" d="M100.8,114.6c-24-1-43.1-20.8-43.1-45s19.1-44,43.1-45c-16.6,8.2-28,25.2-28,45
			C72.9,89.3,84.3,106.4,100.8,114.6z"/>
		<path class="st2" d="M100.8,24.6L99.3,29l-2.9-1.9l-0.2-0.9L93,26.8l-1.8,0.9L89.8,29l1,0.7l0.2,3.3l1.5,1.6h-1.5l-1.2,2.1v2.5
			h-3.4H75.3l-1.5,1.9l-3.6,3.2l-1.8,11.3l0.3,7.1l5.7,1l2.5,3.2l8.4,1.4l5.2-0.7l-0.4,4.3l2.9,0.5l3,3.3l-3.1,4.1l0.4,1.7l-1.9,3.2
			l-4.7-2.2l-6.3,3.3l-3-1.5l-4.6,1.5l-2,5.6c0,0,1.5,4.7,1.7,4.7c0.2,0,2.8,2.5,2.8,2.5l5.7,0.4l4,1.1l6.6-1.7l3-0.5l3.6,3.1l0.4,3
			l-0.6,3.2l-2.8,0.4l3.8,1.2l1.5,3.1l2.5,0.9v1h1.6l-3.6,0.8l-6.6-2.2l-20.7-12.1L61.2,80.6l-1.6-16.3L67,45l16-14.7l10.5-4.2
			L100.8,24.6z"/>
		<polyline class="st2" points="94.5,97.9 97.1,93.9 95.8,89.5 99.1,87.9 101.5,86.5 104,87.5 108.9,87.9 111,88.8 111.9,92.2 
			108.2,94 105.1,97 104.4,100 103.8,104 98.3,104.6 		"/>
	</g>
	<path class="st1" d="M91,44.5c4.6,5,4.2,12.8-0.9,17.4c-5,4.6-12.8,4.2-17.4-0.9c-4.6-5-4.2-12.8,0.9-17.4
		C78.7,39.1,86.5,39.5,91,44.5z"/>
	<path class="st1" d="M95.7,27.6c0.8,0.8,0.7,2.2-0.1,2.9c-0.8,0.8-2.2,0.7-2.9-0.1c-0.8-0.8-0.7-2.2,0.1-2.9
		C93.7,26.7,95,26.8,95.7,27.6z"/>
	<path class="st1" d="M83.4,87.7c2.3,2.5,2.1,6.4-0.4,8.6c-2.5,2.3-6.4,2.1-8.6-0.4c-2.3-2.5-2.1-6.4,0.4-8.6
		C77.3,85,81.1,85.2,83.4,87.7z"/>
	<path class="st3" d="M68.5,70.1c1.2,1.4,1.1,3.5-0.2,4.7c-1.4,1.2-3.5,1.1-4.7-0.2c-1.2-1.4-1.1-3.5,0.2-4.7
		C65.2,68.7,67.3,68.8,68.5,70.1z"/>
	<g>
		<g>
			<path class="st4" d="M114.4,97.3c1.5,1.6,1.4,4.2-0.3,5.6c-1.6,1.5-4.2,1.4-5.6-0.3c-1.5-1.6-1.4-4.2,0.3-5.6
				C110.4,95.6,112.9,95.7,114.4,97.3z"/>
			<path class="st4" d="M99.1,78c1,1.1,0.9,2.7-0.2,3.7c-1.1,1-2.7,0.9-3.7-0.2c-1-1.1-0.9-2.7,0.2-3.7C96.5,76.9,98.1,77,99.1,78z"
				/>
			<path class="st4" d="M106.7,42.6c1,1.1,0.9,2.7-0.2,3.7c-1.1,1-2.7,0.9-3.7-0.2c-1-1.1-0.9-2.7,0.2-3.7
				C104.1,41.4,105.8,41.5,106.7,42.6z"/>
			<path class="st4" d="M132.4,88.4c0.6,0.7,0.5,1.7-0.1,2.3c-0.7,0.6-1.7,0.5-2.3-0.1c-0.6-0.7-0.5-1.7,0.1-2.3
				C130.8,87.7,131.8,87.7,132.4,88.4z"/>
			<path class="st4" d="M128.9,42c1,1.1,0.9,2.8-0.2,3.8c-1.1,1-2.8,0.9-3.8-0.2c-1-1.1-0.9-2.8,0.2-3.8
				C126.2,40.8,127.9,40.9,128.9,42z"/>
			<path class="st4" d="M108.9,59.9c1.2,1.3,1.1,3.4-0.2,4.6c-1.3,1.2-3.4,1.1-4.6-0.2c-1.2-1.3-1.1-3.4,0.2-4.6
				C105.6,58.4,107.7,58.6,108.9,59.9z"/>
			<path class="st4" d="M131.9,60.6c2.6,2.9,2.4,7.4-0.5,10c-2.9,2.6-7.4,2.4-10-0.5c-2.6-2.9-2.4-7.4,0.5-10
				C124.8,57.5,129.2,57.7,131.9,60.6z"/>
			<path class="st4" d="M82.7,88.2c1.9,2.2,1.8,5.5-0.4,7.4c-2.2,1.9-5.5,1.8-7.4-0.4c-1.9-2.2-1.8-5.5,0.4-7.4
				C77.5,85.9,80.8,86.1,82.7,88.2z"/>
			<path class="st4" d="M90.1,45.4c4.1,4.5,3.7,11.5-0.8,15.5c-4.5,4.1-11.5,3.7-15.5-0.8c-4.1-4.5-3.7-11.5,0.8-15.5
				C79,40.5,86,40.9,90.1,45.4z"/>
			<path class="st4" d="M95.4,27.9c0.6,0.7,0.5,1.7-0.1,2.3c-0.7,0.6-1.7,0.5-2.3-0.1c-0.6-0.7-0.5-1.7,0.1-2.3
				C93.8,27.2,94.8,27.2,95.4,27.9z"/>
		</g>
		<path class="st4" d="M68.6,70.3c1.2,1.3,1.1,3.3-0.2,4.5c-1.3,1.2-3.3,1.1-4.5-0.2c-1.2-1.3-1.1-3.3,0.2-4.5
			C65.4,68.9,67.4,69,68.6,70.3z"/>
	</g>
	<g>
		<path class="st5" d="M89.3,60.9c-3.3,3-7.9,3.6-11.7,2c3.6,0.9,7.5,0.1,10.5-2.6c4.6-4.2,5-11.4,0.8-16c-0.1-0.2-0.3-0.3-0.4-0.4
			c0.6,0.4,1.1,0.9,1.6,1.5C94.2,49.9,93.8,56.8,89.3,60.9z"/>
		<path class="st5" d="M95.3,30.2c-0.3,0.3-0.8,0.4-1.2,0.4c0.3,0,0.7-0.2,1-0.4c0.7-0.6,0.7-1.6,0.1-2.3c-0.3-0.3-0.7-0.5-1.1-0.5
			c0.5,0,1,0.1,1.3,0.5C96,28.5,95.9,29.6,95.3,30.2z"/>
		<path class="st5" d="M114.5,103c-0.9,0.8-2,1.1-3.1,1c0.8-0.1,1.6-0.4,2.3-1c1.6-1.5,1.8-4,0.3-5.6c-0.7-0.8-1.6-1.2-2.6-1.3
			c1.2-0.1,2.5,0.3,3.4,1.3C116.2,99,116.1,101.5,114.5,103z"/>
		<path class="st5" d="M98.9,81.7c-0.6,0.5-1.4,0.7-2.1,0.7c0.5-0.1,1-0.3,1.4-0.7c1.1-1,1.2-2.6,0.2-3.7c-0.4-0.5-1-0.8-1.6-0.8
			c0.8-0.1,1.7,0.2,2.3,0.8C100.1,79.1,100,80.8,98.9,81.7z"/>
		<path class="st5" d="M132.3,90.7c-0.3,0.3-0.8,0.4-1.2,0.4c0.3,0,0.7-0.2,0.9-0.4c0.7-0.6,0.7-1.6,0.1-2.3
			c-0.3-0.3-0.7-0.5-1.1-0.5c0.5,0,1,0.1,1.3,0.5C133,89.1,133,90.1,132.3,90.7z"/>
		<path class="st5" d="M129.1,45.8c-0.6,0.6-1.4,0.8-2.2,0.7c0.5-0.1,1-0.3,1.4-0.7c1.1-1,1.2-2.7,0.2-3.8c-0.4-0.5-1-0.8-1.6-0.9
			c0.9-0.1,1.8,0.2,2.4,0.9C130.3,43.1,130.2,44.8,129.1,45.8z"/>
		<path class="st5" d="M108.7,64.5c-0.7,0.7-1.7,0.9-2.6,0.8c0.6-0.1,1.3-0.4,1.8-0.8c1.3-1.2,1.5-3.3,0.2-4.6c-0.5-0.6-1.3-1-2-1.1
			c1-0.1,2.1,0.2,2.9,1.1C110.1,61.2,110,63.3,108.7,64.5z"/>
		<path class="st5" d="M131.3,70.6c-1.5,1.3-3.3,1.9-5.2,1.8c1.5-0.1,3.1-0.7,4.3-1.8c2.9-2.6,3.1-7.1,0.5-10
			c-1.3-1.4-3-2.2-4.8-2.3c2.1-0.1,4.2,0.7,5.7,2.3C134.5,63.5,134.2,67.9,131.3,70.6z"/>
		<path class="st5" d="M83.1,95.7c-1.2,1.1-2.7,1.5-4.1,1.3c1-0.1,2.1-0.6,2.9-1.3c2.2-1.9,2.3-5.3,0.4-7.4c-0.9-1-2.1-1.6-3.3-1.7
			c1.6-0.2,3.3,0.4,4.5,1.7C85.4,90.4,85.3,93.7,83.1,95.7z"/>
		<path class="st5" d="M106.6,46.3c-0.6,0.5-1.3,0.7-2,0.7c0.5-0.1,1.1-0.3,1.5-0.7c1.1-1,1.2-2.6,0.2-3.7c-0.5-0.5-1-0.8-1.7-0.9
			c0.8-0.1,1.6,0.2,2.2,0.9C107.7,43.7,107.6,45.3,106.6,46.3z"/>
		<path class="st5" d="M68.6,74.7c-0.7,0.6-1.6,0.9-2.4,0.8c0.6-0.1,1.3-0.3,1.8-0.8c1.3-1.2,1.4-3.2,0.2-4.5c-0.5-0.6-1.3-1-2-1
			c1-0.1,2,0.3,2.7,1C70,71.6,69.9,73.6,68.6,74.7z"/>
	</g>
</g>
<path class="st6" d="M215.9,196.4V59.8c-1.1,0.4-2,0.8-2.8,1.3c-6.3,3.9-15.7,1.2-44.4-4.3C139.9,51.3,144.9,81,144.9,81
	s1.9,5-6-0.1s-9.6,7.4-10.7,14.2c-1.1,6.8-3.8,7.2-7.3,7.3c-10.9-1.4-15.2-1.4-23.2,3.2c-8,4.6-19.2,3.2-23.9,3.6
	c-4.7,0.3-9.8,2.4-15.7,3s-6.7-4-11-9.5s-3.7-9.5-7-8.8c-3.3,0.7-5.8,3.5-8.8-2.7c-3-6.2-5.2-27.1-7.1-31.6c-1.9-4.5-3-1.1-3-1.1
	S19.3,41.6,9,37.9c-2.8-1-6-0.3-9,1.2v157.2H215.9z"/>
<path class="st7" d="M215.9,196.4v-95.8c-2.7,2.1-5.7,4.6-9.1,7.5c-13.8,11.7-18.2,7.2-19.7,3.9c-3.6-11.5-2.4-7.6-15.3-1
	c-12.9,6.7-3.4,4.5-18.7-4.2s-18.7,5-20.7,11.1c-2,6.1-3.5,6.1-7.2,4.9c-7.9-14-17.2-6.4-33.7,1.1c-16.5,7.6-20.1,5.6-30,2.4
	c-10.1-9.5-12.6-4.6-18.2,0.2c-5.6,4.9-7.5-0.1-13.7-6.4c-6.3-6.3-10.8-6.8-16.4-9.5c-2.5-1.2-8-6-13.3-11v96.8H215.9z"/>
<path class="st8" d="M215.9,196.4v-31c-10.1-1.8-27.2-3.9-40-0.3c-17.8,5-23.8,3.7-34.6-0.5c-22.4-8.8-70.1-4.5-83.2-2.6
	c-10.7,1.5-45.6,1.5-58.1,1.5v33H215.9z"/>
<path class="st9" d="M92.5,90.6l-7.6,0c-0.1,0-0.2,0-0.2,0l-3.7,0c-2.3,0-4.2-1.9-4.2-4.2l0,0c0-2.3,1.9-4.2,4.2-4.2l3.7,0
	c0.1,0,0.2,0,0.2,0h17.1c2.3,0,4.2-1.9,4.2-4.2v0c0-2.3-1.9-4.2-4.2-4.2H4.2C1.9,73.8,0,75.7,0,78v0c0,2.3,1.9,4.2,4.2,4.2h39.5
	c0.3,0,0.5,0,0.8,0.1l2.5,0c2.3,0,4.2,1.9,4.2,4.2l0,0c0,2.3-1.9,4.2-4.2,4.2l-21.7,0C23.4,91,22,92.7,22,94.7l0,0
	c0,2.3,1.9,4.2,4.2,4.2L92.5,99c2.3,0,4.2-1.9,4.2-4.2l0,0C96.7,92.5,94.9,90.6,92.5,90.6z"/>
<path class="st9" d="M200.1,20.6c-0.4-0.3-1-0.4-1.5-0.4l-32.8,0V20l-0.1,0c-2,0-3.5-1.6-3.5-3.5l0,0c0-2,1.6-3.5,3.5-3.5l0.1,0v0
	l14.5,0c2,0,3.5-1.6,3.5-3.5v0c0-2-1.6-3.5-3.5-3.5l-6.4,0c-0.1,0-0.1,0-0.2,0l-3.2,0c-2,0-3.5-1.6-3.5-3.5l0,0
	c0-0.9,0.3-1.6,0.8-2.2h-23.4c0.5,0.6,0.9,1.4,0.9,2.3l0,0c0,2-1.6,3.5-3.5,3.5l-29.1,0c-1.6,0.4-2.8,1.8-2.8,3.4l0,0
	c0,2,1.6,3.5,3.5,3.5l33.5,0V13l2.1,0c2,0,3.5,1.6,3.5,3.5l0,0c0,2-1.6,3.5-3.5,3.5c-1.1,0-2.1,0.9-2.1,2.1v2.9
	c0,1.1,0.9,2.1,2.1,2.1h3.1l46.4,0c1.6,0,2.9-1.3,2.9-2.9l0-1.1C201,22.3,200.5,21.4,200.1,20.6z"/>
<path class="st9" d="M145.4,52.1L145.4,52.1c0-2,1.6-3.6,3.5-3.6h4.4c0.2,0,0.5,0,0.7-0.1l2.1,0c2,0,3.5-1.6,3.5-3.5l0,0
	c0-2-1.6-3.5-3.5-3.5l-29.1,0c-1.6-0.4-2.8-1.8-2.8-3.4l0,0c0-2,1.6-3.5,3.5-3.5l33.5,0v-0.1l2.1,0c2,0,3.5-1.6,3.5-3.5l0,0
	c0-2-1.6-3.5-3.5-3.5l0,0c-1.1,0-2.1-0.9-2.1-2.1v-2.9c0-1.1,0.9-2.1,2.1-2.1h3.1l46.4,0c1.6,0,2.9,1.3,2.9,2.9l0,1.1
	c-0.4,0.9-0.9,1.7-1.4,2.6c-0.4,0.3-1,0.4-1.5,0.4l-32.8,0v0.1l-0.1,0c-2,0-3.5,1.6-3.5,3.5l0,0c0,2,1.6,3.5,3.5,3.5l0.1,0v0l14.5,0
	c2,0,3.5,1.6,3.5,3.5v0c0,2-1.6,3.5-3.5,3.5l-6.4,0c-0.1,0-0.1,0-0.2,0l-3.2,0c-2,0-3.5,1.6-3.5,3.5l0,0c0,2,1.6,3.5,3.5,3.5l3.1,0
	c0.1,0,0.1,0,0.2,0h9.8c-2.5,2.5-5.2,4.9-7.9,7.1h-41.1C146.9,55.7,145.4,54.1,145.4,52.1z"/>
<path class="st9" d="M77.8,24.9L77.8,24.9c0-1.8-1.5-3.3-3.3-3.3H43.8c-0.2,0-0.4,0-0.6-0.1l-1.9,0c-1.8,0-3.3-1.5-3.3-3.3v0
	c0-1.8,1.5-3.3,3.3-3.3l16.9,0c1.5-0.3,2.5-1.6,2.5-3.2v0c0-1.8-1.5-3.3-3.3-3.3l-22.9,0c-5.9,2.7-11.5,6-16.6,9.8c0,0,0,0,0,0v0
	c0,1.8-1.5,3.3-3.3,3.3l-1,0c-2.5,2.1-4.9,4.2-7.3,6.5h68.2C76.4,28.1,77.8,26.7,77.8,24.9z"/>
<path class="st9" d="M57.4,21.6l-1,0c-1.8,0-3.3-1.5-3.3-3.3v0c0,0,0,0,0,0c-5.2-3.8-10.8-7.1-16.6-9.8l-22.9,0
	c-1.8,0-3.3,1.5-3.3,3.3v0c0,1.6,1.1,2.9,2.5,3.2l16.9,0c1.8,0,3.3,1.5,3.3,3.3v0c0,1.8-1.5,3.3-3.3,3.3l-1.9,0
	c-0.2,0-0.4,0.1-0.6,0.1H0.3v6.5h64.3C62.3,25.8,59.9,23.6,57.4,21.6z"/>
<g>
	<path class="st8" d="M27.5,28.4c4.9,4.4,10.4,2,12.7,0.7c-0.2-0.3-0.2-0.7-0.2-1.1c-0.2-0.1-0.3-0.2-0.4-0.4
		c-0.5-0.6-0.6-1.2-0.3-1.5c0.3-0.2,0.9,0,1.3,0.5c0.2-0.2,0.4-0.4,0.7-0.6c0.2-0.1,0.4-0.2,0.6-0.2c-0.2-0.6,0-1.2,0.3-1.3
		c0.4-0.1,0.9,0.3,1.1,1c0,0.1,0.1,0.2,0.1,0.4c0.4,0.2,0.8,0.5,1.1,0.9c2.4-1.3,7-4.8,5.9-11.1c0,0,9.1-6,15.4-0.8
		c0,0-11.7,4.2-9,10.4c0,0-6,5.6-7.7,11.2c0.6,1.8,0.7,3.2,0.1,3.5c-0.6,0.3-1.7-0.4-2.9-1.8c-5.7-1.6-13.8,0.6-13.8,0.6
		c-3.9-5.5-13.6,2.3-13.6,2.3C17.6,33,27.5,28.4,27.5,28.4z"/>
</g>
<g>
	<path class="st8" d="M142.7,15.6c-2.8,3.9-7.2,3.1-9.1,2.5c0.1-0.3,0.1-0.6,0-0.8c0.1-0.1,0.2-0.2,0.3-0.4c0.3-0.5,0.2-1,0-1.1
		c-0.2-0.1-0.6,0.1-0.9,0.6c-0.2-0.1-0.4-0.2-0.6-0.3c-0.2,0-0.3-0.1-0.5-0.1c0-0.5-0.2-0.9-0.4-0.9c-0.3,0-0.6,0.4-0.6,0.9
		c0,0.1,0,0.2,0,0.3c-0.3,0.2-0.5,0.5-0.6,0.8c-2-0.6-5.9-2.4-6-7.1c0,0-7.5-2.9-11.3,1.9c0,0,9.1,1.2,8.2,6.1c0,0,5.2,3.1,7.4,6.9
		c-0.1,1.4,0,2.4,0.5,2.6c0.5,0.1,1.1-0.6,1.8-1.8c3.9-2,10.1-1.7,10.1-1.7c1.9-4.6,10.2-0.5,10.2-0.5
		C150.6,17.4,142.7,15.6,142.7,15.6z"/>
</g>
<path class="st10" d="M201.5,37.3c0-0.2-5.1-1.4-8.1,1.4c-2.4,2.3-6,2.9-7.5,2.2c-0.5-0.3-0.7,0.1-0.7,0.5c0.1,2.4-0.8,5-2.4,5.8
	c0,0-0.1,0,0-0.1c0.1-0.2,0.1-0.5,0.1-0.7c-0.1-0.3-0.2-0.5-0.4-0.7c0.3-0.2,0.6-1,0.4-1.2c-0.3,0.3-0.4,0.6-0.9,0.9
	c-0.3-0.1-0.6-0.1-0.9-0.1l0,0l0,0l0,0l0,0l0,0l0,0l0,0l0,0c-0.3,0-0.6,0.2-0.8,0.3c-0.6-0.1-0.8-0.3-1.2-0.5
	c-0.1,0.3,0.5,0.9,0.8,1c-0.1,0.3-0.2,0.5-0.1,0.8c0,0.2,0.2,0.5,0.3,0.7c0,0,0,0,0,0.1c-1.8-0.2-3.6-2.3-4.4-4.7
	c-0.1-0.4-0.4-0.7-0.8-0.3c-1.1,1.1-4.7,1.8-7.8,0.4c-3.8-1.7-8.2,1.1-8.1,1.3c2.1-0.5,5.1-0.4,5.4,4.6c3.9-2.5,6.6,1.9,6.5,2.9
	c0,0,4.4-2.5,6,1.9c1.4-0.5,2.8-0.2,3.4,2.3c1.3-0.9,2.5-0.4,3.1,1.1l0,0c0.1-2.4,1.6-2.2,2.5-2c-0.4-2.5,0.9-3.3,2.3-3.2
	c-0.1-4.7,4.9-3.7,4.9-3.7c-0.5-0.8,0.4-5.9,5-4.8C196.6,38.6,199.5,37.5,201.5,37.3z"/>
<g>
	<path class="st11" d="M17.3,161.1l-1.6-9.7l-0.1,0c0,0-1.9,0.2-3.1-1.2l0,0l-0.9,0.1l-0.5-2l2.4-3.4l0.3-0.5l-0.8-4.8l-3.4-2.5
		L9.1,137l-4.8,0.8l-2.5,3.4l-0.3,0.5l0.8,4.8l3.9,2.8l0.1,2.1l-0.9,0.1l0,0c-0.7,1.6-2.5,2.1-2.5,2.1l-0.1,0l1.6,9.7
		c-0.8,0.2-0.7,0.9-0.6,1.2l0.6,3.8l14.4-2.4l-0.6-3.8C18.2,161.7,18.1,161,17.3,161.1z M9.3,140.8l-0.3-2l2.4,1.7L9.3,140.8z
		 M12,144.4l-1.7,2.4l-0.3-2L12,144.4z M6.1,145.4l0.3,2l-2.4-1.7L6.1,145.4z M5.1,139.4l0.3,2l-2,0.3L5.1,139.4z"/>
	<g>
		<path class="st11" d="M18.9,165.9l-14.4,2.4l-0.6-3.8c-0.1-0.3-0.2-1,0.6-1.2l-1.6-9.7l0.1,0c0,0,1.9-0.5,2.5-2.1l0,0l0.9-0.1
			l-0.1-2.1l-3.9-2.8l-0.8-4.8l0.3-0.5l2.5-3.4l4.8-0.8l0.5,0.3l3.4,2.5l0.8,4.8l-0.3,0.5l-2.4,3.4l0.5,2l0.9-0.1l0,0
			c1.1,1.3,3,1.2,3.1,1.2l0.1,0l1.6,9.7c0.8-0.1,0.9,0.6,1,0.9L18.9,165.9z M4.6,168.1l14.1-2.3l-0.6-3.6c-0.1-0.5-0.2-0.9-0.9-0.8
			l-0.1,0l-1.6-9.7c-0.4,0-2,0-3.1-1.2l-0.9,0.2l0-0.1l-0.6-2.2l0.3-0.5l2.4-3.4l-0.8-4.6l-3.8-2.7l-4.6,0.8l-2.7,3.8l0.8,4.6
			l3.9,2.8l0,0l0.2,2.3l-0.9,0.2c-0.6,1.5-2.2,2-2.6,2.1l1.6,9.7l-0.1,0c-0.7,0.1-0.7,0.6-0.6,1L4.6,168.1z M10.2,147.2l-0.4-2.6
			l2.6-0.4L10.2,147.2z M9.9,144.7l0.3,2l1.7-2.4L9.9,144.7z M6.6,147.8l-3-2.2l2.6-0.4L6.6,147.8z M4,145.7l2.4,1.7l-0.3-2L4,145.7
			z M11.7,140.6L9.1,141l-0.4-2.6L11.7,140.6z M9.3,140.8l2-0.3l-2.4-1.7L9.3,140.8z M5.6,141.6L3,142.1l2.2-3L5.6,141.6z
			 M3.4,141.8l2-0.3l-0.3-2L3.4,141.8z"/>
	</g>
	<g>
		<polygon class="st11" points="16.3,161.2 5.5,162.9 15.9,160.9 14.9,153 		"/>
	</g>
	<g>
		<polygon class="st11" points="17.8,165.3 5.4,167.3 17.5,165 17.3,162.2 		"/>
	</g>
</g>
<g>
	<path class="st11" d="M68.4,187.8v-1.5c0-1.2-0.9-1.4-1.2-1.4l0-6.2c0-7.7-4.6-9.3-5.8-9.3c-1.2,0-5.8,1.6-5.8,9.3v6.2
		c-0.3,0-1.2,0.2-1.2,1.4v1.5h-0.9v2.3h15.8v-2.3H68.4z"/>
	<g>
		<path class="st11" d="M66.2,184.7h-9.4l9.1-0.3v-6.1c0-7.3-4.5-8-4.5-8c1,0,4.8,1.4,4.8,8V184.7z"/>
	</g>
	<g>
		<path class="st11" d="M69.3,190.1H53.5l0-2.3h0.9v-1.5c0-1.2,0.9-1.4,1.2-1.4v-6.2c0-7.7,4.6-9.3,5.8-9.3c1.2,0,5.8,1.6,5.8,9.3
			v6.2c0.3,0,1.2,0.2,1.2,1.4v1.5h0.9V190.1z M53.6,189.9h15.4v-2h-0.9v-1.7c0-1.2-1.1-1.3-1.1-1.3h-0.1v-6.4c0-8.6-5.5-9.1-5.6-9.1
			c-0.1,0-5.6,0.5-5.6,9.1l0,6.4l-0.1,0c0,0-1.1,0-1.1,1.3v1.7h-0.9V189.9z"/>
	</g>
	<g>
		<polygon class="st11" points="67.3,189.3 55.6,189.3 67,189 67.3,185.9 		"/>
	</g>
</g>
<g>
	<path class="st11" d="M207.8,164.5c0,0-1.7-2.4-1.5-7c0.2-3.4,1-3.8,1.3-4c0.1-0.1,0.2-0.1,0.2-0.2l0-0.8l-0.1,0c0,0-0.3,0-0.4-0.2
		c-0.1-0.1-0.2-0.4-0.2-0.6l0-0.1l-0.1,0c-0.4,0-0.4-0.4-0.3-1.8l0-0.1l-0.6,0c0-1.8-1.2-3.3-2.9-3.4c-1.7-0.1-3.2,1.2-3.5,3l-0.6,0
		l0,0.1c-0.2,1.5-0.2,1.8-0.7,1.8l-0.1,0l0,0.1c0,0.3-0.1,0.5-0.3,0.6c-0.2,0.2-0.5,0.2-0.5,0.2l-0.1,0l-0.1,0.9
		c0,0.1,0.1,0.2,0.2,0.3c0.3,0.2,1.1,0.7,0.7,4.2c-0.5,4.7-2.9,7.3-2.9,7.3l0,0l-0.3,2.6l12.5-0.4L207.8,164.5L207.8,164.5z"/>
	<g>
		<g>
			<path class="st11" d="M206.7,166.3l-10.3,0.3l10.1-0.6l0.1-1.5c-0.2-0.4-1.4-3-1.1-7.1c0.2-3,0.8-3.7,1.1-4.1
				c0-0.1,0.1-0.1,0.1-0.1l0-0.3c-0.1-0.1-0.4-0.3-0.4-0.9c-0.4-0.1-0.4-0.5-0.3-1.5l-0.5,0l0-0.1c0.2-2.9-2.2-3.5-2.2-3.5
				c1.3,0.1,2.4,1.6,2.4,3.4l0.5,0l0,0.1c-0.1,1.4,0,1.4,0.2,1.4l0.1,0l0,0.1c0,0.8,0.2,0.8,0.3,0.8l0.1,0l0,0.5
				c0,0.1-0.1,0.2-0.2,0.3c-0.2,0.3-0.8,1-1,3.9c-0.3,4.3,1.1,6.9,1.1,6.9l0,0L206.7,166.3z"/>
		</g>
	</g>
	<g>
		<g>
			<path class="st11" d="M207.7,166.9l-12.5,0.4l0.3-2.6l0,0c0,0,2.4-2.6,2.9-7.3c0.4-3.5-0.4-4-0.7-4.2c-0.1-0.1-0.2-0.1-0.2-0.3
				l0.1-0.9l0.1,0c0,0,0.3,0,0.5-0.2c0.2-0.1,0.3-0.4,0.3-0.6l0-0.1l0.1,0c0.4,0,0.5-0.3,0.7-1.8l0-0.1l0.6,0c0.3-1.8,1.8-3.2,3.5-3
				c1.6,0.1,2.9,1.6,2.9,3.4l0.6,0l0,0.1c-0.1,1.4-0.1,1.8,0.3,1.8l0.1,0l0,0.1c0,0.3,0,0.5,0.2,0.6c0.2,0.2,0.4,0.2,0.4,0.2l0.1,0
				l0,0.8c0,0.1-0.1,0.2-0.2,0.2c-0.3,0.2-1.1,0.6-1.3,4c-0.3,4.5,1.5,7,1.5,7l0,0L207.7,166.9z M195.4,167.2l12.2-0.4l0.1-2.2
				c-0.2-0.3-1.8-2.7-1.5-7.1c0.2-3.5,1.1-4,1.4-4.1c0.1,0,0.1-0.1,0.1-0.1l0-0.7c-0.1,0-0.3,0-0.5-0.2c-0.1-0.2-0.2-0.4-0.2-0.7
				c-0.5-0.1-0.5-0.7-0.4-1.9l-0.6,0l0-0.1c0-1.8-1.2-3.2-2.7-3.3c-1.6-0.1-3.1,1.2-3.4,3l0,0.1l-0.6,0c-0.1,1.2-0.2,1.8-0.7,1.9
				c0,0.3-0.2,0.5-0.3,0.7c-0.2,0.2-0.4,0.2-0.5,0.2l-0.1,0.7c0,0,0.1,0.1,0.1,0.1c0.4,0.2,1.2,0.7,0.8,4.4
				c-0.5,4.5-2.7,7.1-2.9,7.5L195.4,167.2z"/>
		</g>
	</g>
</g>
<g>
	<path class="st11" d="M84.3,172.2c0,0-1.7-2.4-1.5-7c0.2-3.4,1-3.8,1.3-4c0.1-0.1,0.2-0.1,0.2-0.2l0-0.8l-0.1,0c0,0-0.3,0-0.4-0.2
		c-0.1-0.1-0.2-0.4-0.2-0.6l0-0.1l-0.1,0c-0.4,0-0.4-0.4-0.3-1.8l0-0.1l-0.6,0c0-1.8-1.2-3.3-2.9-3.4c-1.7-0.1-3.2,1.2-3.5,3l-0.6,0
		l0,0.1c-0.2,1.5-0.2,1.8-0.7,1.8l-0.1,0l0,0.1c0,0.3-0.1,0.5-0.3,0.6c-0.2,0.2-0.5,0.2-0.5,0.2l-0.1,0l-0.1,0.9
		c0,0.1,0.1,0.2,0.2,0.3c0.3,0.2,1.1,0.7,0.7,4.2c-0.5,4.7-2.9,7.3-2.9,7.3l0,0l-0.3,2.6l12.5-0.4L84.3,172.2L84.3,172.2z"/>
	<g>
		<g>
			<path class="st11" d="M83.2,174.1L73,174.4l10.1-0.6l0.1-1.5c-0.2-0.4-1.4-3-1.1-7.1c0.2-3,0.8-3.7,1.1-4.1
				c0-0.1,0.1-0.1,0.1-0.1l0-0.3c-0.1-0.1-0.4-0.3-0.4-0.9c-0.4-0.1-0.4-0.5-0.3-1.5l-0.5,0l0-0.1c0.2-2.9-2.2-3.5-2.2-3.5
				c1.3,0.1,2.4,1.6,2.4,3.4l0.5,0l0,0.1c-0.1,1.4,0,1.4,0.2,1.4l0.1,0l0,0.1c0,0.8,0.2,0.8,0.3,0.8l0.1,0l0,0.5
				c0,0.1-0.1,0.2-0.2,0.3c-0.2,0.3-0.8,1-1,3.9c-0.3,4.3,1.1,6.9,1.1,6.9l0,0L83.2,174.1z"/>
		</g>
	</g>
	<g>
		<g>
			<path class="st11" d="M84.2,174.7l-12.5,0.4l0.3-2.6l0,0c0,0,2.4-2.6,2.9-7.3c0.4-3.5-0.4-4-0.7-4.2c-0.1-0.1-0.2-0.1-0.2-0.3
				l0.1-0.9l0.1,0c0,0,0.3,0,0.5-0.2c0.2-0.1,0.3-0.4,0.3-0.6l0-0.1l0.1,0c0.4,0,0.5-0.3,0.7-1.8l0-0.1l0.6,0c0.3-1.8,1.8-3.2,3.5-3
				c1.6,0.1,2.9,1.6,2.9,3.4l0.6,0l0,0.1c-0.1,1.4-0.1,1.8,0.3,1.8l0.1,0l0,0.1c0,0.3,0,0.5,0.2,0.6c0.2,0.2,0.4,0.2,0.4,0.2l0.1,0
				l0,0.8c0,0.1-0.1,0.2-0.2,0.2c-0.3,0.2-1.1,0.6-1.3,4c-0.3,4.5,1.5,7,1.5,7l0,0L84.2,174.7z M71.9,174.9l12.2-0.4l0.1-2.2
				c-0.2-0.3-1.8-2.7-1.5-7.1c0.2-3.5,1.1-4,1.4-4.1c0.1,0,0.1-0.1,0.1-0.1l0-0.7c-0.1,0-0.3,0-0.5-0.2c-0.1-0.2-0.2-0.4-0.2-0.7
				c-0.5-0.1-0.5-0.7-0.4-1.9l-0.6,0l0-0.1c0-1.8-1.2-3.2-2.7-3.3c-1.6-0.1-3.1,1.2-3.4,3l0,0.1l-0.6,0c-0.1,1.2-0.2,1.8-0.7,1.9
				c0,0.3-0.2,0.5-0.3,0.7c-0.2,0.2-0.4,0.2-0.5,0.2l-0.1,0.7c0,0,0.1,0.1,0.1,0.1c0.4,0.2,1.2,0.7,0.8,4.4
				c-0.5,4.5-2.7,7.1-2.9,7.5L71.9,174.9z"/>
		</g>
	</g>
</g>
<g>
	<path class="st11" d="M44.5,152.1c0-0.6-0.5-1-1-1c-0.4,0-0.8,0.3-1,0.7l-6-3.1c-0.1-0.1-0.3-0.1-0.5,0l-6,3.1
		c-0.1-0.4-0.5-0.7-1-0.7c-0.6,0-1,0.5-1,1c0,0.2,0.1,0.4,0.2,0.6c-0.1,0.1-0.2,0.2-0.2,0.4v21.6h16.6v-21.6c0-0.2-0.1-0.3-0.2-0.4
		C44.4,152.5,44.5,152.3,44.5,152.1z"/>
	<g>
		<g>
			<polygon class="st11" points="43.2,173.8 29.3,173.8 42.9,173.5 43.2,154.2 			"/>
		</g>
	</g>
	<g>
		<g>
			<path class="st11" d="M44.5,174.6H27.9v-21.6c0-0.2,0.1-0.3,0.2-0.4c-0.1-0.2-0.2-0.4-0.2-0.6c0-0.6,0.5-1,1-1
				c0.4,0,0.8,0.3,1,0.7l6-3.1c0.1-0.1,0.3-0.1,0.5,0l6,3.1c0.1-0.4,0.5-0.7,1-0.7c0.6,0,1,0.5,1,1c0,0.2-0.1,0.4-0.2,0.6
				c0.1,0.1,0.2,0.2,0.2,0.4V174.6z M28.1,174.4h16.2v-21.4c0-0.1-0.1-0.2-0.2-0.3l-0.1-0.1l0.1-0.1c0.1-0.2,0.2-0.3,0.2-0.5
				c0-0.5-0.4-0.8-0.8-0.8c-0.4,0-0.7,0.3-0.8,0.6l0,0.1l-6.3-3.2c-0.1,0-0.2,0-0.3,0l-6.3,3.2l0-0.1c-0.1-0.4-0.4-0.6-0.8-0.6
				c-0.5,0-0.8,0.4-0.8,0.8c0,0.2,0.1,0.4,0.2,0.5l0.1,0.1l-0.1,0.1c-0.1,0.1-0.2,0.2-0.2,0.3V174.4z"/>
		</g>
	</g>
</g>
<g>
	<path class="st11" d="M153.6,155.3c0-0.6-0.5-1-1-1c-0.4,0-0.8,0.3-1,0.7l-6-3.1c-0.1-0.1-0.3-0.1-0.5,0l-6,3.1
		c-0.1-0.4-0.5-0.7-1-0.7c-0.6,0-1,0.5-1,1c0,0.2,0.1,0.4,0.2,0.6c-0.1,0.1-0.2,0.2-0.2,0.4v21.6h16.6v-21.6c0-0.2-0.1-0.3-0.2-0.4
		C153.6,155.7,153.6,155.5,153.6,155.3z"/>
	<g>
		<g>
			<polygon class="st11" points="152.4,177.1 138.4,177.1 152,176.7 152.4,157.4 			"/>
		</g>
	</g>
	<g>
		<g>
			<path class="st11" d="M153.6,177.9H137v-21.6c0-0.2,0.1-0.3,0.2-0.4c-0.1-0.2-0.2-0.4-0.2-0.6c0-0.6,0.5-1,1-1
				c0.4,0,0.8,0.3,1,0.7l6-3.1c0.1-0.1,0.3-0.1,0.5,0l6,3.1c0.1-0.4,0.5-0.7,1-0.7c0.6,0,1,0.5,1,1c0,0.2-0.1,0.4-0.2,0.6
				c0.1,0.1,0.2,0.2,0.2,0.4V177.9z M137.3,177.7h16.2v-21.4c0-0.1-0.1-0.2-0.2-0.3l-0.1-0.1l0.1-0.1c0.1-0.2,0.2-0.3,0.2-0.5
				c0-0.5-0.4-0.8-0.8-0.8c-0.4,0-0.7,0.3-0.8,0.6l0,0.1l-6.3-3.2c-0.1,0-0.2,0-0.3,0l-6.3,3.2l0-0.1c-0.1-0.4-0.4-0.6-0.8-0.6
				c-0.5,0-0.8,0.4-0.8,0.8c0,0.2,0.1,0.4,0.2,0.5l0.1,0.1l-0.1,0.1c-0.1,0.1-0.2,0.2-0.2,0.3V177.7z"/>
		</g>
	</g>
</g>
<g>
	<path class="st11" d="M179.7,181.2l2-15.7c0.8,0,1-1,1-1.3l0-0.1l-0.1,0c-0.4-0.1-2.4-0.4-2.6-1.7c-0.2-1.5-0.6-2.2-1.3-2.4
		c0.1-1.1-0.6-1.8-1.9-2c-1.3-0.2-2.2,0.3-2.4,1.4c-0.7,0-1.3,0.6-1.9,2c-0.5,1.2-2.6,1-3,1l-0.1,0l0,0.1c0,0.3-0.1,1.3,0.7,1.5
		l-2,15.7c-0.4,0-2,0.2-2.3,3.1l0,0.1l15.5,2l0-0.1C181.6,181.9,180.1,181.3,179.7,181.2z"/>
	<g>
		<path class="st11" d="M181.2,184.8l-15.5-2l0-0.1c0.4-2.8,1.9-3.1,2.3-3.1l2-15.7c-0.8-0.2-0.7-1.2-0.7-1.5l0-0.1l0.1,0
			c0.4,0.1,2.5,0.2,3-1c0.6-1.4,1.2-2,1.9-2c0.2-1.1,1-1.6,2.4-1.4c1.3,0.2,2,0.9,1.9,2c0.7,0.2,1.1,0.9,1.3,2.4
			c0.2,1.3,2.2,1.6,2.6,1.7l0.1,0l0,0.1c0,0.3-0.2,1.3-1,1.3l-2,15.7c0.4,0.1,1.9,0.7,1.5,3.6L181.2,184.8z M166,182.7l15.1,1.9
			c0.3-3-1.4-3.2-1.4-3.2l-0.1,0l2.1-16.1l0.1,0c0.6,0.1,0.8-0.6,0.9-1c-0.6-0.1-2.5-0.5-2.7-1.8c-0.2-1.4-0.6-2.1-1.2-2.2l-0.1,0
			l0-0.1c0.2-1.3-0.8-1.7-1.7-1.8c-0.9-0.1-2,0-2.1,1.3l0,0.1l-0.1,0c-0.6-0.1-1.2,0.5-1.8,1.8c-0.5,1.3-2.5,1.2-3.1,1.1
			c0,0.3,0,1.1,0.6,1.1l0.1,0l-2.1,16.1l-0.1,0C168.1,179.9,166.4,179.7,166,182.7z"/>
	</g>
	<g>
		<polygon class="st11" points="178.7,181 169.3,179.8 178.4,180.6 180.7,165.5 		"/>
	</g>
</g>
<g>
	<path class="st11" d="M114.3,158.1v-2.8h4v-4.3h-4v-2.8h-2.4c0.1-0.4,0.4-1.1,1.1-1.9c0.3-0.3,0.4-0.8,0.3-1.2
		c-0.1-0.4-0.5-0.7-0.9-0.8c-0.3-0.1-0.8-0.1-1.4,0.5c0-0.9-0.4-1.4-0.6-1.7c-0.3-0.3-0.7-0.5-1-0.5c-0.3,0-0.7,0.2-1,0.5
		c-0.2,0.3-0.6,0.8-0.6,1.7c-0.6-0.5-1.1-0.5-1.4-0.5c-0.4,0.1-0.8,0.4-0.9,0.8c-0.1,0.4,0,0.8,0.3,1.2c0.7,0.7,1,1.5,1.1,1.9h-2.4
		v2.8h-4v4.3h4v2.8h2.3v5.7c0,1.7-1.9,1.9-2,2l-0.1,0v2.3c-0.9,0.2-0.9,3.4-0.9,3.8v0.1H115v-0.1c0-0.4,0-3.5-0.9-3.8v-2.3l-0.1,0
		c0,0-2-0.3-2-2v-5.7H114.3z"/>
	<g>
		<path class="st11" d="M115,171.9h-11.4v-0.1c0-0.4,0-3.5,0.9-3.8v-2.3l0.1,0c0.1,0,2-0.3,2-2v-5.7h-2.3v-2.8h-4V151h4v-2.8h2.4
			c-0.1-0.4-0.4-1.1-1.1-1.9c-0.3-0.3-0.4-0.8-0.3-1.2c0.1-0.4,0.5-0.7,0.9-0.8c0.3-0.1,0.8-0.1,1.4,0.5c0-0.9,0.4-1.4,0.6-1.7
			c0.3-0.3,0.7-0.5,1-0.5c0.3,0,0.7,0.2,1,0.5c0.2,0.3,0.6,0.8,0.6,1.7c0.6-0.5,1.1-0.5,1.4-0.5c0.4,0.1,0.8,0.4,0.9,0.8
			c0.1,0.4,0,0.8-0.3,1.2c-0.7,0.8-1,1.5-1.1,1.9h2.4v2.8h4v4.3h-4v2.8H112v5.7c0,1.7,1.9,2,2,2l0.1,0v2.3c0.9,0.2,0.9,3.4,0.9,3.8
			V171.9z M103.8,171.7h11c0-1.4-0.2-3.5-0.8-3.5h-0.1v-2.4c-0.4-0.1-2.1-0.5-2.1-2.1v-5.9h2.3v-2.8h4v-3.9h-4v-2.8h-2.5l0-0.1
			c0.1-0.3,0.4-1.2,1.2-2.1c0.3-0.3,0.3-0.7,0.2-1c-0.1-0.3-0.4-0.6-0.8-0.7c-0.5-0.1-0.9,0.1-1.4,0.6l-0.2,0.2l0-0.3
			c0.1-1-0.3-1.5-0.6-1.8c-0.3-0.3-0.6-0.4-0.8-0.4c-0.3,0-0.6,0.2-0.8,0.4c-0.2,0.3-0.6,0.8-0.6,1.8l0,0.3l-0.2-0.2
			c-0.4-0.5-0.9-0.7-1.4-0.6c-0.4,0.1-0.7,0.3-0.8,0.7c-0.1,0.3,0,0.7,0.2,1c0.8,0.9,1.1,1.8,1.2,2.1l0,0.1h-2.5v2.8h-4v3.9h4v2.8
			h2.3v5.9c0,1.6-1.6,2.1-2.1,2.1v2.4h-0.1C104.1,168.3,103.9,170.4,103.8,171.7z"/>
	</g>
	<g>
		<polygon class="st11" points="113.4,157.2 105.4,157.2 113.1,156.9 113.4,149.2 		"/>
	</g>
</g>
<g>
	<path class="st12" d="M29,57c0.2,1.5,0.2,2.7,0.1,3.8l-0.3,2.4c-0.1,0.6-0.1,1.3,0,2.2c0,0.9,0,1.5-0.3,1.9
		c-0.2,0.4-0.6,0.6-1.2,0.7c-0.5,0.1-1,0.1-1.3-0.1c-0.3-0.1-0.6-0.3-0.9-0.5c-0.7-0.4-1.2-0.4-1.6-0.1c-0.4,0.3-0.7,0.7-0.9,1.2
		c-0.2,0.5-0.3,1.1-0.3,1.8c-0.1,1-0.1,2.4,0,4c0,0.6,0,1.1,0,1.4c0,0.3,0,0.7,0,0.9c0,0.6,0.1,1.2,0.3,1.8c0.2,0.6,0.3,1,0.3,1.3
		c0,0.3,0,0.5-0.1,0.7c-0.1,0.2-0.2,0.3-0.4,0.4c-0.2,0.1-0.3,0.2-0.4,0.3c-0.1,0.1-0.3,0.2-0.4,0.3c-0.1,0.1-0.3,0.2-0.5,0.4
		c0.2,1.6,0.2,2.9,0.1,3.8s-0.2,1.7-0.2,2.4c0,0.7-0.2,1.2-0.5,1.5c-0.4,0.5-1.2,0.8-2.4,1c-0.7,0-1.2-0.3-1.5-1.1
		c-0.3-0.7-0.5-1.6-0.4-2.7c0-1.1,0-1.9-0.1-2.5c-0.1-0.6-0.2-1.1-0.4-1.5c-0.1-0.4-0.3-0.8-0.4-1.1c-0.1-0.3-0.2-0.8-0.3-1.3
		c-0.1-0.6,0-1.2,0.2-1.8c-0.5-0.5-0.8-1.1-0.9-1.7c-0.2-0.6-0.1-1.4,0.1-2.4c0.2-1,0.4-1.9,0.4-2.6c0.1-0.8,0.1-1.5,0.1-2.2
		c-0.1-1.5-0.4-2.4-1-2.6c-0.5-0.1-1,0-1.5,0.3c-0.5,0.4-1,0.6-1.3,0.7c-0.3,0.1-0.6,0-0.9-0.2c-0.3-0.2-0.4-0.5-0.4-0.8
		c0-0.3,0.1-0.7,0.2-1.1c0.1-0.4,0.2-0.8,0.3-1.1c0.1-0.4,0.1-0.7-0.1-1c-0.1-0.3-0.3-0.5-0.5-0.6s-0.4-0.3-0.5-0.5
		c-0.4-0.5-0.5-1.5-0.3-2.8C9,59,9.1,57.9,9.2,57c0.1-0.9,0.2-1.5,0.2-1.9c0-0.4,0.2-0.8,0.3-1.1c0.2-0.3,0.4-0.6,0.7-0.9
		c0.8-0.6,1.9-0.8,3.2-0.6c6.1,0.8,9.5,1.1,10.4,0.8c0.3-0.1,0.6-0.2,0.9-0.3C27.2,52.1,28.6,53.4,29,57z"/>
	<path class="st12" d="M43.7,83.5l0-3.8v-1.2c0-1-0.1-1.6-0.3-1.9c-0.3-0.5-0.8-0.7-1.4-0.7c-0.6,0-1.1,0.2-1.4,0.6
		c-0.3,0.4-0.4,0.8-0.5,1.3c0,0.5-0.1,1.1-0.1,1.7c0,0.6,0,1.3,0,2c-0.1,1.5-0.1,2.6,0,3.4c0.1,0.8,0.1,1.3,0,1.5
		c-0.1,0.2-0.3,0.4-0.5,0.6c-0.3,0.2-0.5,0.5-0.6,0.8c-0.2,0.3-0.3,0.7-0.4,1.1c-0.4,0.9-0.8,1.3-1.2,1.3c-1.3,0.1-2.4-0.6-3.3-2.1
		c-0.2-0.4-0.5-0.7-0.8-1c-0.7-0.8-0.8-2-0.4-3.7c0.2-0.8,0.2-1.6,0.2-2.5s0-1.4-0.1-1.8c-0.1-0.4-0.1-0.8,0-1.2
		c0.1-0.4,0-0.8-0.1-1.2c-0.2-0.3-0.2-0.8-0.2-1.4c0-0.6,0-1-0.1-1.5c-0.1-0.4-0.1-0.8-0.1-1.1c0.1-0.3,0-0.6-0.1-0.8
		c-0.1-0.2-0.2-0.5-0.1-0.9c0-0.4,0.1-0.8,0.1-1.2c0.1-1.2,0-2.1-0.4-2.7c-0.4-0.6-0.7-1.4-1-2.2c-0.3-0.8-0.2-1.8,0.1-3
		c0.6-1.7,0.7-3.7,0.5-5.8c-0.1-0.5,0-1.1,0.3-1.8c0.4-1.1,1.8-1.7,4.2-1.8c0.8,0,1.4-0.1,2.1-0.3c0.6-0.2,1.2-0.2,1.8,0
		c0.6,0.1,1,0.5,1.1,1.2c0.1,0.6,0.2,1.1,0.3,1.3c0.1,0.2,0.1,0.5,0.2,0.7c0.1,0.4,0,1.1-0.2,2.1s-0.3,1.7-0.3,2.4
		c0,0.6,0,1.3,0,1.9c0.1,1.5,0,2.5-0.2,3.1c-0.2,0.6-0.2,1.1-0.2,1.4c0.1,0.3,0.2,0.6,0.4,0.8c0.7,0.6,1.6,0.5,2.7-0.2
		c0.2-0.1,0.3-0.3,0.4-0.5c-0.2-0.9-0.3-2.1-0.3-3.4c0-2-0.1-3.6-0.2-4.7s-0.1-2.1,0-2.8c0.1-0.8,0.5-1.5,1-2.1
		c0.6-0.7,1.1-0.9,1.6-0.9c0.5,0.1,0.9,0.3,1.2,0.6c0.3,0.3,0.6,0.5,0.9,0.4c0.3,0,0.6-0.2,1.1-0.5c1.2-0.7,2.4-0.3,3.4,1.3
		c-0.3,0.3-0.4,0.9-0.3,1.8c0.1,0.9,0.2,1.5,0.1,1.9c-0.1,0.4-0.2,0.9-0.2,1.6c0,0.7-0.1,1.3-0.1,2c0,0.6-0.1,1.5-0.3,2.5
		c-0.2,1.4-0.2,3.1,0,4.9c0.2,1.8,0.2,3.5,0.1,5c-0.1,1.5-0.2,2.7-0.1,3.7c0.1,1,0,1.7-0.1,2c-0.1,0.3-0.2,0.7-0.4,1
		c-0.5,1-0.8,1.9-0.8,2.9c-0.1,0.8-0.1,1.6-0.1,2.5c0,0.8-0.1,1.5-0.2,2.2c-0.3,1.4-1,2.1-2,2.1c-1.2,0-1.9-0.9-2-2.7
		c-0.8-0.2-1.4-0.6-1.9-1.2C43.9,85.8,43.7,84.8,43.7,83.5z"/>
	<path class="st12" d="M56.5,80.4l0-2.5c0-0.5,0-0.9,0-1.3c0-0.4,0-1-0.1-1.6c-0.2-1.1-0.2-1.9-0.2-2.4c0-0.5,0-0.9,0-1.2
		c0-0.3-0.1-0.6-0.1-0.9c-0.1-0.4-0.3-1-0.7-1.9c-0.4-0.9-0.6-1.8-0.6-2.8c0-1,0.2-1.8,0.6-2.4c0.4-0.6,0.5-1.2,0.4-1.8
		c-0.1-0.6-0.2-1.3-0.2-2c0-0.7-0.1-1.4,0-2.2c0-0.7,0.2-1.5,0.5-2.2c0.7-1.7,2.2-2.5,4.4-2.4c1.4,0,2.5,0.2,3.5,0.4
		c1,0.2,1.7,0.3,2.2,0.3c0.5,0,1.2-0.2,2.1-0.5c1.4-0.5,2.5-0.5,3.3,0.1c0.2,0.2,0.5,0.3,0.7,0.4c0.2,0.1,0.4,0.2,0.6,0.4
		c0.6,0.6,0.7,2,0.5,4.1c-0.1,0.6-0.1,1.3-0.2,1.9c-0.2,1.5-0.2,2.6,0,3.3c0.2,0.7,0.3,1.4,0.3,1.9c0,0.5,0,1-0.1,1.5
		c-0.2,1-0.6,1.4-1.1,1.4c-0.5,0-0.9-0.2-1.1-0.5c-0.2-0.3-0.4-0.6-0.5-0.9c-0.1-0.3-0.3-0.7-0.4-0.9c-0.1-0.3-0.5-0.4-1-0.4
		c-1.5,0-2.4-0.2-2.9-0.5c-0.5-0.3-0.9-0.5-1.3-0.5c-0.4,0-0.7,0-1,0.1c-0.7,0.3-1.1,0.8-1.2,1.6c-0.1,0.8-0.2,1.5-0.2,2.1
		c0,0.6,0,1.1,0,1.6c0.1,1.2,0.3,1.8,0.7,2c0.4,0.1,0.7,0.2,1,0c0.3-0.1,0.5-0.3,0.8-0.4c0.8-0.5,1.6-0.8,2.5-0.8
		c0.8,0,1.5,0.4,1.9,1c0.4,0.7,0.6,1.3,0.5,1.9c-0.1,0.6-0.1,1.2-0.2,1.8s-0.1,1.2-0.2,1.7c-0.5,2-1.4,2.4-2.9,1.2
		c-1.9-0.1-3.1,0.1-3.5,0.7c-0.1,0.2-0.2,0.5-0.3,1c-0.1,0.5-0.1,1.1,0,1.7c0.2,1.6,0.9,2.4,2.2,2.5c0.9,0.1,1.6,0,2.4-0.3
		c0.7-0.3,1.2-0.6,1.4-1c0.2-0.4,0.4-0.6,0.7-0.7c0.3,0,0.6-0.1,0.8-0.1c0.2,0,0.5-0.1,0.7-0.1s0.5,0,0.7,0.1
		c0.6,0.2,0.9,0.7,1.1,1.4c0.1,0.7,0,1.4-0.2,2c-0.3,0.6-0.4,1.1-0.5,1.6c-0.1,0.5-0.2,0.8-0.2,1.1c-0.1,0.2-0.3,0.5-0.6,0.9
		c-0.3,0.3-0.6,0.6-0.7,0.9c-0.2,0.2-0.5,0.2-0.9-0.1c-0.7-0.6-1.6-0.2-2.6,1c-0.3,0.4-0.5,0.6-0.8,0.8c-0.3,0.2-0.8,0.2-1.4,0.2
		c-0.6,0-1.1-0.2-1.5-0.5c-0.4-0.3-0.7-0.6-1-0.9c-0.5-0.6-1.4-0.9-2.6-0.7c-0.7,0.1-1.3-0.2-1.8-0.9c-0.1-0.1-0.2-0.3-0.2-0.5
		c0-0.3-0.1-0.6-0.2-0.9c-0.2-0.9-0.4-1.4-0.6-1.7c-0.2-0.2-0.3-0.6-0.3-1c0-0.4-0.1-0.8-0.1-1.3c-0.1-0.4-0.1-0.8-0.1-1
		c0-0.2,0-0.5,0.1-0.8C56.5,81.1,56.5,80.8,56.5,80.4z"/>
	<path class="st12" d="M22,123c-0.9,0-1.4-0.4-1.3-1.3c0.1-0.7,0-1.3,0-1.7c-0.2-0.7-0.2-1.3-0.1-1.6c0.3-1,1.3-1.2,3.2-0.7
		c0.3,0.1,0.6,0.1,0.8,0.1s0.4,0,0.6,0c0.6-0.1,1.1-0.1,1.6,0c0.5,0.1,0.9,0.1,1.3,0.1c0.4,0,0.7-0.1,1-0.1c0.3-0.1,0.6-0.1,0.9-0.2
		c0.3-0.1,0.5-0.1,0.7-0.1c0.3,0,0.6,0.3,0.7,0.8c0.1,0.5,0.2,1.1,0.2,1.8c-0.1,1.7-0.5,2.7-1.2,2.9c-0.5,0.2-1,0.5-1.4,0.9
		c-0.4,0.4-0.6,1.1-0.5,1.9c0.1,0.8,0.2,1.5,0.2,2c0,0.5,0,0.9,0,1.2c0,0.3,0,0.6,0,0.9c0,0.2,0,0.6,0,0.9c0,0.4,0,0.9,0,1.5
		c-0.1,0.6-0.2,1.2-0.5,1.7c-0.6,1.2-1.3,1.6-2.1,1.3c-0.6-0.2-1.2-0.7-1.8-1.6c-0.2-0.3-0.4-0.6-0.6-0.8c-0.2-0.2-0.4-0.3-0.7-0.2
		c-0.3,0.1-0.6,0.2-0.8,0.5c-0.2,0.2-0.4,0.5-0.7,0.8c-1.4,1.7-3.2,2-5.3,0.7c-1.1-0.6-1.8-1.3-2.3-2.2c-0.2-0.4-0.3-0.8-0.5-1.3
		c-0.2-0.5-0.4-1-0.6-1.4c-0.5-1.1-1-1.8-1.5-2.2c-0.5-0.4-0.7-2.1-0.8-5.3c0-0.7,0-1.3,0-1.8c0.1-0.5,0.1-1.2,0.1-2v-2.3
		c0-0.7,0-1.4,0-2.1c0-1.1,0.1-2,0.2-2.8c-1.1-0.7-1.5-2-1.2-4c0.2-1.3,0.4-2.2,0.7-2.7c0.3-0.6,0.6-1.2,0.7-1.7
		c0.2-0.6,0.4-1.2,0.6-1.8c0.2-0.6,0.5-1.1,0.8-1.3c0.4-0.2,0.6-0.4,0.7-0.5c0.1-0.1,0.2-0.3,0.3-0.4c0.6-0.9,2-1.6,4.1-1.9
		c0.9-0.2,1.8-0.1,2.7,0.2c0.9,0.3,1.6,0.5,2.2,0.6c0.6,0.1,1.2,0.1,1.7,0.1c2.3,0.1,3.8,0.6,4.5,1.4c0.5,0.6,0.8,1.1,0.9,1.7
		c0.1,0.6,0.3,1,0.5,1.4c0.2,0.3,0.3,0.7,0.2,1.1c-0.1,0.4-0.1,0.7,0,0.9c0,0.2,0,0.5-0.1,0.8c-0.1,0.3-0.2,0.5-0.3,0.8
		c-0.2,0.7-0.2,1.2,0.1,1.5c0.2,0.3,0.5,0.6,0.7,0.8s0.3,0.5,0.4,0.8c0.3,0.7,0.3,1.2,0.1,1.7c-0.2,0.5-0.5,0.9-0.8,1.3
		c-0.3,0.4-0.6,0.7-1.1,0.7c-1.2,0.1-1.9,0.3-2.3,0.6c-0.4,0.3-0.7,0.5-1,0.6c-0.7,0.3-1.3,0.3-1.8-0.1c-0.9-0.4-1.3-1.2-1.2-2.4
		c0.1-1.4-0.4-2.1-1.5-2.3c-0.5-0.1-1,0.1-1.5,0.4c-0.5,0.4-0.9,0.8-1.2,1.4c-0.7,1.6-0.8,3-0.2,4.3c0.1,0.3,0.2,0.7,0.2,1.2v1.3
		c0,0.8-0.1,1.3-0.3,1.7c-0.2,0.4-0.3,0.8-0.3,1.3c0,0.5,0,1,0,1.7c0,0.6,0.1,1.3,0.1,2c0.1,0.7,0.2,1.4,0.3,2c0.4,1.4,0.9,2,1.5,2
		c0.5,0,0.9-0.2,1.2-0.7c0.1-0.2,0.2-0.4,0.3-0.6c0.1-0.2,0.3-0.4,0.6-0.5c0.3-0.1,0.5-0.3,0.6-0.6c0.1-0.3,0.2-0.6,0.2-0.9
		c0-0.4,0-1.2-0.1-2.4C22.5,123,22.2,123,22,123z"/>
	<path class="st12" d="M46.5,99.4l1.6-0.1c1.1,0,1.9,0.2,2.4,0.5c0.5,0.4,0.8,0.7,1.1,1c0.2,0.3,0.5,0.6,0.7,0.9
		c0.2,0.3,0.5,0.6,0.8,1c0.3,0.3,0.5,0.7,0.5,1.2c0,0.4,0.1,0.8,0.4,1.1c0.2,0.3,0.4,0.7,0.4,1.3c0,0.6,0,1.2,0,1.7
		c0,0.5-0.1,1-0.2,1.3s-0.1,0.7-0.1,1s0.1,0.7,0.2,0.9s0.2,1,0,2c-0.1,1.1-0.3,2.2-0.5,3.2c-0.2,1.1-0.6,2-1,2.8
		c-0.8,1.5-2.1,2.7-3.9,3.5c0.2,0.4,0.4,0.8,0.6,1.3c0.2,0.5,0.4,1,0.6,1.5c0.4,1.2,0.6,2.1,0.6,2.6s0,0.9,0.1,1.2
		c0,0.2,0.1,0.4,0.2,0.6c0.1,0.1,0.2,0.2,0.3,0.3c0.1,0.1,0.3,0.2,0.5,0.4c0.2,0.2,0.4,0.5,0.5,0.9c0.1,0.4,0.2,0.9,0.2,1.3
		c0,1.1-0.1,1.7-0.4,2c-0.2,0.2-0.5,0.4-0.8,0.5c-0.3,0.1-0.6,0.1-0.9,0.2c-0.8,0.1-1.2,0-1.4-0.3c-0.3-0.3-0.4-0.5-0.4-0.8
		c0-0.3-0.1-0.5-0.2-0.7s-0.2-0.3-0.4-0.4s-0.3-0.3-0.4-0.6c-0.1-0.4-0.2-0.6-0.3-0.7c-0.1-0.1-0.5-0.1-0.9-0.1
		c-0.8,0.2-1.4-0.3-1.8-1.5c-0.1-0.3-0.2-0.6-0.3-1c-0.1-0.4-0.2-0.8-0.3-1.2c-0.3-1-0.6-1.5-0.9-1.6c-0.3-0.1-0.6,0-0.8,0.1
		c-0.2,0.2-0.3,0.4-0.4,0.7c-0.1,0.3-0.1,0.6-0.1,0.9s0,0.7,0.1,1.1c0.1,0.4,0.1,0.7,0,1c-0.1,0.3-0.2,0.5-0.3,0.6s-0.2,0.3-0.4,0.4
		c-0.3,0.2-0.4,0.5-0.5,1c0,0.5-0.1,0.9-0.2,1.3c-0.2,0.9-0.5,1.5-0.8,1.7c-0.3,0.2-0.7,0.4-1,0.4s-0.7,0-1,0
		c-0.8-0.2-1.3-0.5-1.5-0.9c-0.2-0.4-0.3-0.7-0.3-0.9c0-0.2,0-0.4,0-0.6c0-0.2,0-0.4,0.1-0.6c0-0.2,0-0.5,0-0.8
		c0-0.3-0.1-0.7-0.2-1.3c-0.1-0.5-0.2-1.2-0.2-1.9l0-1.3c0-0.1,0.1-0.4,0.3-0.7c0.2-0.3,0.3-0.7,0.2-1.1c-0.1-0.4-0.3-0.7-0.6-0.8
		c-0.3-0.1-0.4-0.3-0.4-0.4c0-0.2,0-0.6,0.1-1.2c0.1-0.7,0-1.5-0.1-2.5c-0.1-1-0.2-1.9-0.2-2.6c-0.1-1.7-0.4-2.6-0.9-2.8
		c-0.4-0.2-0.7-0.5-0.8-0.8c-0.1-0.3-0.1-0.7,0-1.1c0.1-0.4,0.1-0.9,0.2-1.5c0.1-0.6,0.2-1.2,0.3-1.8c0.1-0.6,0.2-1.2,0.3-1.7
		c0.1-0.5,0.1-0.9,0.2-1.1c0-0.2,0-0.4,0-0.6c0-0.2,0-0.4,0-0.5c-0.1-0.5-0.1-1,0-1.4c0.1-0.8,0.2-1.3,0.1-1.6
		c-0.1-0.3,0-0.8,0.2-1.4c0.2-0.6,0.3-1.1,0.5-1.4c0.1-0.3,0.4-0.5,0.7-0.6c0.4-0.1,0.7-0.3,1.1-0.6s0.7-0.5,1-0.7
		c0.3-0.2,0.6-0.5,0.8-0.7c0.2-0.2,0.5-0.4,0.8-0.5c1-0.2,1.7-0.2,2.1-0.1c0.4,0.1,0.8,0.3,1,0.5c0.2,0.2,0.4,0.3,0.7,0.5
		c0.3,0.2,0.6,0.3,0.9,0.4c0.3,0.1,0.6,0.1,0.9,0.1c0.7,0.1,1.1,0.2,1.3,0.3C46.1,99.3,46.3,99.4,46.5,99.4z M42.4,113.2l0.3,4.5
		c0,0.3,0,0.6,0,0.9c0,0.3-0.1,0.5-0.1,0.8c0,0.5,0.1,0.8,0.5,0.9c0.3,0.1,0.6,0,0.8-0.3c0.2-0.2,0.4-0.6,0.5-1
		c0.4-0.8,0.5-1.4,0.4-1.6c-0.3-0.3-0.3-0.6-0.2-0.9c0.1-0.2,0.4-0.7,0.7-1.5c0.4-0.7,0.7-1.4,0.8-1.9c0.2-0.5,0.2-1.1,0.1-1.7
		c-0.1-0.6-0.1-1-0.1-1.3v-0.5c0-0.3-0.1-0.5-0.4-0.7c-0.2-0.2-0.4-0.3-0.5-0.3s-0.2,0-0.2,0c-0.3,0.1-0.6,0-0.8-0.1
		c-0.3-0.1-0.5-0.2-0.7-0.1c-0.2,0-0.5,0.2-0.8,0.5c-0.3,0.3-0.5,0.6-0.5,0.9c0,0.3,0,0.7,0,1.1C42.3,112,42.4,112.8,42.4,113.2z"/>
	<path class="st12" d="M60.1,135.6c-0.3,0.1-0.7,0.1-1.1-0.1c-0.4-0.1-0.7-0.4-0.9-0.8c-0.2-0.4-0.3-0.9-0.3-1.4
		c0-0.5-0.1-1.1,0-1.8c0-0.6,0-1.2,0-1.8c0-1.3-0.2-2.2-0.6-2.5c-0.9-0.7-1.3-2.3-1.1-5.1c0.2-1.6,0.3-2.8,0.5-3.7
		c0.3-1.5,0.5-2.8,0.5-3.9c0-1.1,0-1.9,0.1-2.5c0.1-0.6,0.2-1.1,0.3-1.5c0.1-0.4,0.3-0.8,0.4-1.2c0.2-0.4,0.3-1.1,0.4-2.1
		c0.3-2.5,0.6-4,0.9-4.6c0.4-0.8,0.8-1.7,1.3-2.6c0.5-0.9,0.9-1.5,1.3-1.8c0.8-0.6,1.8-0.6,3.3-0.1c1.1,0.4,2,0.5,2.9,0.3
		c0.9-0.1,1.6-0.2,2.1-0.2c0.5,0,1,0.2,1.6,0.5s1.1,0.8,1.4,1.2c0.3,0.5,0.6,1,0.7,1.6c0.2,1,0.2,2.2,0,3.6
		c-0.2,1.5-0.3,2.7-0.2,3.6c0,0.9,0.2,1.8,0.6,2.6c0.3,0.8,0.6,1.5,0.7,1.9c0.1,0.5,0.2,1,0.3,1.4c0.1,0.5,0.1,1,0.2,1.5
		c0,0.5,0.1,1.2,0.3,1.9s0.2,1.2,0.2,1.7c0,0.4,0,0.8,0,1c0,0.3-0.1,0.5-0.1,0.7c0,0.2,0,0.5,0,1c0.1,0.4,0.1,0.9,0,1.5
		c-0.1,0.5-0.2,1-0.3,1.5c-0.4,1.5-0.5,2.6-0.4,3.2c0.1,1.1,0.1,1.9,0,2.4c-0.1,0.5-0.3,0.9-0.4,1.2c-0.1,0.3-0.2,0.7-0.4,1.2
		c-0.1,0.5-0.5,1-0.9,1.4c-0.5,0.4-0.9,0.6-1.3,0.4c-0.4-0.2-0.7-0.4-0.8-0.7c-0.1-0.3-0.2-0.6-0.3-1c-0.1-0.3-0.2-0.6-0.3-0.9
		c-0.1-0.3-0.3-0.4-0.6-0.4c-0.5-0.1-0.8-0.4-0.8-0.9c0-0.5,0-1,0-1.4c0-0.4,0-0.8-0.1-1.3c-0.1-0.4-0.3-0.8-0.5-1.2
		c-0.6-1-1.3-1.6-2.1-1.7c-1.2-0.2-2,0.4-2.5,1.7c-0.1,0.3-0.2,0.8-0.2,1.3c0,0.5-0.2,1-0.4,1.5c-0.2,0.4-0.4,0.8-0.7,1.1
		c-0.2,0.3-0.5,0.6-0.7,0.8c-0.2,0.2-0.4,0.6-0.4,0.9C61.5,134.6,61,135.4,60.1,135.6z M64.5,114.8c-0.7,1.8-0.7,3.2-0.2,4.3
		c0.3,0.6,0.8,0.9,1.3,0.9c1,0.1,1.5,0,1.7-0.2c0.2-0.2,0.4-0.5,0.6-0.8c0.2-0.3,0.3-0.7,0.3-1.3c-0.1-0.6-0.1-1.1-0.1-1.5
		c0-0.4-0.2-0.9-0.5-1.5c-0.3-0.6-0.5-1.2-0.6-1.8s-0.2-1.3-0.2-1.9c-0.1-1.3-0.4-2-0.9-2c-0.3,0-0.5,0.2-0.6,0.5
		c-0.1,0.3-0.1,0.8-0.2,1.4C65.1,112.6,64.9,113.9,64.5,114.8z"/>
	<path class="st12" d="M86.1,102.3c0.6,0.8,0.9,2,0.8,3.7c0,0.9,0.1,1.6,0.3,2.1l0.5,1.3c0.2,0.6,0.4,1.8,0.6,3.5c0,0.7,0.2,1,0.6,1
		c0.2,0,0.4-0.4,0.4-1.3c0.1-1.7,0.2-3.1,0.5-4c0.3-1,0.5-1.8,0.6-2.5c0.1-0.7,0.2-1.4,0.3-2.1c0.1-0.7,0.1-1.3,0.2-1.9
		c0-0.6,0.1-1.2,0.2-1.8c0.1-0.6,0.4-1.1,0.7-1.6c0.4-0.5,1-0.7,1.8-0.6c0.8,0,1.4,0.1,1.7,0.1c0.3,0,0.5,0.1,0.7,0.1
		c0.2,0,0.3,0.1,0.4,0.1c0.1,0,0.3,0.1,0.5,0.1c0.2,0,0.5,0,0.8,0c0.3,0,0.5,0,0.6,0c0.1,0,0.3,0.1,0.5,0.3c0.2,0.1,0.3,0.4,0.4,0.7
		c0.4,0.8,0.5,1.7,0.4,2.8c-0.1,1.1-0.2,1.8-0.4,2.2c-0.1,0.3-0.3,0.6-0.4,0.8c-0.1,0.2-0.3,0.4-0.5,0.5c-0.2,0.1-0.3,0.4-0.4,0.7
		c-0.1,0.3-0.2,0.8-0.3,1.4c-0.1,0.6-0.1,1.2-0.2,1.9c-0.2,2.5-0.6,4.1-1.1,5c-0.1,0.2-0.2,0.4-0.4,0.6c-0.8,1-1.2,1.9-1.4,2.6
		c-0.2,0.7-0.3,1.3-0.4,1.8c-0.5,2.6-1,4.8-1.5,6.4c-0.6,1.8-0.9,3-1,3.4c-0.2,1.4-0.7,2.4-1.5,3c-0.4,0.3-0.8,0.9-1.1,1.7
		c-0.3,0.9-0.6,1.5-0.8,1.8c-0.2,0.3-0.5,0.5-0.8,0.4c-0.4-0.1-0.6-0.3-0.7-0.7c-0.3-1.1-0.7-1.9-1.1-2.3c-0.4-0.4-0.7-1.1-1-1.9
		c-0.3-0.8-0.5-1.5-0.6-2.2c-0.1-0.7-0.2-1.4-0.3-2.1c-0.2-1.9-0.4-3.2-0.6-3.9c-0.4-1.7-0.8-2.7-1.2-3.1c-0.3-0.3-0.5-0.5-0.7-0.7
		c-0.2-0.2-0.4-0.4-0.6-0.5c-0.4-0.4-0.5-0.8-0.5-1.5c0-0.6,0.1-1.4,0.2-2.5c0.1-1,0-2.1-0.3-3c-0.3-1-0.5-1.8-0.6-2.3
		c-0.1-0.5-0.2-1.1-0.3-1.7c-0.3-1.2-0.7-2.4-1.4-3.7c-1.2-2.1-1.4-3.8-0.5-5.1c0.5-0.7,1.2-1.1,2.3-1.1h1.1c0.4,0,0.7-0.1,1-0.4
		c0.5-0.4,1.2-0.4,2.1,0.1c0.1,0,0.3,0,0.5,0c0.2,0,0.4,0,0.6,0.1C85.6,98.6,86.1,99.9,86.1,102.3z"/>
	<path class="st12" d="M102.2,125.7l0-2.5c0-0.5,0-0.9,0-1.3c0-0.4,0-1-0.1-1.6c-0.2-1.1-0.2-1.9-0.2-2.4c0-0.5,0-0.9,0-1.2
		c0-0.3-0.1-0.6-0.1-0.9c-0.1-0.4-0.3-1-0.7-1.9c-0.4-0.9-0.6-1.8-0.6-2.8s0.2-1.8,0.6-2.4c0.4-0.6,0.5-1.2,0.4-1.8
		c-0.1-0.6-0.2-1.3-0.2-2c0-0.7-0.1-1.4,0-2.2c0-0.7,0.2-1.5,0.5-2.2c0.7-1.7,2.2-2.5,4.4-2.4c1.4,0,2.5,0.2,3.5,0.4
		c1,0.2,1.7,0.3,2.2,0.3c0.5,0,1.2-0.2,2.1-0.5c1.4-0.5,2.5-0.5,3.3,0.1c0.2,0.2,0.5,0.3,0.7,0.4c0.2,0.1,0.4,0.2,0.6,0.4
		c0.6,0.6,0.7,2,0.5,4.1c-0.1,0.6-0.1,1.3-0.2,1.9c-0.2,1.5-0.2,2.6,0,3.3c0.2,0.7,0.3,1.4,0.3,1.9c0,0.5,0,1-0.1,1.5
		c-0.2,1-0.6,1.4-1.1,1.4c-0.5,0-0.9-0.2-1.1-0.5c-0.2-0.3-0.4-0.6-0.5-0.9s-0.3-0.7-0.4-0.9c-0.1-0.3-0.5-0.4-1-0.4
		c-1.5,0-2.4-0.2-2.9-0.5c-0.5-0.3-0.9-0.5-1.3-0.5c-0.4,0-0.7,0-1,0.1c-0.7,0.3-1.1,0.8-1.2,1.6c-0.1,0.8-0.2,1.5-0.2,2.1
		c0,0.6,0,1.1,0,1.6c0.1,1.2,0.3,1.8,0.7,2c0.4,0.1,0.7,0.2,1,0c0.3-0.1,0.5-0.3,0.8-0.4c0.8-0.5,1.6-0.8,2.5-0.8
		c0.8,0,1.5,0.4,1.9,1c0.4,0.7,0.6,1.3,0.5,1.9c-0.1,0.6-0.1,1.2-0.2,1.8c0,0.6-0.1,1.2-0.2,1.7c-0.5,2-1.4,2.4-2.9,1.2
		c-1.9-0.1-3.1,0.1-3.5,0.7c-0.1,0.2-0.2,0.5-0.3,1s-0.1,1.1,0,1.7c0.2,1.6,0.9,2.4,2.2,2.5c0.9,0.1,1.6,0,2.4-0.3
		c0.7-0.3,1.2-0.6,1.4-1c0.2-0.4,0.4-0.6,0.7-0.7s0.6-0.1,0.8-0.1c0.2,0,0.5-0.1,0.7-0.1c0.2,0,0.5,0,0.7,0.1
		c0.6,0.2,0.9,0.7,1.1,1.4c0.1,0.7,0,1.4-0.2,2c-0.3,0.6-0.4,1.1-0.5,1.6c-0.1,0.5-0.2,0.8-0.2,1.1c-0.1,0.2-0.3,0.5-0.6,0.9
		s-0.6,0.6-0.7,0.9c-0.2,0.2-0.5,0.2-0.9-0.1c-0.7-0.6-1.6-0.2-2.6,1c-0.3,0.4-0.5,0.6-0.8,0.8c-0.3,0.2-0.8,0.2-1.4,0.2
		c-0.6,0-1.1-0.2-1.5-0.5c-0.4-0.3-0.7-0.6-1-0.9c-0.5-0.6-1.4-0.9-2.6-0.7c-0.7,0.1-1.3-0.2-1.8-0.9c-0.1-0.1-0.2-0.3-0.2-0.5
		c0-0.3-0.1-0.6-0.2-0.9c-0.2-0.9-0.4-1.4-0.6-1.7c-0.2-0.2-0.3-0.6-0.3-1c0-0.4-0.1-0.8-0.1-1.3c-0.1-0.4-0.1-0.8-0.1-1
		c0-0.2,0-0.5,0.1-0.8C102.1,126.4,102.2,126,102.2,125.7z"/>
	<path class="st12" d="M141.7,98.3c0.4,0,0.9,0.3,1.5,1c0.3,0.4,0.4,0.9,0.4,1.4c0,1.1-0.4,2-1.1,2.8c-0.8,0.8-1.3,1.5-1.5,2
		c-0.3,0.5-0.4,1.1-0.4,1.6c0,0.5-0.1,1-0.2,1.3c-0.1,0.4-0.2,0.7-0.4,1c-0.4,0.8-1,1.2-1.8,1.4c-0.2,0.8-0.5,1.4-0.9,2
		c-0.4,0.6-0.7,1-0.8,1.2c-0.1,0.2-0.2,0.4-0.3,0.6c-0.2,0.4-0.4,0.8-0.6,1.1c-0.2,4-0.3,6.9-0.2,8.6c0.1,2.7-0.4,4.6-1.4,5.8
		c-0.4,0.5-0.6,1.3-0.7,2.4c-0.1,1.1-0.3,1.8-0.4,2.2c-0.1,0.4-0.4,0.6-0.8,0.7c-0.4,0-0.7,0-1-0.2c-0.3-0.2-0.5-0.4-0.7-0.6
		c-0.2-0.3-0.3-0.5-0.5-0.8c-0.1-0.3-0.4-0.6-0.7-0.9c-0.3-0.3-0.5-0.9-0.5-1.6c0-0.7,0-1.4,0.1-2c0-0.6,0-1.1-0.1-1.4
		s-0.3-0.7-0.5-1s-0.4-0.6-0.6-0.9c-0.4-0.6-0.6-1.3-0.5-2.1s0.2-1.4,0.2-1.9c0.2-1.4,0.3-2.2,0.3-2.6c-0.1-0.9-0.1-1.9,0.1-3.1
		c-0.3-0.5-0.5-0.9-0.6-1.4c-0.2-0.9-0.6-1.4-1.1-1.5c-1-0.3-1.7-1.1-2.1-2.4c-0.3-1-0.4-1.7-0.2-2s0.2-0.5,0.3-0.6
		c0.1-0.3-0.4-0.9-1.6-1.9c-0.6-0.5-1-1.1-1.3-1.8c-0.2-0.7-0.5-1.3-0.8-1.8c-0.3-0.5-0.6-0.9-0.8-1.4c-0.5-0.9-0.7-1.7-0.4-2.4
		c0.3-0.5,0.8-0.8,1.5-0.9c0.7-0.1,1.5,0,2.2,0.2c0.7,0.2,1.3,0.4,1.8,0.4c0.5,0,1,0,1.4,0c0.4,0,0.8,0,1.2,0c0.3,0,0.6,0,0.8,0
		c0.1,0.3,0.3,0.6,0.6,0.8c0.3,0.3,0.5,0.6,0.6,1.1c0.1,0.5,0.2,1.1,0.2,1.8c0,0.8,0.2,1.4,0.5,1.9c0.3,0.5,0.5,1,0.6,1.4
		c0.1,0.4,0.1,0.8,0.2,1.2c0,0.4,0.1,0.7,0.2,1c0.1,0.3,0.2,0.4,0.4,0.5c0.2,0.1,0.4-0.1,0.5-0.4c0.1-0.3,0.2-0.7,0.3-1.2
		c0.3-1.5,0.6-2.5,1-3c0.4-0.6,0.7-1.3,0.9-2.3c0.1-1,0.3-1.7,0.4-2.1c0.1-0.4,0.3-0.8,0.6-1.1c0.3-0.3,0.8-0.4,1.5-0.3
		s1.5,0.2,2.3,0.3c0.8,0.1,1.5,0.1,2-0.1C141,98.4,141.4,98.3,141.7,98.3z"/>
	<path class="st12" d="M146.8,135.6c-0.3,0.1-0.7,0.1-1.1-0.1c-0.4-0.1-0.7-0.4-0.9-0.8c-0.2-0.4-0.3-0.9-0.3-1.4s-0.1-1.1,0-1.8
		c0-0.6,0-1.2,0-1.8c0-1.3-0.2-2.2-0.6-2.5c-0.9-0.7-1.3-2.3-1.1-5.1c0.2-1.6,0.3-2.8,0.5-3.7c0.3-1.5,0.5-2.8,0.5-3.9
		c0-1.1,0-1.9,0.1-2.5c0.1-0.6,0.2-1.1,0.3-1.5c0.1-0.4,0.3-0.8,0.4-1.2c0.2-0.4,0.3-1.1,0.4-2.1c0.3-2.5,0.6-4,0.9-4.6
		c0.4-0.8,0.8-1.7,1.3-2.6c0.5-0.9,0.9-1.5,1.3-1.8c0.8-0.6,1.8-0.6,3.3-0.1c1.1,0.4,2,0.5,2.9,0.3c0.9-0.1,1.6-0.2,2.1-0.2
		c0.5,0,1,0.2,1.6,0.5c0.6,0.3,1.1,0.8,1.4,1.2c0.3,0.5,0.6,1,0.7,1.6c0.2,1,0.2,2.2,0,3.6c-0.2,1.5-0.3,2.7-0.2,3.6
		c0,0.9,0.2,1.8,0.6,2.6c0.3,0.8,0.6,1.5,0.7,1.9c0.1,0.5,0.2,1,0.3,1.4c0.1,0.5,0.1,1,0.2,1.5c0,0.5,0.1,1.2,0.3,1.9
		c0.1,0.7,0.2,1.2,0.2,1.7c0,0.4,0,0.8,0,1c0,0.3-0.1,0.5-0.1,0.7c0,0.2,0,0.5,0,1c0.1,0.4,0.1,0.9,0,1.5c-0.1,0.5-0.2,1-0.3,1.5
		c-0.4,1.5-0.5,2.6-0.4,3.2c0.1,1.1,0.1,1.9,0,2.4s-0.3,0.9-0.4,1.2c-0.1,0.3-0.2,0.7-0.4,1.2c-0.1,0.5-0.5,1-0.9,1.4
		c-0.5,0.4-0.9,0.6-1.3,0.4c-0.4-0.2-0.7-0.4-0.8-0.7c-0.1-0.3-0.2-0.6-0.3-1c-0.1-0.3-0.2-0.6-0.3-0.9c-0.1-0.3-0.3-0.4-0.6-0.4
		c-0.5-0.1-0.8-0.4-0.8-0.9c0-0.5,0-1,0-1.4c0-0.4,0-0.8-0.1-1.3c-0.1-0.4-0.3-0.8-0.5-1.2c-0.6-1-1.3-1.6-2.1-1.7
		c-1.2-0.2-2,0.4-2.5,1.7c-0.1,0.3-0.2,0.8-0.2,1.3c0,0.5-0.2,1-0.4,1.5c-0.2,0.4-0.4,0.8-0.7,1.1c-0.2,0.3-0.5,0.6-0.7,0.8
		c-0.2,0.2-0.4,0.6-0.4,0.9C148.3,134.6,147.7,135.4,146.8,135.6z M151.2,114.8c-0.7,1.8-0.7,3.2-0.2,4.3c0.3,0.6,0.8,0.9,1.3,0.9
		c1,0.1,1.5,0,1.7-0.2c0.2-0.2,0.4-0.5,0.6-0.8c0.2-0.3,0.3-0.7,0.3-1.3c-0.1-0.6-0.1-1.1-0.1-1.5c0-0.4-0.2-0.9-0.5-1.5
		c-0.3-0.6-0.5-1.2-0.6-1.8c-0.1-0.6-0.2-1.3-0.2-1.9c-0.1-1.3-0.4-2-0.9-2c-0.3,0-0.5,0.2-0.6,0.5c-0.1,0.3-0.1,0.8-0.2,1.4
		C151.8,112.6,151.6,113.9,151.2,114.8z"/>
	<path class="st12" d="M178.4,99.4l1.6-0.1c1.1,0,1.9,0.2,2.4,0.5c0.5,0.4,0.8,0.7,1.1,1c0.2,0.3,0.5,0.6,0.7,0.9
		c0.2,0.3,0.5,0.6,0.8,1c0.3,0.3,0.5,0.7,0.5,1.2c0,0.4,0.1,0.8,0.4,1.1c0.2,0.3,0.4,0.7,0.4,1.3c0,0.6,0,1.2,0,1.7s-0.1,1-0.2,1.3
		c-0.1,0.3-0.1,0.7-0.1,1s0.1,0.7,0.2,0.9c0.1,0.3,0.2,1,0,2c-0.1,1.1-0.3,2.2-0.5,3.2c-0.2,1.1-0.6,2-1,2.8
		c-0.8,1.5-2.1,2.7-3.9,3.5c0.2,0.4,0.4,0.8,0.6,1.3s0.4,1,0.6,1.5c0.4,1.2,0.6,2.1,0.6,2.6s0,0.9,0.1,1.2c0,0.2,0.1,0.4,0.2,0.6
		c0.1,0.1,0.2,0.2,0.3,0.3c0.1,0.1,0.3,0.2,0.5,0.4c0.2,0.2,0.4,0.5,0.5,0.9c0.1,0.4,0.2,0.9,0.2,1.3c0,1.1-0.1,1.7-0.4,2
		c-0.2,0.2-0.5,0.4-0.8,0.5c-0.3,0.1-0.6,0.1-0.9,0.2c-0.8,0.1-1.2,0-1.4-0.3c-0.3-0.3-0.4-0.5-0.4-0.8c0-0.3-0.1-0.5-0.2-0.7
		c-0.1-0.2-0.2-0.3-0.4-0.4s-0.3-0.3-0.4-0.6c-0.1-0.4-0.2-0.6-0.3-0.7c-0.1-0.1-0.5-0.1-0.9-0.1c-0.8,0.2-1.4-0.3-1.8-1.5
		c-0.1-0.3-0.2-0.6-0.3-1c-0.1-0.4-0.2-0.8-0.3-1.2c-0.3-1-0.6-1.5-0.9-1.6c-0.3-0.1-0.6,0-0.8,0.1c-0.2,0.2-0.3,0.4-0.4,0.7
		c-0.1,0.3-0.1,0.6-0.1,0.9s0,0.7,0.1,1.1s0.1,0.7,0,1c-0.1,0.3-0.2,0.5-0.3,0.6c-0.1,0.2-0.2,0.3-0.4,0.4c-0.3,0.2-0.4,0.5-0.5,1
		c0,0.5-0.1,0.9-0.2,1.3c-0.2,0.9-0.5,1.5-0.8,1.7c-0.3,0.2-0.7,0.4-1,0.4c-0.3,0-0.7,0-1,0c-0.8-0.2-1.3-0.5-1.5-0.9
		c-0.2-0.4-0.3-0.7-0.3-0.9s0-0.4,0-0.6c0-0.2,0-0.4,0.1-0.6c0-0.2,0-0.5,0-0.8c0-0.3-0.1-0.7-0.2-1.3s-0.2-1.2-0.2-1.9l0-1.3
		c0-0.1,0.1-0.4,0.3-0.7c0.2-0.3,0.3-0.7,0.2-1.1c-0.1-0.4-0.3-0.7-0.6-0.8c-0.3-0.1-0.4-0.3-0.4-0.4c0-0.2,0-0.6,0.1-1.2
		c0.1-0.7,0-1.5-0.1-2.5c-0.1-1-0.2-1.9-0.2-2.6c-0.1-1.7-0.4-2.6-0.9-2.8c-0.4-0.2-0.7-0.5-0.8-0.8c-0.1-0.3-0.1-0.7,0-1.1
		c0.1-0.4,0.1-0.9,0.2-1.5c0.1-0.6,0.2-1.2,0.3-1.8c0.1-0.6,0.2-1.2,0.3-1.7c0.1-0.5,0.1-0.9,0.2-1.1c0-0.2,0-0.4,0-0.6
		c0-0.2,0-0.4,0-0.5c-0.1-0.5-0.1-1,0-1.4c0.1-0.8,0.2-1.3,0.1-1.6c-0.1-0.3,0-0.8,0.2-1.4c0.2-0.6,0.3-1.1,0.5-1.4
		c0.1-0.3,0.4-0.5,0.7-0.6c0.4-0.1,0.7-0.3,1.1-0.6s0.7-0.5,1-0.7c0.3-0.2,0.6-0.5,0.8-0.7c0.2-0.2,0.5-0.4,0.8-0.5
		c1-0.2,1.7-0.2,2.1-0.1c0.4,0.1,0.8,0.3,1,0.5c0.2,0.2,0.4,0.3,0.7,0.5c0.3,0.2,0.6,0.3,0.9,0.4c0.3,0.1,0.6,0.1,0.9,0.1
		c0.7,0.1,1.1,0.2,1.3,0.3C178,99.3,178.2,99.4,178.4,99.4z M174.3,113.2l0.3,4.5c0,0.3,0,0.6,0,0.9c0,0.3-0.1,0.5-0.1,0.8
		c0,0.5,0.1,0.8,0.5,0.9c0.3,0.1,0.6,0,0.8-0.3c0.2-0.2,0.4-0.6,0.5-1c0.4-0.8,0.5-1.4,0.4-1.6c-0.3-0.3-0.3-0.6-0.2-0.9
		c0.1-0.2,0.4-0.7,0.7-1.5c0.4-0.7,0.7-1.4,0.8-1.9c0.2-0.5,0.2-1.1,0.1-1.7c-0.1-0.6-0.1-1-0.1-1.3v-0.5c0-0.3-0.1-0.5-0.4-0.7
		c-0.2-0.2-0.4-0.3-0.5-0.3c-0.1,0-0.2,0-0.2,0c-0.3,0.1-0.6,0-0.8-0.1c-0.3-0.1-0.5-0.2-0.7-0.1c-0.2,0-0.5,0.2-0.8,0.5
		c-0.3,0.3-0.5,0.6-0.5,0.9c0,0.3,0,0.7,0,1.1C174.2,112,174.3,112.8,174.3,113.2z"/>
	<path class="st12" d="M196.8,134.8c-1.3,1-2.4,1.5-3.4,1.5c-0.4,0-0.9-0.1-1.4-0.4c-0.5-0.3-0.8-0.6-0.9-0.9s-0.2-0.8-0.2-1.2
		c0-0.4,0-0.9,0-1.5c0-0.9-0.1-1.7-0.4-2.4c-0.3-0.7-0.5-1.3-0.6-1.6c-0.2-0.7-0.2-1.7-0.1-3c0-1,0-1.6-0.1-1.9
		c-0.1-0.2-0.1-0.4-0.1-0.6s0.1-0.9,0.2-2.1c0.4-2.8,0.2-4.3-0.5-4.4c-0.4-0.1-0.5-0.1-0.5-0.2s-0.1-0.3-0.3-0.7s-0.3-0.6-0.4-0.8
		c0-0.2-0.1-0.5-0.1-0.9c0-0.4,0-0.8,0.1-1.2c0.1-0.4,0.2-0.7,0.3-1.1c0.9-2.5,1.3-4.6,1-6.3c-0.4-1.9-0.5-3.2-0.4-4
		c0.1-0.8,0.3-1.3,0.5-1.7c0.2-0.3,0.5-0.6,0.9-0.9c0.3-0.3,0.7-0.5,1.2-0.7c1-0.3,1.9-0.2,2.6,0.2c0.7,0.5,1.4,0.8,2.1,0.9
		c0.6,0.1,1.2,0.2,1.8,0.2c1.5,0.1,2.3,0.3,2.7,0.5c0.3,0.3,0.7,0.5,1,0.6c0.3,0.1,0.6,0.3,0.8,0.4c0.7,0.3,1.1,0.6,1.2,0.9
		c0.1,0.3,0.3,0.6,0.5,0.8c0.2,0.2,0.5,0.5,0.7,0.8c0.6,0.8,1,1.6,1.1,2.4c0.1,0.6,0.2,1.1,0.2,1.5c0.1,0.4,0.1,0.8,0.2,1.2
		c0.3,1.3,0.6,2.4,1,3.4c0.8,2,1,3.6,0.6,4.7l-0.1,0.2c0.3,0.7,0.3,1.4,0.1,2.1c-0.2,0.7-0.3,1.3-0.4,1.6c-0.1,0.3-0.2,0.7-0.3,1.1
		c-0.1,0.4-0.3,0.9-0.4,1.5c-0.2,0.6-0.3,1.1-0.5,1.6c-0.2,0.4-0.3,0.9-0.5,1.2c-0.4,0.7-1.4,1.9-3.1,3.7c-0.5,0.5-0.9,1.1-1.1,1.6
		c-0.2,0.5-0.5,0.9-0.9,1.2c-0.5,1-1,1.6-1.3,1.8C199,134.8,198,134.9,196.8,134.8z M196.1,112.9l0.1,2.8c0.1,0.8,0,1.5-0.1,2.2
		c-0.2,0.7-0.2,1.4-0.1,2.2c0.1,0.8,0.1,1.4,0.1,1.9c-0.1,0.5,0,1,0.1,1.3c0.1,0.3,0.2,0.7,0.1,1s-0.1,0.7-0.1,1
		c-0.1,0.9,0.1,1.3,0.5,1.4c0.3,0,0.5-0.1,0.7-0.4c0.2-0.3,0.4-0.6,0.6-1.1c0.3-0.7,0.5-1.6,0.7-2.7c0.1-0.5,0.2-1,0.5-1.5
		c0.5-1,0.7-1.7,0.7-2.2s0-0.7,0-0.8c0-0.1,0.1-0.2,0.1-0.4c0-0.1,0.1-0.3,0.2-0.4c0.1-0.2,0.1-0.5,0.2-0.9c0.1-0.4,0-1-0.2-1.7
		c-0.2-0.7-0.5-1.2-1-1.7c-0.5-0.4-0.9-0.8-1.1-1.1c-0.2-0.3-0.4-0.6-0.5-0.8c-0.3-0.5-0.6-0.6-0.9-0.4
		C196.3,111.1,196.1,111.8,196.1,112.9z"/>
</g>
<g>
	<path class="st13" d="M29,57c0.2,1.5,0.2,2.7,0.1,3.8l-0.3,2.4c-0.1,0.6-0.1,1.3,0,2.2c0,0.9,0,1.5-0.3,1.9
		c-0.2,0.4-0.6,0.6-1.2,0.7c-0.5,0.1-1,0.1-1.3-0.1c-0.3-0.1-0.6-0.3-0.9-0.5c-0.7-0.4-1.2-0.4-1.6-0.1c-0.4,0.3-0.7,0.7-0.9,1.2
		c-0.2,0.5-0.3,1.1-0.3,1.8c-0.1,1-0.1,2.4,0,4c0,0.6,0,1.1,0,1.4c0,0.3,0,0.7,0,0.9c0,0.6,0.1,1.2,0.3,1.8c0.2,0.6,0.3,1,0.3,1.3
		c0,0.3,0,0.5-0.1,0.7c-0.1,0.2-0.2,0.3-0.4,0.4c-0.2,0.1-0.3,0.2-0.4,0.3c-0.1,0.1-0.3,0.2-0.4,0.3c-0.1,0.1-0.3,0.2-0.5,0.4
		c0.2,1.6,0.2,2.9,0.1,3.8s-0.2,1.7-0.2,2.4c0,0.7-0.2,1.2-0.5,1.5c-0.4,0.5-1.2,0.8-2.4,1c-0.7,0-1.2-0.3-1.5-1.1
		c-0.3-0.7-0.5-1.6-0.4-2.7c0-1.1,0-1.9-0.1-2.5c-0.1-0.6-0.2-1.1-0.4-1.5c-0.1-0.4-0.3-0.8-0.4-1.1c-0.1-0.3-0.2-0.8-0.3-1.3
		c-0.1-0.6,0-1.2,0.2-1.8c-0.5-0.5-0.8-1.1-0.9-1.7c-0.2-0.6-0.1-1.4,0.1-2.4c0.2-1,0.4-1.9,0.4-2.6c0.1-0.8,0.1-1.5,0.1-2.2
		c-0.1-1.5-0.4-2.4-1-2.6c-0.5-0.1-1,0-1.5,0.3c-0.5,0.4-1,0.6-1.3,0.7c-0.3,0.1-0.6,0-0.9-0.2c-0.3-0.2-0.4-0.5-0.4-0.8
		c0-0.3,0.1-0.7,0.2-1.1c0.1-0.4,0.2-0.8,0.3-1.1c0.1-0.4,0.1-0.7-0.1-1c-0.1-0.3-0.3-0.5-0.5-0.6s-0.4-0.3-0.5-0.5
		c-0.4-0.5-0.5-1.5-0.3-2.8C9,59,9.1,57.9,9.2,57c0.1-0.9,0.2-1.5,0.2-1.9c0-0.4,0.2-0.8,0.3-1.1c0.2-0.3,0.4-0.6,0.7-0.9
		c0.8-0.6,1.9-0.8,3.2-0.6c6.1,0.8,9.5,1.1,10.4,0.8c0.3-0.1,0.6-0.2,0.9-0.3C27.2,52.1,28.6,53.4,29,57z"/>
	<path class="st13" d="M43.7,83.5l0-3.8v-1.2c0-1-0.1-1.6-0.3-1.9c-0.3-0.5-0.8-0.7-1.4-0.7c-0.6,0-1.1,0.2-1.4,0.6
		c-0.3,0.4-0.4,0.8-0.5,1.3c0,0.5-0.1,1.1-0.1,1.7c0,0.6,0,1.3,0,2c-0.1,1.5-0.1,2.6,0,3.4c0.1,0.8,0.1,1.3,0,1.5
		c-0.1,0.2-0.3,0.4-0.5,0.6c-0.3,0.2-0.5,0.5-0.6,0.8c-0.2,0.3-0.3,0.7-0.4,1.1c-0.4,0.9-0.8,1.3-1.2,1.3c-1.3,0.1-2.4-0.6-3.3-2.1
		c-0.2-0.4-0.5-0.7-0.8-1c-0.7-0.8-0.8-2-0.4-3.7c0.2-0.8,0.2-1.6,0.2-2.5s0-1.4-0.1-1.8c-0.1-0.4-0.1-0.8,0-1.2
		c0.1-0.4,0-0.8-0.1-1.2c-0.2-0.3-0.2-0.8-0.2-1.4c0-0.6,0-1-0.1-1.5c-0.1-0.4-0.1-0.8-0.1-1.1c0.1-0.3,0-0.6-0.1-0.8
		c-0.1-0.2-0.2-0.5-0.1-0.9c0-0.4,0.1-0.8,0.1-1.2c0.1-1.2,0-2.1-0.4-2.7c-0.4-0.6-0.7-1.4-1-2.2c-0.3-0.8-0.2-1.8,0.1-3
		c0.6-1.7,0.7-3.7,0.5-5.8c-0.1-0.5,0-1.1,0.3-1.8c0.4-1.1,1.8-1.7,4.2-1.8c0.8,0,1.4-0.1,2.1-0.3c0.6-0.2,1.2-0.2,1.8,0
		c0.6,0.1,1,0.5,1.1,1.2c0.1,0.6,0.2,1.1,0.3,1.3c0.1,0.2,0.1,0.5,0.2,0.7c0.1,0.4,0,1.1-0.2,2.1s-0.3,1.7-0.3,2.4
		c0,0.6,0,1.3,0,1.9c0.1,1.5,0,2.5-0.2,3.1c-0.2,0.6-0.2,1.1-0.2,1.4c0.1,0.3,0.2,0.6,0.4,0.8c0.7,0.6,1.6,0.5,2.7-0.2
		c0.2-0.1,0.3-0.3,0.4-0.5c-0.2-0.9-0.3-2.1-0.3-3.4c0-2-0.1-3.6-0.2-4.7s-0.1-2.1,0-2.8c0.1-0.8,0.5-1.5,1-2.1
		c0.6-0.7,1.1-0.9,1.6-0.9c0.5,0.1,0.9,0.3,1.2,0.6c0.3,0.3,0.6,0.5,0.9,0.4c0.3,0,0.6-0.2,1.1-0.5c1.2-0.7,2.4-0.3,3.4,1.3
		c-0.3,0.3-0.4,0.9-0.3,1.8c0.1,0.9,0.2,1.5,0.1,1.9c-0.1,0.4-0.2,0.9-0.2,1.6c0,0.7-0.1,1.3-0.1,2c0,0.6-0.1,1.5-0.3,2.5
		c-0.2,1.4-0.2,3.1,0,4.9c0.2,1.8,0.2,3.5,0.1,5c-0.1,1.5-0.2,2.7-0.1,3.7c0.1,1,0,1.7-0.1,2c-0.1,0.3-0.2,0.7-0.4,1
		c-0.5,1-0.8,1.9-0.8,2.9c-0.1,0.8-0.1,1.6-0.1,2.5c0,0.8-0.1,1.5-0.2,2.2c-0.3,1.4-1,2.1-2,2.1c-1.2,0-1.9-0.9-2-2.7
		c-0.8-0.2-1.4-0.6-1.9-1.2C43.9,85.8,43.7,84.8,43.7,83.5z"/>
	<path class="st13" d="M56.5,80.4l0-2.5c0-0.5,0-0.9,0-1.3c0-0.4,0-1-0.1-1.6c-0.2-1.1-0.2-1.9-0.2-2.4c0-0.5,0-0.9,0-1.2
		c0-0.3-0.1-0.6-0.1-0.9c-0.1-0.4-0.3-1-0.7-1.9c-0.4-0.9-0.6-1.8-0.6-2.8c0-1,0.2-1.8,0.6-2.4c0.4-0.6,0.5-1.2,0.4-1.8
		c-0.1-0.6-0.2-1.3-0.2-2c0-0.7-0.1-1.4,0-2.2c0-0.7,0.2-1.5,0.5-2.2c0.7-1.7,2.2-2.5,4.4-2.4c1.4,0,2.5,0.2,3.5,0.4
		c1,0.2,1.7,0.3,2.2,0.3c0.5,0,1.2-0.2,2.1-0.5c1.4-0.5,2.5-0.5,3.3,0.1c0.2,0.2,0.5,0.3,0.7,0.4c0.2,0.1,0.4,0.2,0.6,0.4
		c0.6,0.6,0.7,2,0.5,4.1c-0.1,0.6-0.1,1.3-0.2,1.9c-0.2,1.5-0.2,2.6,0,3.3c0.2,0.7,0.3,1.4,0.3,1.9c0,0.5,0,1-0.1,1.5
		c-0.2,1-0.6,1.4-1.1,1.4c-0.5,0-0.9-0.2-1.1-0.5c-0.2-0.3-0.4-0.6-0.5-0.9c-0.1-0.3-0.3-0.7-0.4-0.9c-0.1-0.3-0.5-0.4-1-0.4
		c-1.5,0-2.4-0.2-2.9-0.5c-0.5-0.3-0.9-0.5-1.3-0.5c-0.4,0-0.7,0-1,0.1c-0.7,0.3-1.1,0.8-1.2,1.6c-0.1,0.8-0.2,1.5-0.2,2.1
		c0,0.6,0,1.1,0,1.6c0.1,1.2,0.3,1.8,0.7,2c0.4,0.1,0.7,0.2,1,0c0.3-0.1,0.5-0.3,0.8-0.4c0.8-0.5,1.6-0.8,2.5-0.8
		c0.8,0,1.5,0.4,1.9,1c0.4,0.7,0.6,1.3,0.5,1.9c-0.1,0.6-0.1,1.2-0.2,1.8s-0.1,1.2-0.2,1.7c-0.5,2-1.4,2.4-2.9,1.2
		c-1.9-0.1-3.1,0.1-3.5,0.7c-0.1,0.2-0.2,0.5-0.3,1c-0.1,0.5-0.1,1.1,0,1.7c0.2,1.6,0.9,2.4,2.2,2.5c0.9,0.1,1.6,0,2.4-0.3
		c0.7-0.3,1.2-0.6,1.4-1c0.2-0.4,0.4-0.6,0.7-0.7c0.3,0,0.6-0.1,0.8-0.1c0.2,0,0.5-0.1,0.7-0.1s0.5,0,0.7,0.1
		c0.6,0.2,0.9,0.7,1.1,1.4c0.1,0.7,0,1.4-0.2,2c-0.3,0.6-0.4,1.1-0.5,1.6c-0.1,0.5-0.2,0.8-0.2,1.1c-0.1,0.2-0.3,0.5-0.6,0.9
		c-0.3,0.3-0.6,0.6-0.7,0.9c-0.2,0.2-0.5,0.2-0.9-0.1c-0.7-0.6-1.6-0.2-2.6,1c-0.3,0.4-0.5,0.6-0.8,0.8c-0.3,0.2-0.8,0.2-1.4,0.2
		c-0.6,0-1.1-0.2-1.5-0.5c-0.4-0.3-0.7-0.6-1-0.9c-0.5-0.6-1.4-0.9-2.6-0.7c-0.7,0.1-1.3-0.2-1.8-0.9c-0.1-0.1-0.2-0.3-0.2-0.5
		c0-0.3-0.1-0.6-0.2-0.9c-0.2-0.9-0.4-1.4-0.6-1.7c-0.2-0.2-0.3-0.6-0.3-1c0-0.4-0.1-0.8-0.1-1.3c-0.1-0.4-0.1-0.8-0.1-1
		c0-0.2,0-0.5,0.1-0.8C56.5,81.1,56.5,80.8,56.5,80.4z"/>
	<path class="st13" d="M22,123c-0.9,0-1.4-0.4-1.3-1.3c0.1-0.7,0-1.3,0-1.7c-0.2-0.7-0.2-1.3-0.1-1.6c0.3-1,1.3-1.2,3.2-0.7
		c0.3,0.1,0.6,0.1,0.8,0.1s0.4,0,0.6,0c0.6-0.1,1.1-0.1,1.6,0c0.5,0.1,0.9,0.1,1.3,0.1c0.4,0,0.7-0.1,1-0.1c0.3-0.1,0.6-0.1,0.9-0.2
		c0.3-0.1,0.5-0.1,0.7-0.1c0.3,0,0.6,0.3,0.7,0.8c0.1,0.5,0.2,1.1,0.2,1.8c-0.1,1.7-0.5,2.7-1.2,2.9c-0.5,0.2-1,0.5-1.4,0.9
		c-0.4,0.4-0.6,1.1-0.5,1.9c0.1,0.8,0.2,1.5,0.2,2c0,0.5,0,0.9,0,1.2c0,0.3,0,0.6,0,0.9c0,0.2,0,0.6,0,0.9c0,0.4,0,0.9,0,1.5
		c-0.1,0.6-0.2,1.2-0.5,1.7c-0.6,1.2-1.3,1.6-2.1,1.3c-0.6-0.2-1.2-0.7-1.8-1.6c-0.2-0.3-0.4-0.6-0.6-0.8c-0.2-0.2-0.4-0.3-0.7-0.2
		c-0.3,0.1-0.6,0.2-0.8,0.5c-0.2,0.2-0.4,0.5-0.7,0.8c-1.4,1.7-3.2,2-5.3,0.7c-1.1-0.6-1.8-1.3-2.3-2.2c-0.2-0.4-0.3-0.8-0.5-1.3
		c-0.2-0.5-0.4-1-0.6-1.4c-0.5-1.1-1-1.8-1.5-2.2c-0.5-0.4-0.7-2.1-0.8-5.3c0-0.7,0-1.3,0-1.8c0.1-0.5,0.1-1.2,0.1-2v-2.3
		c0-0.7,0-1.4,0-2.1c0-1.1,0.1-2,0.2-2.8c-1.1-0.7-1.5-2-1.2-4c0.2-1.3,0.4-2.2,0.7-2.7c0.3-0.6,0.6-1.2,0.7-1.7
		c0.2-0.6,0.4-1.2,0.6-1.8c0.2-0.6,0.5-1.1,0.8-1.3c0.4-0.2,0.6-0.4,0.7-0.5c0.1-0.1,0.2-0.3,0.3-0.4c0.6-0.9,2-1.6,4.1-1.9
		c0.9-0.2,1.8-0.1,2.7,0.2c0.9,0.3,1.6,0.5,2.2,0.6c0.6,0.1,1.2,0.1,1.7,0.1c2.3,0.1,3.8,0.6,4.5,1.4c0.5,0.6,0.8,1.1,0.9,1.7
		c0.1,0.6,0.3,1,0.5,1.4c0.2,0.3,0.3,0.7,0.2,1.1c-0.1,0.4-0.1,0.7,0,0.9c0,0.2,0,0.5-0.1,0.8c-0.1,0.3-0.2,0.5-0.3,0.8
		c-0.2,0.7-0.2,1.2,0.1,1.5c0.2,0.3,0.5,0.6,0.7,0.8s0.3,0.5,0.4,0.8c0.3,0.7,0.3,1.2,0.1,1.7c-0.2,0.5-0.5,0.9-0.8,1.3
		c-0.3,0.4-0.6,0.7-1.1,0.7c-1.2,0.1-1.9,0.3-2.3,0.6c-0.4,0.3-0.7,0.5-1,0.6c-0.7,0.3-1.3,0.3-1.8-0.1c-0.9-0.4-1.3-1.2-1.2-2.4
		c0.1-1.4-0.4-2.1-1.5-2.3c-0.5-0.1-1,0.1-1.5,0.4c-0.5,0.4-0.9,0.8-1.2,1.4c-0.7,1.6-0.8,3-0.2,4.3c0.1,0.3,0.2,0.7,0.2,1.2v1.3
		c0,0.8-0.1,1.3-0.3,1.7c-0.2,0.4-0.3,0.8-0.3,1.3c0,0.5,0,1,0,1.7c0,0.6,0.1,1.3,0.1,2c0.1,0.7,0.2,1.4,0.3,2c0.4,1.4,0.9,2,1.5,2
		c0.5,0,0.9-0.2,1.2-0.7c0.1-0.2,0.2-0.4,0.3-0.6c0.1-0.2,0.3-0.4,0.6-0.5c0.3-0.1,0.5-0.3,0.6-0.6c0.1-0.3,0.2-0.6,0.2-0.9
		c0-0.4,0-1.2-0.1-2.4C22.5,123,22.2,123,22,123z"/>
	<path class="st13" d="M46.5,99.4l1.6-0.1c1.1,0,1.9,0.2,2.4,0.5c0.5,0.4,0.8,0.7,1.1,1c0.2,0.3,0.5,0.6,0.7,0.9
		c0.2,0.3,0.5,0.6,0.8,1c0.3,0.3,0.5,0.7,0.5,1.2c0,0.4,0.1,0.8,0.4,1.1c0.2,0.3,0.4,0.7,0.4,1.3c0,0.6,0,1.2,0,1.7
		c0,0.5-0.1,1-0.2,1.3s-0.1,0.7-0.1,1s0.1,0.7,0.2,0.9s0.2,1,0,2c-0.1,1.1-0.3,2.2-0.5,3.2c-0.2,1.1-0.6,2-1,2.8
		c-0.8,1.5-2.1,2.7-3.9,3.5c0.2,0.4,0.4,0.8,0.6,1.3c0.2,0.5,0.4,1,0.6,1.5c0.4,1.2,0.6,2.1,0.6,2.6s0,0.9,0.1,1.2
		c0,0.2,0.1,0.4,0.2,0.6c0.1,0.1,0.2,0.2,0.3,0.3c0.1,0.1,0.3,0.2,0.5,0.4c0.2,0.2,0.4,0.5,0.5,0.9c0.1,0.4,0.2,0.9,0.2,1.3
		c0,1.1-0.1,1.7-0.4,2c-0.2,0.2-0.5,0.4-0.8,0.5c-0.3,0.1-0.6,0.1-0.9,0.2c-0.8,0.1-1.2,0-1.4-0.3c-0.3-0.3-0.4-0.5-0.4-0.8
		c0-0.3-0.1-0.5-0.2-0.7s-0.2-0.3-0.4-0.4s-0.3-0.3-0.4-0.6c-0.1-0.4-0.2-0.6-0.3-0.7c-0.1-0.1-0.5-0.1-0.9-0.1
		c-0.8,0.2-1.4-0.3-1.8-1.5c-0.1-0.3-0.2-0.6-0.3-1c-0.1-0.4-0.2-0.8-0.3-1.2c-0.3-1-0.6-1.5-0.9-1.6c-0.3-0.1-0.6,0-0.8,0.1
		c-0.2,0.2-0.3,0.4-0.4,0.7c-0.1,0.3-0.1,0.6-0.1,0.9s0,0.7,0.1,1.1c0.1,0.4,0.1,0.7,0,1c-0.1,0.3-0.2,0.5-0.3,0.6s-0.2,0.3-0.4,0.4
		c-0.3,0.2-0.4,0.5-0.5,1c0,0.5-0.1,0.9-0.2,1.3c-0.2,0.9-0.5,1.5-0.8,1.7c-0.3,0.2-0.7,0.4-1,0.4s-0.7,0-1,0
		c-0.8-0.2-1.3-0.5-1.5-0.9c-0.2-0.4-0.3-0.7-0.3-0.9c0-0.2,0-0.4,0-0.6c0-0.2,0-0.4,0.1-0.6c0-0.2,0-0.5,0-0.8
		c0-0.3-0.1-0.7-0.2-1.3c-0.1-0.5-0.2-1.2-0.2-1.9l0-1.3c0-0.1,0.1-0.4,0.3-0.7c0.2-0.3,0.3-0.7,0.2-1.1c-0.1-0.4-0.3-0.7-0.6-0.8
		c-0.3-0.1-0.4-0.3-0.4-0.4c0-0.2,0-0.6,0.1-1.2c0.1-0.7,0-1.5-0.1-2.5c-0.1-1-0.2-1.9-0.2-2.6c-0.1-1.7-0.4-2.6-0.9-2.8
		c-0.4-0.2-0.7-0.5-0.8-0.8c-0.1-0.3-0.1-0.7,0-1.1c0.1-0.4,0.1-0.9,0.2-1.5c0.1-0.6,0.2-1.2,0.3-1.8c0.1-0.6,0.2-1.2,0.3-1.7
		c0.1-0.5,0.1-0.9,0.2-1.1c0-0.2,0-0.4,0-0.6c0-0.2,0-0.4,0-0.5c-0.1-0.5-0.1-1,0-1.4c0.1-0.8,0.2-1.3,0.1-1.6
		c-0.1-0.3,0-0.8,0.2-1.4c0.2-0.6,0.3-1.1,0.5-1.4c0.1-0.3,0.4-0.5,0.7-0.6c0.4-0.1,0.7-0.3,1.1-0.6s0.7-0.5,1-0.7
		c0.3-0.2,0.6-0.5,0.8-0.7c0.2-0.2,0.5-0.4,0.8-0.5c1-0.2,1.7-0.2,2.1-0.1c0.4,0.1,0.8,0.3,1,0.5c0.2,0.2,0.4,0.3,0.7,0.5
		c0.3,0.2,0.6,0.3,0.9,0.4c0.3,0.1,0.6,0.1,0.9,0.1c0.7,0.1,1.1,0.2,1.3,0.3C46.1,99.3,46.3,99.4,46.5,99.4z M42.4,113.2l0.3,4.5
		c0,0.3,0,0.6,0,0.9c0,0.3-0.1,0.5-0.1,0.8c0,0.5,0.1,0.8,0.5,0.9c0.3,0.1,0.6,0,0.8-0.3c0.2-0.2,0.4-0.6,0.5-1
		c0.4-0.8,0.5-1.4,0.4-1.6c-0.3-0.3-0.3-0.6-0.2-0.9c0.1-0.2,0.4-0.7,0.7-1.5c0.4-0.7,0.7-1.4,0.8-1.9c0.2-0.5,0.2-1.1,0.1-1.7
		c-0.1-0.6-0.1-1-0.1-1.3v-0.5c0-0.3-0.1-0.5-0.4-0.7c-0.2-0.2-0.4-0.3-0.5-0.3s-0.2,0-0.2,0c-0.3,0.1-0.6,0-0.8-0.1
		c-0.3-0.1-0.5-0.2-0.7-0.1c-0.2,0-0.5,0.2-0.8,0.5c-0.3,0.3-0.5,0.6-0.5,0.9c0,0.3,0,0.7,0,1.1C42.3,112,42.4,112.8,42.4,113.2z"/>
	<path class="st13" d="M60.1,135.6c-0.3,0.1-0.7,0.1-1.1-0.1c-0.4-0.1-0.7-0.4-0.9-0.8c-0.2-0.4-0.3-0.9-0.3-1.4
		c0-0.5-0.1-1.1,0-1.8c0-0.6,0-1.2,0-1.8c0-1.3-0.2-2.2-0.6-2.5c-0.9-0.7-1.3-2.3-1.1-5.1c0.2-1.6,0.3-2.8,0.5-3.7
		c0.3-1.5,0.5-2.8,0.5-3.9c0-1.1,0-1.9,0.1-2.5c0.1-0.6,0.2-1.1,0.3-1.5c0.1-0.4,0.3-0.8,0.4-1.2c0.2-0.4,0.3-1.1,0.4-2.1
		c0.3-2.5,0.6-4,0.9-4.6c0.4-0.8,0.8-1.7,1.3-2.6c0.5-0.9,0.9-1.5,1.3-1.8c0.8-0.6,1.8-0.6,3.3-0.1c1.1,0.4,2,0.5,2.9,0.3
		c0.9-0.1,1.6-0.2,2.1-0.2c0.5,0,1,0.2,1.6,0.5s1.1,0.8,1.4,1.2c0.3,0.5,0.6,1,0.7,1.6c0.2,1,0.2,2.2,0,3.6
		c-0.2,1.5-0.3,2.7-0.2,3.6c0,0.9,0.2,1.8,0.6,2.6c0.3,0.8,0.6,1.5,0.7,1.9c0.1,0.5,0.2,1,0.3,1.4c0.1,0.5,0.1,1,0.2,1.5
		c0,0.5,0.1,1.2,0.3,1.9s0.2,1.2,0.2,1.7c0,0.4,0,0.8,0,1c0,0.3-0.1,0.5-0.1,0.7c0,0.2,0,0.5,0,1c0.1,0.4,0.1,0.9,0,1.5
		c-0.1,0.5-0.2,1-0.3,1.5c-0.4,1.5-0.5,2.6-0.4,3.2c0.1,1.1,0.1,1.9,0,2.4c-0.1,0.5-0.3,0.9-0.4,1.2c-0.1,0.3-0.2,0.7-0.4,1.2
		c-0.1,0.5-0.5,1-0.9,1.4c-0.5,0.4-0.9,0.6-1.3,0.4c-0.4-0.2-0.7-0.4-0.8-0.7c-0.1-0.3-0.2-0.6-0.3-1c-0.1-0.3-0.2-0.6-0.3-0.9
		c-0.1-0.3-0.3-0.4-0.6-0.4c-0.5-0.1-0.8-0.4-0.8-0.9c0-0.5,0-1,0-1.4c0-0.4,0-0.8-0.1-1.3c-0.1-0.4-0.3-0.8-0.5-1.2
		c-0.6-1-1.3-1.6-2.1-1.7c-1.2-0.2-2,0.4-2.5,1.7c-0.1,0.3-0.2,0.8-0.2,1.3c0,0.5-0.2,1-0.4,1.5c-0.2,0.4-0.4,0.8-0.7,1.1
		c-0.2,0.3-0.5,0.6-0.7,0.8c-0.2,0.2-0.4,0.6-0.4,0.9C61.5,134.6,61,135.4,60.1,135.6z M64.5,114.8c-0.7,1.8-0.7,3.2-0.2,4.3
		c0.3,0.6,0.8,0.9,1.3,0.9c1,0.1,1.5,0,1.7-0.2c0.2-0.2,0.4-0.5,0.6-0.8c0.2-0.3,0.3-0.7,0.3-1.3c-0.1-0.6-0.1-1.1-0.1-1.5
		c0-0.4-0.2-0.9-0.5-1.5c-0.3-0.6-0.5-1.2-0.6-1.8s-0.2-1.3-0.2-1.9c-0.1-1.3-0.4-2-0.9-2c-0.3,0-0.5,0.2-0.6,0.5
		c-0.1,0.3-0.1,0.8-0.2,1.4C65.1,112.6,64.9,113.9,64.5,114.8z"/>
	<path class="st13" d="M86.1,102.3c0.6,0.8,0.9,2,0.8,3.7c0,0.9,0.1,1.6,0.3,2.1l0.5,1.3c0.2,0.6,0.4,1.8,0.6,3.5c0,0.7,0.2,1,0.6,1
		c0.2,0,0.4-0.4,0.4-1.3c0.1-1.7,0.2-3.1,0.5-4c0.3-1,0.5-1.8,0.6-2.5c0.1-0.7,0.2-1.4,0.3-2.1c0.1-0.7,0.1-1.3,0.2-1.9
		c0-0.6,0.1-1.2,0.2-1.8c0.1-0.6,0.4-1.1,0.7-1.6c0.4-0.5,1-0.7,1.8-0.6c0.8,0,1.4,0.1,1.7,0.1c0.3,0,0.5,0.1,0.7,0.1
		c0.2,0,0.3,0.1,0.4,0.1c0.1,0,0.3,0.1,0.5,0.1c0.2,0,0.5,0,0.8,0c0.3,0,0.5,0,0.6,0c0.1,0,0.3,0.1,0.5,0.3c0.2,0.1,0.3,0.4,0.4,0.7
		c0.4,0.8,0.5,1.7,0.4,2.8c-0.1,1.1-0.2,1.8-0.4,2.2c-0.1,0.3-0.3,0.6-0.4,0.8c-0.1,0.2-0.3,0.4-0.5,0.5c-0.2,0.1-0.3,0.4-0.4,0.7
		c-0.1,0.3-0.2,0.8-0.3,1.4c-0.1,0.6-0.1,1.2-0.2,1.9c-0.2,2.5-0.6,4.1-1.1,5c-0.1,0.2-0.2,0.4-0.4,0.6c-0.8,1-1.2,1.9-1.4,2.6
		c-0.2,0.7-0.3,1.3-0.4,1.8c-0.5,2.6-1,4.8-1.5,6.4c-0.6,1.8-0.9,3-1,3.4c-0.2,1.4-0.7,2.4-1.5,3c-0.4,0.3-0.8,0.9-1.1,1.7
		c-0.3,0.9-0.6,1.5-0.8,1.8c-0.2,0.3-0.5,0.5-0.8,0.4c-0.4-0.1-0.6-0.3-0.7-0.7c-0.3-1.1-0.7-1.9-1.1-2.3c-0.4-0.4-0.7-1.1-1-1.9
		c-0.3-0.8-0.5-1.5-0.6-2.2c-0.1-0.7-0.2-1.4-0.3-2.1c-0.2-1.9-0.4-3.2-0.6-3.9c-0.4-1.7-0.8-2.7-1.2-3.1c-0.3-0.3-0.5-0.5-0.7-0.7
		c-0.2-0.2-0.4-0.4-0.6-0.5c-0.4-0.4-0.5-0.8-0.5-1.5c0-0.6,0.1-1.4,0.2-2.5c0.1-1,0-2.1-0.3-3c-0.3-1-0.5-1.8-0.6-2.3
		c-0.1-0.5-0.2-1.1-0.3-1.7c-0.3-1.2-0.7-2.4-1.4-3.7c-1.2-2.1-1.4-3.8-0.5-5.1c0.5-0.7,1.2-1.1,2.3-1.1h1.1c0.4,0,0.7-0.1,1-0.4
		c0.5-0.4,1.2-0.4,2.1,0.1c0.1,0,0.3,0,0.5,0c0.2,0,0.4,0,0.6,0.1C85.6,98.6,86.1,99.9,86.1,102.3z"/>
	<path class="st13" d="M102.2,125.7l0-2.5c0-0.5,0-0.9,0-1.3c0-0.4,0-1-0.1-1.6c-0.2-1.1-0.2-1.9-0.2-2.4c0-0.5,0-0.9,0-1.2
		c0-0.3-0.1-0.6-0.1-0.9c-0.1-0.4-0.3-1-0.7-1.9c-0.4-0.9-0.6-1.8-0.6-2.8s0.2-1.8,0.6-2.4c0.4-0.6,0.5-1.2,0.4-1.8
		c-0.1-0.6-0.2-1.3-0.2-2c0-0.7-0.1-1.4,0-2.2c0-0.7,0.2-1.5,0.5-2.2c0.7-1.7,2.2-2.5,4.4-2.4c1.4,0,2.5,0.2,3.5,0.4
		c1,0.2,1.7,0.3,2.2,0.3c0.5,0,1.2-0.2,2.1-0.5c1.4-0.5,2.5-0.5,3.3,0.1c0.2,0.2,0.5,0.3,0.7,0.4c0.2,0.1,0.4,0.2,0.6,0.4
		c0.6,0.6,0.7,2,0.5,4.1c-0.1,0.6-0.1,1.3-0.2,1.9c-0.2,1.5-0.2,2.6,0,3.3c0.2,0.7,0.3,1.4,0.3,1.9c0,0.5,0,1-0.1,1.5
		c-0.2,1-0.6,1.4-1.1,1.4c-0.5,0-0.9-0.2-1.1-0.5c-0.2-0.3-0.4-0.6-0.5-0.9s-0.3-0.7-0.4-0.9c-0.1-0.3-0.5-0.4-1-0.4
		c-1.5,0-2.4-0.2-2.9-0.5c-0.5-0.3-0.9-0.5-1.3-0.5c-0.4,0-0.7,0-1,0.1c-0.7,0.3-1.1,0.8-1.2,1.6c-0.1,0.8-0.2,1.5-0.2,2.1
		c0,0.6,0,1.1,0,1.6c0.1,1.2,0.3,1.8,0.7,2c0.4,0.1,0.7,0.2,1,0c0.3-0.1,0.5-0.3,0.8-0.4c0.8-0.5,1.6-0.8,2.5-0.8
		c0.8,0,1.5,0.4,1.9,1c0.4,0.7,0.6,1.3,0.5,1.9c-0.1,0.6-0.1,1.2-0.2,1.8c0,0.6-0.1,1.2-0.2,1.7c-0.5,2-1.4,2.4-2.9,1.2
		c-1.9-0.1-3.1,0.1-3.5,0.7c-0.1,0.2-0.2,0.5-0.3,1s-0.1,1.1,0,1.7c0.2,1.6,0.9,2.4,2.2,2.5c0.9,0.1,1.6,0,2.4-0.3
		c0.7-0.3,1.2-0.6,1.4-1c0.2-0.4,0.4-0.6,0.7-0.7s0.6-0.1,0.8-0.1c0.2,0,0.5-0.1,0.7-0.1c0.2,0,0.5,0,0.7,0.1
		c0.6,0.2,0.9,0.7,1.1,1.4c0.1,0.7,0,1.4-0.2,2c-0.3,0.6-0.4,1.1-0.5,1.6c-0.1,0.5-0.2,0.8-0.2,1.1c-0.1,0.2-0.3,0.5-0.6,0.9
		s-0.6,0.6-0.7,0.9c-0.2,0.2-0.5,0.2-0.9-0.1c-0.7-0.6-1.6-0.2-2.6,1c-0.3,0.4-0.5,0.6-0.8,0.8c-0.3,0.2-0.8,0.2-1.4,0.2
		c-0.6,0-1.1-0.2-1.5-0.5c-0.4-0.3-0.7-0.6-1-0.9c-0.5-0.6-1.4-0.9-2.6-0.7c-0.7,0.1-1.3-0.2-1.8-0.9c-0.1-0.1-0.2-0.3-0.2-0.5
		c0-0.3-0.1-0.6-0.2-0.9c-0.2-0.9-0.4-1.4-0.6-1.7c-0.2-0.2-0.3-0.6-0.3-1c0-0.4-0.1-0.8-0.1-1.3c-0.1-0.4-0.1-0.8-0.1-1
		c0-0.2,0-0.5,0.1-0.8C102.1,126.4,102.2,126,102.2,125.7z"/>
	<path class="st13" d="M141.7,98.3c0.4,0,0.9,0.3,1.5,1c0.3,0.4,0.4,0.9,0.4,1.4c0,1.1-0.4,2-1.1,2.8c-0.8,0.8-1.3,1.5-1.5,2
		c-0.3,0.5-0.4,1.1-0.4,1.6c0,0.5-0.1,1-0.2,1.3c-0.1,0.4-0.2,0.7-0.4,1c-0.4,0.8-1,1.2-1.8,1.4c-0.2,0.8-0.5,1.4-0.9,2
		c-0.4,0.6-0.7,1-0.8,1.2c-0.1,0.2-0.2,0.4-0.3,0.6c-0.2,0.4-0.4,0.8-0.6,1.1c-0.2,4-0.3,6.9-0.2,8.6c0.1,2.7-0.4,4.6-1.4,5.8
		c-0.4,0.5-0.6,1.3-0.7,2.4c-0.1,1.1-0.3,1.8-0.4,2.2c-0.1,0.4-0.4,0.6-0.8,0.7c-0.4,0-0.7,0-1-0.2c-0.3-0.2-0.5-0.4-0.7-0.6
		c-0.2-0.3-0.3-0.5-0.5-0.8c-0.1-0.3-0.4-0.6-0.7-0.9c-0.3-0.3-0.5-0.9-0.5-1.6c0-0.7,0-1.4,0.1-2c0-0.6,0-1.1-0.1-1.4
		s-0.3-0.7-0.5-1s-0.4-0.6-0.6-0.9c-0.4-0.6-0.6-1.3-0.5-2.1s0.2-1.4,0.2-1.9c0.2-1.4,0.3-2.2,0.3-2.6c-0.1-0.9-0.1-1.9,0.1-3.1
		c-0.3-0.5-0.5-0.9-0.6-1.4c-0.2-0.9-0.6-1.4-1.1-1.5c-1-0.3-1.7-1.1-2.1-2.4c-0.3-1-0.4-1.7-0.2-2s0.2-0.5,0.3-0.6
		c0.1-0.3-0.4-0.9-1.6-1.9c-0.6-0.5-1-1.1-1.3-1.8c-0.2-0.7-0.5-1.3-0.8-1.8c-0.3-0.5-0.6-0.9-0.8-1.4c-0.5-0.9-0.7-1.7-0.4-2.4
		c0.3-0.5,0.8-0.8,1.5-0.9c0.7-0.1,1.5,0,2.2,0.2c0.7,0.2,1.3,0.4,1.8,0.4c0.5,0,1,0,1.4,0c0.4,0,0.8,0,1.2,0c0.3,0,0.6,0,0.8,0
		c0.1,0.3,0.3,0.6,0.6,0.8c0.3,0.3,0.5,0.6,0.6,1.1c0.1,0.5,0.2,1.1,0.2,1.8c0,0.8,0.2,1.4,0.5,1.9c0.3,0.5,0.5,1,0.6,1.4
		c0.1,0.4,0.1,0.8,0.2,1.2c0,0.4,0.1,0.7,0.2,1c0.1,0.3,0.2,0.4,0.4,0.5c0.2,0.1,0.4-0.1,0.5-0.4c0.1-0.3,0.2-0.7,0.3-1.2
		c0.3-1.5,0.6-2.5,1-3c0.4-0.6,0.7-1.3,0.9-2.3c0.1-1,0.3-1.7,0.4-2.1c0.1-0.4,0.3-0.8,0.6-1.1c0.3-0.3,0.8-0.4,1.5-0.3
		s1.5,0.2,2.3,0.3c0.8,0.1,1.5,0.1,2-0.1C141,98.4,141.4,98.3,141.7,98.3z"/>
	<path class="st13" d="M146.8,135.6c-0.3,0.1-0.7,0.1-1.1-0.1c-0.4-0.1-0.7-0.4-0.9-0.8c-0.2-0.4-0.3-0.9-0.3-1.4s-0.1-1.1,0-1.8
		c0-0.6,0-1.2,0-1.8c0-1.3-0.2-2.2-0.6-2.5c-0.9-0.7-1.3-2.3-1.1-5.1c0.2-1.6,0.3-2.8,0.5-3.7c0.3-1.5,0.5-2.8,0.5-3.9
		c0-1.1,0-1.9,0.1-2.5c0.1-0.6,0.2-1.1,0.3-1.5c0.1-0.4,0.3-0.8,0.4-1.2c0.2-0.4,0.3-1.1,0.4-2.1c0.3-2.5,0.6-4,0.9-4.6
		c0.4-0.8,0.8-1.7,1.3-2.6c0.5-0.9,0.9-1.5,1.3-1.8c0.8-0.6,1.8-0.6,3.3-0.1c1.1,0.4,2,0.5,2.9,0.3c0.9-0.1,1.6-0.2,2.1-0.2
		c0.5,0,1,0.2,1.6,0.5c0.6,0.3,1.1,0.8,1.4,1.2c0.3,0.5,0.6,1,0.7,1.6c0.2,1,0.2,2.2,0,3.6c-0.2,1.5-0.3,2.7-0.2,3.6
		c0,0.9,0.2,1.8,0.6,2.6c0.3,0.8,0.6,1.5,0.7,1.9c0.1,0.5,0.2,1,0.3,1.4c0.1,0.5,0.1,1,0.2,1.5c0,0.5,0.1,1.2,0.3,1.9
		c0.1,0.7,0.2,1.2,0.2,1.7c0,0.4,0,0.8,0,1c0,0.3-0.1,0.5-0.1,0.7c0,0.2,0,0.5,0,1c0.1,0.4,0.1,0.9,0,1.5c-0.1,0.5-0.2,1-0.3,1.5
		c-0.4,1.5-0.5,2.6-0.4,3.2c0.1,1.1,0.1,1.9,0,2.4s-0.3,0.9-0.4,1.2c-0.1,0.3-0.2,0.7-0.4,1.2c-0.1,0.5-0.5,1-0.9,1.4
		c-0.5,0.4-0.9,0.6-1.3,0.4c-0.4-0.2-0.7-0.4-0.8-0.7c-0.1-0.3-0.2-0.6-0.3-1c-0.1-0.3-0.2-0.6-0.3-0.9c-0.1-0.3-0.3-0.4-0.6-0.4
		c-0.5-0.1-0.8-0.4-0.8-0.9c0-0.5,0-1,0-1.4c0-0.4,0-0.8-0.1-1.3c-0.1-0.4-0.3-0.8-0.5-1.2c-0.6-1-1.3-1.6-2.1-1.7
		c-1.2-0.2-2,0.4-2.5,1.7c-0.1,0.3-0.2,0.8-0.2,1.3c0,0.5-0.2,1-0.4,1.5c-0.2,0.4-0.4,0.8-0.7,1.1c-0.2,0.3-0.5,0.6-0.7,0.8
		c-0.2,0.2-0.4,0.6-0.4,0.9C148.3,134.6,147.7,135.4,146.8,135.6z M151.2,114.8c-0.7,1.8-0.7,3.2-0.2,4.3c0.3,0.6,0.8,0.9,1.3,0.9
		c1,0.1,1.5,0,1.7-0.2c0.2-0.2,0.4-0.5,0.6-0.8c0.2-0.3,0.3-0.7,0.3-1.3c-0.1-0.6-0.1-1.1-0.1-1.5c0-0.4-0.2-0.9-0.5-1.5
		c-0.3-0.6-0.5-1.2-0.6-1.8c-0.1-0.6-0.2-1.3-0.2-1.9c-0.1-1.3-0.4-2-0.9-2c-0.3,0-0.5,0.2-0.6,0.5c-0.1,0.3-0.1,0.8-0.2,1.4
		C151.8,112.6,151.6,113.9,151.2,114.8z"/>
	<path class="st13" d="M178.4,99.4l1.6-0.1c1.1,0,1.9,0.2,2.4,0.5c0.5,0.4,0.8,0.7,1.1,1c0.2,0.3,0.5,0.6,0.7,0.9
		c0.2,0.3,0.5,0.6,0.8,1c0.3,0.3,0.5,0.7,0.5,1.2c0,0.4,0.1,0.8,0.4,1.1c0.2,0.3,0.4,0.7,0.4,1.3c0,0.6,0,1.2,0,1.7s-0.1,1-0.2,1.3
		c-0.1,0.3-0.1,0.7-0.1,1s0.1,0.7,0.2,0.9c0.1,0.3,0.2,1,0,2c-0.1,1.1-0.3,2.2-0.5,3.2c-0.2,1.1-0.6,2-1,2.8
		c-0.8,1.5-2.1,2.7-3.9,3.5c0.2,0.4,0.4,0.8,0.6,1.3s0.4,1,0.6,1.5c0.4,1.2,0.6,2.1,0.6,2.6s0,0.9,0.1,1.2c0,0.2,0.1,0.4,0.2,0.6
		c0.1,0.1,0.2,0.2,0.3,0.3c0.1,0.1,0.3,0.2,0.5,0.4c0.2,0.2,0.4,0.5,0.5,0.9c0.1,0.4,0.2,0.9,0.2,1.3c0,1.1-0.1,1.7-0.4,2
		c-0.2,0.2-0.5,0.4-0.8,0.5c-0.3,0.1-0.6,0.1-0.9,0.2c-0.8,0.1-1.2,0-1.4-0.3c-0.3-0.3-0.4-0.5-0.4-0.8c0-0.3-0.1-0.5-0.2-0.7
		c-0.1-0.2-0.2-0.3-0.4-0.4s-0.3-0.3-0.4-0.6c-0.1-0.4-0.2-0.6-0.3-0.7c-0.1-0.1-0.5-0.1-0.9-0.1c-0.8,0.2-1.4-0.3-1.8-1.5
		c-0.1-0.3-0.2-0.6-0.3-1c-0.1-0.4-0.2-0.8-0.3-1.2c-0.3-1-0.6-1.5-0.9-1.6c-0.3-0.1-0.6,0-0.8,0.1c-0.2,0.2-0.3,0.4-0.4,0.7
		c-0.1,0.3-0.1,0.6-0.1,0.9s0,0.7,0.1,1.1s0.1,0.7,0,1c-0.1,0.3-0.2,0.5-0.3,0.6c-0.1,0.2-0.2,0.3-0.4,0.4c-0.3,0.2-0.4,0.5-0.5,1
		c0,0.5-0.1,0.9-0.2,1.3c-0.2,0.9-0.5,1.5-0.8,1.7c-0.3,0.2-0.7,0.4-1,0.4c-0.3,0-0.7,0-1,0c-0.8-0.2-1.3-0.5-1.5-0.9
		c-0.2-0.4-0.3-0.7-0.3-0.9s0-0.4,0-0.6c0-0.2,0-0.4,0.1-0.6c0-0.2,0-0.5,0-0.8c0-0.3-0.1-0.7-0.2-1.3s-0.2-1.2-0.2-1.9l0-1.3
		c0-0.1,0.1-0.4,0.3-0.7c0.2-0.3,0.3-0.7,0.2-1.1c-0.1-0.4-0.3-0.7-0.6-0.8c-0.3-0.1-0.4-0.3-0.4-0.4c0-0.2,0-0.6,0.1-1.2
		c0.1-0.7,0-1.5-0.1-2.5c-0.1-1-0.2-1.9-0.2-2.6c-0.1-1.7-0.4-2.6-0.9-2.8c-0.4-0.2-0.7-0.5-0.8-0.8c-0.1-0.3-0.1-0.7,0-1.1
		c0.1-0.4,0.1-0.9,0.2-1.5c0.1-0.6,0.2-1.2,0.3-1.8c0.1-0.6,0.2-1.2,0.3-1.7c0.1-0.5,0.1-0.9,0.2-1.1c0-0.2,0-0.4,0-0.6
		c0-0.2,0-0.4,0-0.5c-0.1-0.5-0.1-1,0-1.4c0.1-0.8,0.2-1.3,0.1-1.6c-0.1-0.3,0-0.8,0.2-1.4c0.2-0.6,0.3-1.1,0.5-1.4
		c0.1-0.3,0.4-0.5,0.7-0.6c0.4-0.1,0.7-0.3,1.1-0.6s0.7-0.5,1-0.7c0.3-0.2,0.6-0.5,0.8-0.7c0.2-0.2,0.5-0.4,0.8-0.5
		c1-0.2,1.7-0.2,2.1-0.1c0.4,0.1,0.8,0.3,1,0.5c0.2,0.2,0.4,0.3,0.7,0.5c0.3,0.2,0.6,0.3,0.9,0.4c0.3,0.1,0.6,0.1,0.9,0.1
		c0.7,0.1,1.1,0.2,1.3,0.3C178,99.3,178.2,99.4,178.4,99.4z M174.3,113.2l0.3,4.5c0,0.3,0,0.6,0,0.9c0,0.3-0.1,0.5-0.1,0.8
		c0,0.5,0.1,0.8,0.5,0.9c0.3,0.1,0.6,0,0.8-0.3c0.2-0.2,0.4-0.6,0.5-1c0.4-0.8,0.5-1.4,0.4-1.6c-0.3-0.3-0.3-0.6-0.2-0.9
		c0.1-0.2,0.4-0.7,0.7-1.5c0.4-0.7,0.7-1.4,0.8-1.9c0.2-0.5,0.2-1.1,0.1-1.7c-0.1-0.6-0.1-1-0.1-1.3v-0.5c0-0.3-0.1-0.5-0.4-0.7
		c-0.2-0.2-0.4-0.3-0.5-0.3c-0.1,0-0.2,0-0.2,0c-0.3,0.1-0.6,0-0.8-0.1c-0.3-0.1-0.5-0.2-0.7-0.1c-0.2,0-0.5,0.2-0.8,0.5
		c-0.3,0.3-0.5,0.6-0.5,0.9c0,0.3,0,0.7,0,1.1C174.2,112,174.3,112.8,174.3,113.2z"/>
	<path class="st13" d="M196.8,134.8c-1.3,1-2.4,1.5-3.4,1.5c-0.4,0-0.9-0.1-1.4-0.4c-0.5-0.3-0.8-0.6-0.9-0.9s-0.2-0.8-0.2-1.2
		c0-0.4,0-0.9,0-1.5c0-0.9-0.1-1.7-0.4-2.4c-0.3-0.7-0.5-1.3-0.6-1.6c-0.2-0.7-0.2-1.7-0.1-3c0-1,0-1.6-0.1-1.9
		c-0.1-0.2-0.1-0.4-0.1-0.6s0.1-0.9,0.2-2.1c0.4-2.8,0.2-4.3-0.5-4.4c-0.4-0.1-0.5-0.1-0.5-0.2s-0.1-0.3-0.3-0.7s-0.3-0.6-0.4-0.8
		c0-0.2-0.1-0.5-0.1-0.9c0-0.4,0-0.8,0.1-1.2c0.1-0.4,0.2-0.7,0.3-1.1c0.9-2.5,1.3-4.6,1-6.3c-0.4-1.9-0.5-3.2-0.4-4
		c0.1-0.8,0.3-1.3,0.5-1.7c0.2-0.3,0.5-0.6,0.9-0.9c0.3-0.3,0.7-0.5,1.2-0.7c1-0.3,1.9-0.2,2.6,0.2c0.7,0.5,1.4,0.8,2.1,0.9
		c0.6,0.1,1.2,0.2,1.8,0.2c1.5,0.1,2.3,0.3,2.7,0.5c0.3,0.3,0.7,0.5,1,0.6c0.3,0.1,0.6,0.3,0.8,0.4c0.7,0.3,1.1,0.6,1.2,0.9
		c0.1,0.3,0.3,0.6,0.5,0.8c0.2,0.2,0.5,0.5,0.7,0.8c0.6,0.8,1,1.6,1.1,2.4c0.1,0.6,0.2,1.1,0.2,1.5c0.1,0.4,0.1,0.8,0.2,1.2
		c0.3,1.3,0.6,2.4,1,3.4c0.8,2,1,3.6,0.6,4.7l-0.1,0.2c0.3,0.7,0.3,1.4,0.1,2.1c-0.2,0.7-0.3,1.3-0.4,1.6c-0.1,0.3-0.2,0.7-0.3,1.1
		c-0.1,0.4-0.3,0.9-0.4,1.5c-0.2,0.6-0.3,1.1-0.5,1.6c-0.2,0.4-0.3,0.9-0.5,1.2c-0.4,0.7-1.4,1.9-3.1,3.7c-0.5,0.5-0.9,1.1-1.1,1.6
		c-0.2,0.5-0.5,0.9-0.9,1.2c-0.5,1-1,1.6-1.3,1.8C199,134.8,198,134.9,196.8,134.8z M196.1,112.9l0.1,2.8c0.1,0.8,0,1.5-0.1,2.2
		c-0.2,0.7-0.2,1.4-0.1,2.2c0.1,0.8,0.1,1.4,0.1,1.9c-0.1,0.5,0,1,0.1,1.3c0.1,0.3,0.2,0.7,0.1,1s-0.1,0.7-0.1,1
		c-0.1,0.9,0.1,1.3,0.5,1.4c0.3,0,0.5-0.1,0.7-0.4c0.2-0.3,0.4-0.6,0.6-1.1c0.3-0.7,0.5-1.6,0.7-2.7c0.1-0.5,0.2-1,0.5-1.5
		c0.5-1,0.7-1.7,0.7-2.2s0-0.7,0-0.8c0-0.1,0.1-0.2,0.1-0.4c0-0.1,0.1-0.3,0.2-0.4c0.1-0.2,0.1-0.5,0.2-0.9c0.1-0.4,0-1-0.2-1.7
		c-0.2-0.7-0.5-1.2-1-1.7c-0.5-0.4-0.9-0.8-1.1-1.1c-0.2-0.3-0.4-0.6-0.5-0.8c-0.3-0.5-0.6-0.6-0.9-0.4
		C196.3,111.1,196.1,111.8,196.1,112.9z"/>
</g>
<path class="st10" d="M105.3,73.3c0-0.2-5.1-1.4-8.1,1.4c-2.4,2.3-6,2.9-7.5,2.2c-0.5-0.3-0.7,0.1-0.7,0.5c0.1,2.4-0.8,5-2.4,5.8
	c0,0-0.1,0,0-0.1c0.1-0.2,0.1-0.5,0.1-0.7c-0.1-0.3-0.2-0.5-0.4-0.7c0.3-0.2,0.6-1,0.4-1.2c-0.3,0.3-0.4,0.6-0.9,0.9
	c-0.3-0.1-0.6-0.1-0.9-0.1l0,0l0,0l0,0l0,0l0,0l0,0l0,0l0,0c-0.3,0-0.6,0.2-0.8,0.3c-0.6-0.1-0.8-0.3-1.2-0.5
	c-0.1,0.3,0.5,0.9,0.8,1c-0.1,0.3-0.2,0.5-0.1,0.8c0,0.2,0.2,0.5,0.3,0.7c0,0,0,0,0,0.1c-1.8-0.2-3.6-2.3-4.4-4.7
	c-0.1-0.4-0.4-0.7-0.8-0.3c-1.1,1.1-4.7,1.8-7.8,0.4c-3.8-1.7-8.2,1.1-8.1,1.3C64.7,80,67.8,80,68,85c3.9-2.5,6.6,1.9,6.5,2.9
	c0,0,4.4-2.5,6,1.9c1.4-0.5,2.8-0.2,3.4,2.3c1.3-0.9,2.5-0.4,3.1,1.1l0,0c0.1-2.4,1.6-2.2,2.5-2c-0.4-2.5,0.9-3.3,2.3-3.2
	c-0.1-4.7,4.9-3.7,4.9-3.7c-0.5-0.8,0.4-5.9,5-4.8C100.3,74.6,103.2,73.5,105.3,73.3z"/>
<path class="st10" d="M198.5,100.7c0.1-0.2-3.2-3.7-6.9-3c-3.1,0.5-6.2-0.9-6.9-2.1c-0.2-0.5-0.6-0.3-0.8,0.1
	c-1.2,1.9-3.2,3.5-4.8,3.2c0,0,0-0.1,0-0.1c0.2-0.1,0.3-0.3,0.4-0.5c0.1-0.3,0.1-0.5,0-0.8c0.3-0.1,0.9-0.5,0.9-0.7
	c-0.4,0.1-0.7,0.3-1.2,0.2c-0.2-0.2-0.4-0.4-0.6-0.5l0,0l0,0l0,0l0,0l0,0l0,0l0,0l0,0c-0.3-0.1-0.5-0.2-0.8-0.1
	c-0.4-0.3-0.5-0.7-0.7-1c-0.2,0.2-0.1,0.9,0.1,1.2c-0.2,0.1-0.4,0.3-0.5,0.6c-0.1,0.2-0.1,0.4-0.1,0.7c0,0,0,0-0.1,0
	c-1.3-1.1-1.6-3.7-1-5.8c0.1-0.4,0-0.7-0.5-0.6c-1.4,0.3-4.5-1-6.2-3.7c-2.1-3.3-6.9-3.4-6.9-3.1c1.8,0.7,4.2,2.3,1.8,6.3
	c4.3,0.1,4.1,4.9,3.5,5.5c0,0,4.6,0.3,3.7,4.6c1.3,0.3,2.3,1.3,1.5,3.5c1.5,0,2.2,1,1.8,2.4l0,0c1.3-1.9,2.4-0.9,3-0.3
	c1-2.1,2.3-2.1,3.5-1.3c2.3-3.6,5.7-0.4,5.7-0.4c0.1-0.9,3.3-4.4,6.4-1.1C194,99.2,196.8,99.8,198.5,100.7z"/>
</svg>
