<?xml version="1.0" encoding="UTF-8"?>
<svg id="Layer_1" data-name="Layer 1" xmlns="http://www.w3.org/2000/svg" viewBox="0 0 999.47 924.51">
  <defs>
    <style>
      .cls-1 {
        fill: #57fa79;
      }
    </style>
  </defs>
  <path class="cls-1" d="M714.54,40.56c-130.84,0-210.49,102.4-210.49,102.4,0,0-68.27-102.4-210.49-102.4S43.25,120.2,43.25,313.62c0,273.07,460.8,568.89,460.8,568.89,0,0,449.42-312.89,449.42-563.2,0-204.8-130.84-278.76-238.93-278.76m-210.49,773.69S100.14,535.49,100.14,313.62c0-142.22,96.71-221.87,204.8-221.87s199.11,119.47,199.11,119.47c0,0,108.09-119.47,204.8-119.47s193.42,73.96,193.42,227.55c-5.69,216.18-398.22,494.93-398.22,494.93"/>
  <path class="cls-1" d="M737.11,0C593.44,0,505.98,112.44,505.98,112.44,505.98,112.44,431.02,0,274.85,0S0,87.45,0,299.84c0,299.84,505.98,624.67,505.98,624.67,0,0,493.49-343.57,493.49-618.42C999.47,81.21,855.8,0,737.11,0m-231.13,849.55S62.47,543.46,62.47,299.84c0-156.17,106.19-243.62,224.88-243.62s218.63,131.18,218.63,131.18c0,0,118.69-131.18,224.88-131.18s212.39,81.21,212.39,249.87c-6.25,237.37-437.27,543.46-437.27,543.46"/>
</svg>