<?xml version="1.0" encoding="UTF-8"?>
<svg id="Layer_1" data-name="Layer 1" xmlns="http://www.w3.org/2000/svg" viewBox="0 0 1022.32 712.59">
  <defs>
    <style>
      .cls-1 {
        fill: #57fa79;
      }
    </style>
  </defs>
  <path class="cls-1" d="M961.19,432.77l-116.92,115.38V184.69C844.26,84.9,766.45,0,666.66,0H334.48l84.49,86.04h247.7c52.26,0,91.56,46.37,91.56,98.65v363.02l-113.43-114.95-60.05,60.83,219.39,219,218.19-219-61.14-60.83Zm-604.27,186.7c-52.24,0-97.7-38.37-97.7-90.65V165.67l116.65,115.12,61.6-60.85L218.83,.95,0,219.94l59.38,60.85,113.79-115.2v363.25c0,99.75,83.97,176.67,183.74,176.67h332.27l-84.49-86.04h-247.79Z"/>
</svg>